{"glyphs":{"0":{"ha":928,"x_min":0,"x_max":0,"o":"m 464 -11 b 856 490 707 -11 856 179 b 464 990 856 800 707 990 b 72 490 221 990 72 800 b 464 -11 72 179 221 -11 z m 464 79 b 176 490 286 79 176 235 b 464 900 176 744 286 900 b 751 490 642 900 751 744 b 464 79 751 235 642 79 z "},"1":{"ha":424,"x_min":0,"x_max":0,"o":"m 201 0 l 306 0 l 306 972 l 215 972 l 32 806 l 32 693 l 201 846 z "},"2":{"ha":875,"x_min":0,"x_max":0,"o":"m 99 69 l 99 0 l 785 0 l 785 93 l 207 93 b 779 703 218 422 779 331 b 446 989 779 897 631 989 b 86 726 253 989 122 894 l 183 611 b 446 904 174 821 317 904 b 671 703 565 904 671 836 b 99 69 671 403 99 492 z "},"3":{"ha":869,"x_min":0,"x_max":0,"o":"m 429 568 l 296 568 l 296 478 l 429 478 b 665 282 571 478 665 400 b 414 67 665 142 543 67 b 133 360 271 67 124 150 l 36 244 b 414 -18 72 76 207 -18 b 772 276 610 -18 772 82 b 586 526 772 399 703 486 b 731 732 678 563 731 635 b 414 989 731 903 590 989 b 69 740 229 989 106 900 l 167 625 b 414 907 157 826 294 907 b 624 732 528 907 624 844 b 429 568 624 629 546 568 z "},"4":{"ha":858,"x_min":0,"x_max":0,"o":"m 515 0 l 619 0 l 619 283 l 858 283 l 858 369 l 619 369 l 619 972 l 457 972 l 40 363 l 40 283 l 515 283 z m 156 369 l 515 890 l 515 369 z "},"5":{"ha":915,"x_min":0,"x_max":0,"o":"m 222 414 b 474 579 271 515 351 579 b 726 332 625 579 726 481 b 474 72 726 176 625 72 b 208 360 350 72 206 154 l 111 244 b 467 -18 153 76 292 -18 b 833 333 686 -18 833 122 b 497 665 833 532 699 665 b 243 543 406 665 306 635 l 254 879 l 785 879 l 785 972 l 161 972 l 140 421 z "},"6":{"ha":879,"x_min":0,"x_max":0,"o":"m 464 -14 b 817 324 678 -14 817 131 b 478 643 817 514 678 643 b 178 442 325 643 219 564 b 176 489 176 457 176 474 b 472 897 176 726 294 897 b 739 696 594 897 707 831 l 803 828 b 472 988 740 932 613 988 b 72 475 222 988 72 778 b 464 -14 72 196 211 -14 z m 215 317 b 464 556 215 456 319 556 b 713 317 608 556 713 456 b 464 76 713 176 608 76 b 215 317 322 76 215 174 z "},"7":{"ha":772,"x_min":0,"x_max":0,"o":"m 153 0 l 264 0 l 717 896 l 717 972 l 56 972 l 56 879 l 603 879 z "},"8":{"ha":833,"x_min":0,"x_max":0,"o":"m 414 568 b 194 732 276 568 194 629 b 414 904 194 843 296 904 b 633 732 532 904 633 843 b 414 568 633 629 551 568 z m 414 478 b 675 275 576 478 675 393 b 414 67 675 135 549 67 b 153 275 279 67 153 135 b 414 478 153 393 251 478 z m 49 275 b 414 -18 49 74 215 -18 b 779 275 613 -18 779 74 b 582 525 779 392 707 483 b 738 732 681 561 738 633 b 414 989 738 903 594 989 b 90 732 233 989 90 903 b 246 525 90 633 147 561 b 49 275 121 483 49 392 z "},"9":{"ha":879,"x_min":0,"x_max":0,"o":"m 415 989 b 63 651 201 989 63 844 b 401 332 63 461 201 332 b 701 533 554 332 660 411 b 703 486 703 518 703 501 b 407 78 703 249 585 78 b 140 279 285 78 172 144 l 76 147 b 407 -12 139 43 267 -12 b 807 500 657 -12 807 197 b 415 989 807 779 668 989 z m 664 658 b 415 419 664 519 560 419 b 167 658 271 419 167 519 b 415 899 167 799 271 899 b 664 658 557 899 664 801 z "}," ":{"ha":278,"x_min":0,"x_max":0,"o":""},"A":{"ha":1053,"x_min":0,"x_max":0,"o":"m 915 0 l 1029 0 l 599 972 l 454 972 l 24 0 l 135 0 l 321 422 l 729 422 z m 360 513 l 525 888 l 690 513 z "},"Á":{"ha":1053,"x_min":0,"x_max":0,"o":"m 915 0 l 1029 0 l 599 972 l 454 972 l 24 0 l 135 0 l 321 422 l 729 422 z m 499 1074 l 560 1074 l 767 1279 l 597 1279 z m 360 513 l 525 888 l 690 513 z "},"Ă":{"ha":1053,"x_min":0,"x_max":0,"o":"m 915 0 l 1029 0 l 599 972 l 454 972 l 24 0 l 135 0 l 321 422 l 729 422 z m 397 1279 l 301 1279 b 526 1065 301 1156 396 1065 b 750 1279 656 1065 750 1156 l 656 1279 b 526 1147 650 1203 596 1147 b 397 1279 456 1147 401 1203 z m 360 513 l 525 888 l 690 513 z "},"Â":{"ha":1053,"x_min":0,"x_max":0,"o":"m 915 0 l 1029 0 l 599 972 l 454 972 l 24 0 l 135 0 l 321 422 l 729 422 z m 651 1074 l 783 1074 l 560 1279 l 492 1279 l 268 1074 l 399 1074 l 525 1193 z m 360 513 l 525 888 l 690 513 z "},"Ä":{"ha":1053,"x_min":0,"x_max":0,"o":"m 915 0 l 1029 0 l 599 972 l 454 972 l 24 0 l 135 0 l 321 422 l 729 422 z m 307 1101 l 454 1101 l 454 1247 l 307 1247 z m 599 1101 l 746 1101 l 746 1247 l 599 1247 z m 360 513 l 525 888 l 690 513 z "},"À":{"ha":1053,"x_min":0,"x_max":0,"o":"m 915 0 l 1029 0 l 599 972 l 454 972 l 24 0 l 135 0 l 321 422 l 729 422 z m 554 1074 l 456 1279 l 286 1279 l 493 1074 z m 360 513 l 525 888 l 690 513 z "},"Ā":{"ha":1053,"x_min":0,"x_max":0,"o":"m 915 0 l 1029 0 l 599 972 l 454 972 l 24 0 l 135 0 l 321 422 l 729 422 z m 281 1211 l 281 1129 l 771 1129 l 771 1211 z m 360 513 l 525 888 l 690 513 z "},"Ą":{"ha":1053,"x_min":0,"x_max":0,"o":"m 24 0 l 135 0 l 321 422 l 729 422 l 904 26 b 908 -286 706 -22 724 -286 b 1025 -243 942 -286 990 -274 l 1025 -126 b 919 -204 990 -192 953 -204 b 986 0 811 -204 813 0 l 1029 0 l 599 972 l 454 972 z m 360 513 l 525 888 l 690 513 z "},"Å":{"ha":1053,"x_min":0,"x_max":0,"o":"m 915 0 l 1029 0 l 599 972 l 454 972 l 24 0 l 135 0 l 321 422 l 729 422 z m 526 1067 b 678 1211 615 1067 678 1126 b 526 1354 678 1294 615 1354 b 375 1211 438 1354 375 1294 b 526 1067 375 1126 438 1067 z m 526 1139 b 458 1211 488 1139 458 1169 b 526 1282 458 1251 488 1282 b 594 1211 565 1282 594 1251 b 526 1139 594 1169 565 1139 z m 360 513 l 525 888 l 690 513 z "},"Ã":{"ha":1053,"x_min":0,"x_max":0,"o":"m 915 0 l 1029 0 l 599 972 l 454 972 l 24 0 l 135 0 l 321 422 l 729 422 z m 411 1172 b 640 1068 483 1172 515 1068 b 782 1253 738 1068 797 1132 l 694 1253 b 640 1149 708 1182 682 1149 b 411 1253 568 1149 536 1253 b 269 1068 314 1253 254 1189 l 357 1068 b 411 1172 343 1139 369 1172 z m 360 513 l 525 888 l 690 513 z "},"Æ":{"ha":1461,"x_min":0,"x_max":0,"o":"m 8 0 l 129 0 l 411 422 l 721 422 l 721 0 l 1392 0 l 1392 90 l 825 90 l 825 478 l 1378 478 l 1378 568 l 825 568 l 825 882 l 1392 882 l 1392 972 l 660 972 z m 471 513 l 721 888 l 721 513 z "},"B":{"ha":964,"x_min":0,"x_max":0,"o":"m 118 0 l 503 0 b 867 296 728 0 867 115 b 679 556 867 422 797 513 b 811 749 763 590 811 660 b 531 972 811 892 706 972 l 118 972 z m 222 90 l 222 507 l 503 507 b 763 296 664 507 763 426 b 503 90 763 168 664 90 z m 222 597 l 222 882 l 531 882 b 707 740 640 882 707 828 b 531 597 707 651 640 597 z "},"C":{"ha":1078,"x_min":0,"x_max":0,"o":"m 1014 229 l 947 364 b 575 79 907 181 753 79 b 176 490 343 79 176 251 b 575 900 176 729 343 900 b 944 626 749 900 900 804 l 1010 758 b 575 990 928 901 775 990 b 72 490 269 990 72 781 b 575 -11 72 199 269 -11 b 1014 229 778 -11 933 81 z "},"Ć":{"ha":1078,"x_min":0,"x_max":0,"o":"m 1014 229 l 947 364 b 575 79 907 181 753 79 b 176 490 343 79 176 251 b 575 900 176 729 343 900 b 944 626 749 900 900 804 l 1010 758 b 575 990 928 901 775 990 b 72 490 269 990 72 781 b 575 -11 72 199 269 -11 b 1014 229 778 -11 933 81 z m 543 1074 l 604 1074 l 811 1279 l 642 1279 z "},"Č":{"ha":1078,"x_min":0,"x_max":0,"o":"m 1014 229 l 947 364 b 575 79 907 181 753 79 b 176 490 343 79 176 251 b 575 900 176 729 343 900 b 944 626 749 900 900 804 l 1010 758 b 575 990 928 901 775 990 b 72 490 269 990 72 781 b 575 -11 72 199 269 -11 b 1014 229 778 -11 933 81 z m 444 1279 l 313 1279 l 536 1074 l 604 1074 l 828 1279 l 697 1279 l 571 1160 z "},"Ç":{"ha":1078,"x_min":0,"x_max":0,"o":"m 1014 229 l 947 364 b 575 79 907 181 753 79 b 176 490 343 79 176 251 b 575 900 176 729 343 900 b 944 626 749 900 900 804 l 1010 758 b 575 990 928 901 775 990 b 72 490 269 990 72 781 b 535 -10 72 211 253 8 l 519 -104 l 547 -104 b 621 -167 594 -104 621 -131 b 561 -231 621 -204 596 -231 b 501 -128 526 -231 488 -207 l 424 -185 b 561 -297 431 -247 481 -297 b 699 -167 640 -297 699 -243 b 592 -42 699 -101 654 -53 l 596 -11 b 1014 229 789 -4 936 86 z "},"Ĉ":{"ha":1078,"x_min":0,"x_max":0,"o":"m 1014 229 l 947 364 b 575 79 907 181 753 79 b 176 490 343 79 176 251 b 575 900 176 729 343 900 b 944 626 749 900 900 804 l 1010 758 b 575 990 928 901 775 990 b 72 490 269 990 72 781 b 575 -11 72 199 269 -11 b 1014 229 778 -11 933 81 z m 696 1074 l 828 1074 l 604 1279 l 536 1279 l 313 1074 l 443 1074 l 569 1193 z "},"Ċ":{"ha":1078,"x_min":0,"x_max":0,"o":"m 1014 229 l 947 364 b 575 79 907 181 753 79 b 176 490 343 79 176 251 b 575 900 176 729 343 900 b 944 626 749 900 900 804 l 1010 758 b 575 990 928 901 775 990 b 72 490 269 990 72 781 b 575 -11 72 199 269 -11 b 1014 229 778 -11 933 81 z m 493 1093 l 649 1093 l 649 1249 l 493 1249 z "},"D":{"ha":994,"x_min":0,"x_max":0,"o":"m 419 972 l 118 972 l 118 0 l 419 0 b 922 490 725 0 922 206 b 419 972 922 769 725 972 z m 222 89 l 222 882 l 419 882 b 818 490 651 882 818 717 b 419 89 818 257 651 89 z "},"Ð":{"ha":1103,"x_min":0,"x_max":0,"o":"m 528 972 l 226 972 l 226 521 l 36 521 l 36 472 l 226 472 l 226 0 l 528 0 b 1031 490 833 0 1031 206 b 528 972 1031 769 833 972 z m 331 89 l 331 472 l 526 472 l 526 521 l 331 521 l 331 882 l 528 882 b 926 490 760 882 926 717 b 528 89 926 257 760 89 z "},"Ď":{"ha":994,"x_min":0,"x_max":0,"o":"m 419 972 l 118 972 l 118 0 l 419 0 b 922 490 725 0 922 206 b 419 972 922 769 725 972 z m 369 1279 l 238 1279 l 461 1074 l 529 1074 l 753 1279 l 622 1279 l 496 1160 z m 222 89 l 222 882 l 419 882 b 818 490 651 882 818 717 b 419 89 818 257 651 89 z "},"Ḑ":{"ha":994,"x_min":0,"x_max":0,"o":"m 419 972 l 118 972 l 118 0 l 419 0 b 922 490 725 0 922 206 b 419 972 922 769 725 972 z m 424 -226 l 483 -226 b 399 -353 475 -271 453 -308 l 508 -353 b 571 -131 564 -283 571 -235 l 571 -81 l 424 -81 z m 222 89 l 222 882 l 419 882 b 818 490 651 882 818 717 b 419 89 818 257 651 89 z "},"Đ":{"ha":1061,"x_min":0,"x_max":0,"o":"m 486 972 l 185 972 l 185 521 l -6 521 l -6 472 l 185 472 l 185 0 l 486 0 b 989 490 792 0 989 206 b 486 972 989 769 792 972 z m 289 89 l 289 472 l 485 472 l 485 521 l 289 521 l 289 882 l 486 882 b 885 490 718 882 885 717 b 486 89 885 257 718 89 z "},"E":{"ha":858,"x_min":0,"x_max":0,"o":"m 118 0 l 789 0 l 789 90 l 222 90 l 222 478 l 775 478 l 775 568 l 222 568 l 222 882 l 789 882 l 789 972 l 118 972 z "},"É":{"ha":858,"x_min":0,"x_max":0,"o":"m 118 0 l 789 0 l 789 90 l 222 90 l 222 478 l 775 478 l 775 568 l 222 568 l 222 882 l 789 882 l 789 972 l 118 972 z m 408 1074 l 469 1074 l 676 1279 l 507 1279 z "},"Ĕ":{"ha":858,"x_min":0,"x_max":0,"o":"m 118 0 l 789 0 l 789 90 l 222 90 l 222 478 l 775 478 l 775 568 l 222 568 l 222 882 l 789 882 l 789 972 l 118 972 z m 307 1279 l 211 1279 b 436 1065 211 1156 306 1065 b 660 1279 565 1065 660 1156 l 565 1279 b 436 1147 560 1203 506 1147 b 307 1279 365 1147 311 1203 z "},"Ě":{"ha":858,"x_min":0,"x_max":0,"o":"m 118 0 l 789 0 l 789 90 l 222 90 l 222 478 l 775 478 l 775 568 l 222 568 l 222 882 l 789 882 l 789 972 l 118 972 z m 310 1279 l 178 1279 l 401 1074 l 469 1074 l 693 1279 l 563 1279 l 436 1160 z "},"Ê":{"ha":858,"x_min":0,"x_max":0,"o":"m 118 0 l 789 0 l 789 90 l 222 90 l 222 478 l 775 478 l 775 568 l 222 568 l 222 882 l 789 882 l 789 972 l 118 972 z m 561 1074 l 693 1074 l 469 1279 l 401 1279 l 178 1074 l 308 1074 l 435 1193 z "},"Ë":{"ha":858,"x_min":0,"x_max":0,"o":"m 118 0 l 789 0 l 789 90 l 222 90 l 222 478 l 775 478 l 775 568 l 222 568 l 222 882 l 789 882 l 789 972 l 118 972 z m 217 1101 l 364 1101 l 364 1247 l 217 1247 z m 508 1101 l 656 1101 l 656 1247 l 508 1247 z "},"Ė":{"ha":858,"x_min":0,"x_max":0,"o":"m 118 0 l 789 0 l 789 90 l 222 90 l 222 478 l 775 478 l 775 568 l 222 568 l 222 882 l 789 882 l 789 972 l 118 972 z m 358 1093 l 514 1093 l 514 1249 l 358 1249 z "},"Ẹ":{"ha":858,"x_min":0,"x_max":0,"o":"m 118 0 l 789 0 l 789 90 l 222 90 l 222 478 l 775 478 l 775 568 l 222 568 l 222 882 l 789 882 l 789 972 l 118 972 z "},"È":{"ha":858,"x_min":0,"x_max":0,"o":"m 118 0 l 789 0 l 789 90 l 222 90 l 222 478 l 775 478 l 775 568 l 222 568 l 222 882 l 789 882 l 789 972 l 118 972 z m 464 1074 l 365 1279 l 196 1279 l 403 1074 z "},"Ē":{"ha":858,"x_min":0,"x_max":0,"o":"m 118 0 l 789 0 l 789 90 l 222 90 l 222 478 l 775 478 l 775 568 l 222 568 l 222 882 l 789 882 l 789 972 l 118 972 z m 190 1211 l 190 1129 l 681 1129 l 681 1211 z "},"Ę":{"ha":858,"x_min":0,"x_max":0,"o":"m 118 0 l 600 0 b 668 -286 472 -83 506 -286 b 785 -243 701 -286 750 -274 l 785 -126 b 679 -204 750 -192 713 -204 b 746 0 571 -204 572 0 l 789 0 l 789 90 l 222 90 l 222 478 l 775 478 l 775 568 l 222 568 l 222 882 l 789 882 l 789 972 l 118 972 z "},"Ẽ":{"ha":858,"x_min":0,"x_max":0,"o":"m 118 0 l 789 0 l 789 90 l 222 90 l 222 478 l 775 478 l 775 568 l 222 568 l 222 882 l 789 882 l 789 972 l 118 972 z m 321 1172 b 550 1068 393 1172 425 1068 b 692 1253 647 1068 707 1132 l 604 1253 b 550 1149 618 1182 592 1149 b 321 1253 478 1149 446 1253 b 179 1068 224 1253 164 1189 l 267 1068 b 321 1172 253 1139 279 1172 z "},"Ə":{"ha":1121,"x_min":0,"x_max":0,"o":"m 79 447 b 556 -11 79 199 265 -11 b 1049 488 854 -11 1049 199 b 554 989 1049 783 854 989 b 125 799 360 989 211 921 l 179 675 b 554 894 249 819 372 894 b 944 507 785 894 944 721 l 944 490 l 79 490 z m 186 403 l 942 403 b 556 79 921 213 782 79 b 186 403 369 79 200 193 z "},"F":{"ha":810,"x_min":0,"x_max":0,"o":"m 118 0 l 222 0 l 222 478 l 775 478 l 775 568 l 222 568 l 222 882 l 789 882 l 789 972 l 118 972 z "},"G":{"ha":1133,"x_min":0,"x_max":0,"o":"m 910 0 l 1014 0 l 1014 542 l 431 542 l 431 451 l 910 451 l 910 433 b 568 79 907 181 746 79 b 176 490 336 79 176 251 b 575 900 176 729 343 900 b 944 626 749 900 900 804 l 1010 758 b 575 990 928 901 775 990 b 72 488 269 990 72 782 b 544 -11 72 199 263 -11 b 910 226 717 -11 850 68 z "},"Ğ":{"ha":1133,"x_min":0,"x_max":0,"o":"m 910 0 l 1014 0 l 1014 542 l 431 542 l 431 451 l 910 451 l 910 433 b 568 79 907 181 746 79 b 176 490 336 79 176 251 b 575 900 176 729 343 900 b 944 626 749 900 900 804 l 1010 758 b 575 990 928 901 775 990 b 72 488 269 990 72 782 b 544 -11 72 199 263 -11 b 910 226 717 -11 850 68 z m 439 1279 l 343 1279 b 568 1065 343 1156 438 1065 b 792 1279 697 1065 792 1156 l 697 1279 b 568 1147 692 1203 638 1147 b 439 1279 497 1147 443 1203 z "},"Ǧ":{"ha":1133,"x_min":0,"x_max":0,"o":"m 910 0 l 1014 0 l 1014 542 l 431 542 l 431 451 l 910 451 l 910 433 b 568 79 907 181 746 79 b 176 490 336 79 176 251 b 575 900 176 729 343 900 b 944 626 749 900 900 804 l 1010 758 b 575 990 928 901 775 990 b 72 488 269 990 72 782 b 544 -11 72 199 263 -11 b 910 226 717 -11 850 68 z m 442 1279 l 310 1279 l 533 1074 l 601 1074 l 825 1279 l 694 1279 l 568 1160 z "},"Ĝ":{"ha":1133,"x_min":0,"x_max":0,"o":"m 910 0 l 1014 0 l 1014 542 l 431 542 l 431 451 l 910 451 l 910 433 b 568 79 907 181 746 79 b 176 490 336 79 176 251 b 575 900 176 729 343 900 b 944 626 749 900 900 804 l 1010 758 b 575 990 928 901 775 990 b 72 488 269 990 72 782 b 544 -11 72 199 263 -11 b 910 226 717 -11 850 68 z m 693 1074 l 825 1074 l 601 1279 l 533 1279 l 310 1074 l 440 1074 l 567 1193 z "},"Ģ":{"ha":1133,"x_min":0,"x_max":0,"o":"m 910 0 l 1014 0 l 1014 542 l 431 542 l 431 451 l 910 451 l 910 433 b 568 79 907 181 746 79 b 176 490 336 79 176 251 b 575 900 176 729 343 900 b 944 626 749 900 900 804 l 1010 758 b 575 990 928 901 775 990 b 72 488 269 990 72 782 b 544 -11 72 199 263 -11 b 910 226 717 -11 850 68 z m 496 -226 l 556 -226 b 471 -353 547 -271 525 -308 l 581 -353 b 643 -131 636 -283 643 -235 l 643 -81 l 496 -81 z "},"Ġ":{"ha":1133,"x_min":0,"x_max":0,"o":"m 910 0 l 1014 0 l 1014 542 l 431 542 l 431 451 l 910 451 l 910 433 b 568 79 907 181 746 79 b 176 490 336 79 176 251 b 575 900 176 729 343 900 b 944 626 749 900 900 804 l 1010 758 b 575 990 928 901 775 990 b 72 488 269 990 72 782 b 544 -11 72 199 263 -11 b 910 226 717 -11 850 68 z m 490 1093 l 646 1093 l 646 1249 l 490 1249 z "},"Ḡ":{"ha":1133,"x_min":0,"x_max":0,"o":"m 910 0 l 1014 0 l 1014 542 l 431 542 l 431 451 l 910 451 l 910 433 b 568 79 907 181 746 79 b 176 490 336 79 176 251 b 575 900 176 729 343 900 b 944 626 749 900 900 804 l 1010 758 b 575 990 928 901 775 990 b 72 488 269 990 72 782 b 544 -11 72 199 263 -11 b 910 226 717 -11 850 68 z m 322 1211 l 322 1129 l 813 1129 l 813 1211 z "},"H":{"ha":1049,"x_min":0,"x_max":0,"o":"m 118 0 l 222 0 l 222 478 l 826 478 l 826 0 l 931 0 l 931 972 l 826 972 l 826 568 l 222 568 l 222 972 l 118 972 z "},"Ħ":{"ha":1101,"x_min":0,"x_max":0,"o":"m 146 0 l 250 0 l 250 478 l 854 478 l 854 0 l 958 0 l 958 732 l 1088 732 l 1088 781 l 958 781 l 958 972 l 854 972 l 854 781 l 250 781 l 250 972 l 146 972 l 146 781 l 14 781 l 14 732 l 146 732 z m 250 568 l 250 732 l 854 732 l 854 568 z "},"Ĥ":{"ha":1049,"x_min":0,"x_max":0,"o":"m 118 0 l 222 0 l 222 478 l 826 478 l 826 0 l 931 0 l 931 972 l 826 972 l 826 568 l 222 568 l 222 972 l 118 972 z m 650 1074 l 782 1074 l 558 1279 l 490 1279 l 267 1074 l 397 1074 l 524 1193 z "},"Ḥ":{"ha":1049,"x_min":0,"x_max":0,"o":"m 118 0 l 222 0 l 222 478 l 826 478 l 826 0 l 931 0 l 931 972 l 826 972 l 826 568 l 222 568 l 222 972 l 118 972 z m 451 -228 l 599 -228 l 599 -81 l 451 -81 z "},"I":{"ha":340,"x_min":0,"x_max":0,"o":"m 118 0 l 222 0 l 222 972 l 118 972 z "},"Ĳ":{"ha":931,"x_min":0,"x_max":0,"o":"m 111 514 l 215 514 l 215 972 l 111 972 z m 463 -14 b 819 357 683 -14 819 126 l 819 972 l 715 972 l 715 357 b 463 78 715 183 619 78 b 215 369 333 78 210 161 l 118 254 b 463 -14 149 93 267 -14 z "},"Í":{"ha":340,"x_min":0,"x_max":0,"o":"m 118 0 l 222 0 l 222 972 l 118 972 z m 143 1074 l 204 1074 l 411 1279 l 242 1279 z "},"Ĭ":{"ha":340,"x_min":0,"x_max":0,"o":"m 118 0 l 222 0 l 222 972 l 118 972 z m 42 1279 l -54 1279 b 171 1065 -54 1156 40 1065 b 394 1279 300 1065 394 1156 l 300 1279 b 171 1147 294 1203 240 1147 b 42 1279 100 1147 46 1203 z "},"Î":{"ha":340,"x_min":0,"x_max":0,"o":"m 118 0 l 222 0 l 222 972 l 118 972 z m 296 1074 l 428 1074 l 204 1279 l 136 1279 l -87 1074 l 43 1074 l 169 1193 z "},"Ï":{"ha":340,"x_min":0,"x_max":0,"o":"m 118 0 l 222 0 l 222 972 l 118 972 z m -49 1101 l 99 1101 l 99 1247 l -49 1247 z m 243 1101 l 390 1101 l 390 1247 l 243 1247 z "},"İ":{"ha":340,"x_min":0,"x_max":0,"o":"m 118 0 l 222 0 l 222 972 l 118 972 z m 93 1093 l 249 1093 l 249 1249 l 93 1249 z "},"Ì":{"ha":340,"x_min":0,"x_max":0,"o":"m 118 0 l 222 0 l 222 972 l 118 972 z m 199 1074 l 100 1279 l -69 1279 l 138 1074 z "},"Ī":{"ha":340,"x_min":0,"x_max":0,"o":"m 118 0 l 222 0 l 222 972 l 118 972 z m -33 1197 l -33 1115 l 374 1115 l 374 1197 z "},"Į":{"ha":340,"x_min":0,"x_max":0,"o":"m 222 0 l 222 972 l 118 972 l 118 21 b 144 -286 -57 -43 -33 -286 b 261 -243 178 -286 226 -274 l 261 -126 b 156 -204 226 -192 189 -204 b 222 0 47 -204 49 0 z "},"Ɨ":{"ha":415,"x_min":0,"x_max":0,"o":"m 157 0 l 261 0 l 261 472 l 411 472 l 411 521 l 261 521 l 261 972 l 157 972 l 157 521 l 4 521 l 4 472 l 157 472 z "},"Ĩ":{"ha":340,"x_min":0,"x_max":0,"o":"m 118 0 l 222 0 l 222 972 l 118 972 z m 56 1172 b 285 1068 128 1172 160 1068 b 426 1253 382 1068 442 1132 l 339 1253 b 285 1149 353 1182 326 1149 b 56 1253 213 1149 181 1253 b -86 1068 -42 1253 -101 1189 l 1 1068 b 56 1172 -12 1139 14 1172 z "},"J":{"ha":875,"x_min":0,"x_max":0,"o":"m 407 -14 b 764 357 628 -14 764 126 l 764 972 l 660 972 l 660 357 b 407 78 660 183 564 78 b 160 369 278 78 154 161 l 63 254 b 407 -14 93 93 211 -14 z "},"Ĵ":{"ha":875,"x_min":0,"x_max":0,"o":"m 407 -14 b 764 357 628 -14 764 126 l 764 972 l 660 972 l 660 357 b 407 78 660 183 564 78 b 160 369 278 78 154 161 l 63 254 b 407 -14 93 93 211 -14 z m 835 1074 l 967 1074 l 743 1279 l 675 1279 l 451 1074 l 582 1074 l 708 1193 z "},"K":{"ha":956,"x_min":0,"x_max":0,"o":"m 118 0 l 222 0 l 222 363 l 426 546 l 815 0 l 942 0 l 503 614 l 903 972 l 769 972 l 222 479 l 222 972 l 118 972 z "},"Ķ":{"ha":956,"x_min":0,"x_max":0,"o":"m 118 0 l 222 0 l 222 363 l 426 546 l 815 0 l 942 0 l 503 614 l 903 972 l 769 972 l 222 479 l 222 972 l 118 972 z m 406 -226 l 465 -226 b 381 -353 457 -271 435 -308 l 490 -353 b 553 -131 546 -283 553 -235 l 553 -81 l 406 -81 z "},"L":{"ha":789,"x_min":0,"x_max":0,"o":"m 118 0 l 761 0 l 761 90 l 222 90 l 222 972 l 118 972 z "},"Ĺ":{"ha":789,"x_min":0,"x_max":0,"o":"m 118 0 l 761 0 l 761 90 l 222 90 l 222 972 l 118 972 z m 138 1074 l 199 1074 l 406 1279 l 236 1279 z "},"Ľ":{"ha":789,"x_min":0,"x_max":0,"o":"m 118 0 l 761 0 l 761 90 l 222 90 l 222 972 l 118 972 z m 606 826 l 671 826 b 581 618 671 740 664 688 l 690 618 b 753 840 746 688 753 736 l 753 972 l 606 972 z "},"Ļ":{"ha":789,"x_min":0,"x_max":0,"o":"m 118 0 l 761 0 l 761 90 l 222 90 l 222 972 l 118 972 z m 329 -226 l 389 -226 b 304 -353 381 -271 358 -308 l 414 -353 b 476 -131 469 -283 476 -235 l 476 -81 l 329 -81 z "},"Ŀ":{"ha":792,"x_min":0,"x_max":0,"o":"m 118 0 l 761 0 l 761 90 l 222 90 l 222 972 l 118 972 z m 479 431 l 626 431 l 626 576 l 479 576 z "},"Ḷ":{"ha":789,"x_min":0,"x_max":0,"o":"m 118 0 l 761 0 l 761 90 l 222 90 l 222 972 l 118 972 z m 328 -228 l 475 -228 l 475 -81 l 328 -81 z "},"Ł":{"ha":846,"x_min":0,"x_max":0,"o":"m 175 0 l 818 0 l 818 90 l 279 90 l 279 486 l 490 569 l 490 622 l 279 539 l 279 972 l 175 972 l 175 497 l 0 428 l 0 375 l 175 444 z "},"M":{"ha":1138,"x_min":0,"x_max":0,"o":"m 569 235 l 915 875 l 915 0 l 1019 0 l 1019 972 l 858 972 l 572 429 l 286 972 l 118 972 l 118 0 l 222 0 l 222 875 z "},"N":{"ha":1035,"x_min":0,"x_max":0,"o":"m 118 0 l 222 0 l 222 874 l 753 0 l 917 0 l 917 972 l 813 972 l 813 88 l 282 972 l 118 972 z "},"Ń":{"ha":1035,"x_min":0,"x_max":0,"o":"m 118 0 l 222 0 l 222 874 l 753 0 l 917 0 l 917 972 l 813 972 l 813 88 l 282 972 l 118 972 z m 490 1074 l 551 1074 l 758 1279 l 589 1279 z "},"Ň":{"ha":1035,"x_min":0,"x_max":0,"o":"m 118 0 l 222 0 l 222 874 l 753 0 l 917 0 l 917 972 l 813 972 l 813 88 l 282 972 l 118 972 z m 392 1279 l 260 1279 l 483 1074 l 551 1074 l 775 1279 l 644 1279 l 518 1160 z "},"Ņ":{"ha":1035,"x_min":0,"x_max":0,"o":"m 118 0 l 222 0 l 222 874 l 753 0 l 917 0 l 917 972 l 813 972 l 813 88 l 282 972 l 118 972 z m 446 -226 l 506 -226 b 421 -353 497 -271 475 -308 l 531 -353 b 593 -131 586 -283 593 -235 l 593 -81 l 446 -81 z "},"Ɲ":{"ha":1071,"x_min":0,"x_max":0,"o":"m 182 972 l 182 -93 b 113 -197 182 -165 157 -197 b 7 -119 79 -197 42 -185 l 7 -243 b 124 -286 42 -274 90 -286 b 286 -107 224 -286 286 -218 l 286 874 l 789 0 l 953 0 l 953 972 l 849 972 l 849 89 l 346 972 z "},"Ñ":{"ha":1035,"x_min":0,"x_max":0,"o":"m 118 0 l 222 0 l 222 874 l 753 0 l 917 0 l 917 972 l 813 972 l 813 88 l 282 972 l 118 972 z m 403 1172 b 632 1068 475 1172 507 1068 b 774 1253 729 1068 789 1132 l 686 1253 b 632 1149 700 1182 674 1149 b 403 1253 560 1149 528 1253 b 261 1068 306 1253 246 1189 l 349 1068 b 403 1172 335 1139 361 1172 z "},"Ŋ":{"ha":1007,"x_min":0,"x_max":0,"o":"m 118 0 l 222 0 l 222 874 l 725 0 l 785 0 l 785 -93 b 715 -197 785 -165 760 -197 b 610 -119 682 -197 644 -185 l 610 -243 b 726 -286 644 -274 693 -286 b 889 -107 826 -286 889 -218 l 889 972 l 785 972 l 785 89 l 282 972 l 118 972 z "},"O":{"ha":1150,"x_min":0,"x_max":0,"o":"m 575 -11 b 1078 490 881 -11 1078 199 b 575 990 1078 781 881 990 b 72 490 269 990 72 781 b 575 -11 72 199 269 -11 z m 575 79 b 176 490 343 79 176 251 b 575 900 176 729 343 900 b 974 490 807 900 974 729 b 575 79 974 251 807 79 z "},"Ó":{"ha":1150,"x_min":0,"x_max":0,"o":"m 575 -11 b 1078 490 881 -11 1078 199 b 575 990 1078 781 881 990 b 72 490 269 990 72 781 b 575 -11 72 199 269 -11 z m 575 79 b 176 490 343 79 176 251 b 575 900 176 729 343 900 b 974 490 807 900 974 729 b 575 79 974 251 807 79 z m 547 1074 l 608 1074 l 815 1279 l 646 1279 z "},"Ŏ":{"ha":1150,"x_min":0,"x_max":0,"o":"m 575 -11 b 1078 490 881 -11 1078 199 b 575 990 1078 781 881 990 b 72 490 269 990 72 781 b 575 -11 72 199 269 -11 z m 575 79 b 176 490 343 79 176 251 b 575 900 176 729 343 900 b 974 490 807 900 974 729 b 575 79 974 251 807 79 z m 446 1279 l 350 1279 b 575 1065 350 1156 444 1065 b 799 1279 704 1065 799 1156 l 704 1279 b 575 1147 699 1203 644 1147 b 446 1279 504 1147 450 1203 z "},"Ô":{"ha":1150,"x_min":0,"x_max":0,"o":"m 575 -11 b 1078 490 881 -11 1078 199 b 575 990 1078 781 881 990 b 72 490 269 990 72 781 b 575 -11 72 199 269 -11 z m 575 79 b 176 490 343 79 176 251 b 575 900 176 729 343 900 b 974 490 807 900 974 729 b 575 79 974 251 807 79 z m 700 1074 l 832 1074 l 608 1279 l 540 1279 l 317 1074 l 447 1074 l 574 1193 z "},"Ö":{"ha":1150,"x_min":0,"x_max":0,"o":"m 575 -11 b 1078 490 881 -11 1078 199 b 575 990 1078 781 881 990 b 72 490 269 990 72 781 b 575 -11 72 199 269 -11 z m 575 79 b 176 490 343 79 176 251 b 575 900 176 729 343 900 b 974 490 807 900 974 729 b 575 79 974 251 807 79 z m 356 1101 l 503 1101 l 503 1247 l 356 1247 z m 647 1101 l 794 1101 l 794 1247 l 647 1247 z "},"Ọ":{"ha":1150,"x_min":0,"x_max":0,"o":"m 575 -11 b 1078 490 881 -11 1078 199 b 575 990 1078 781 881 990 b 72 490 269 990 72 781 b 575 -11 72 199 269 -11 z m 575 79 b 176 490 343 79 176 251 b 575 900 176 729 343 900 b 974 490 807 900 974 729 b 575 79 974 251 807 79 z m 501 -228 l 649 -228 l 649 -81 l 501 -81 z "},"Ò":{"ha":1150,"x_min":0,"x_max":0,"o":"m 575 -11 b 1078 490 881 -11 1078 199 b 575 990 1078 781 881 990 b 72 490 269 990 72 781 b 575 -11 72 199 269 -11 z m 575 79 b 176 490 343 79 176 251 b 575 900 176 729 343 900 b 974 490 807 900 974 729 b 575 79 974 251 807 79 z m 603 1074 l 504 1279 l 335 1279 l 542 1074 z "},"Ő":{"ha":1150,"x_min":0,"x_max":0,"o":"m 575 -11 b 1078 490 881 -11 1078 199 b 575 990 1078 781 881 990 b 72 490 269 990 72 781 b 575 -11 72 199 269 -11 z m 575 79 b 176 490 343 79 176 251 b 575 900 176 729 343 900 b 974 490 807 900 974 729 b 575 79 974 251 807 79 z m 433 1074 l 492 1074 l 667 1279 l 504 1279 z m 658 1074 l 719 1074 l 926 1279 l 757 1279 z "},"Ō":{"ha":1150,"x_min":0,"x_max":0,"o":"m 575 -11 b 1078 490 881 -11 1078 199 b 575 990 1078 781 881 990 b 72 490 269 990 72 781 b 575 -11 72 199 269 -11 z m 575 79 b 176 490 343 79 176 251 b 575 900 176 729 343 900 b 974 490 807 900 974 729 b 575 79 974 251 807 79 z m 329 1211 l 329 1129 l 819 1129 l 819 1211 z "},"Ø":{"ha":1150,"x_min":0,"x_max":0,"o":"m 575 -11 b 1078 490 881 -11 1078 199 b 926 863 1078 643 1024 774 l 1031 986 l 958 986 l 885 897 b 575 990 803 957 697 990 b 72 490 269 990 72 781 b 226 114 72 335 128 203 l 119 -14 l 192 -14 l 269 79 b 575 -11 351 21 454 -11 z m 575 79 b 333 156 482 79 400 107 l 861 785 b 974 490 932 713 974 610 b 575 79 974 251 807 79 z m 176 490 b 575 900 176 729 343 900 b 819 821 669 900 754 871 l 292 192 b 176 490 219 265 176 369 z "},"Ǿ":{"ha":1150,"x_min":0,"x_max":0,"o":"m 575 -11 b 1078 490 881 -11 1078 199 b 926 863 1078 643 1024 774 l 1031 986 l 958 986 l 885 897 b 575 990 803 957 697 990 b 72 490 269 990 72 781 b 226 114 72 335 128 203 l 119 -14 l 192 -14 l 269 79 b 575 -11 351 21 454 -11 z m 575 79 b 333 156 482 79 400 107 l 861 785 b 974 490 932 713 974 610 b 575 79 974 251 807 79 z m 547 1074 l 608 1074 l 815 1279 l 646 1279 z m 176 490 b 575 900 176 729 343 900 b 819 821 669 900 754 871 l 292 192 b 176 490 219 265 176 369 z "},"Õ":{"ha":1150,"x_min":0,"x_max":0,"o":"m 575 -11 b 1078 490 881 -11 1078 199 b 575 990 1078 781 881 990 b 72 490 269 990 72 781 b 575 -11 72 199 269 -11 z m 575 79 b 176 490 343 79 176 251 b 575 900 176 729 343 900 b 974 490 807 900 974 729 b 575 79 974 251 807 79 z m 460 1172 b 689 1068 532 1172 564 1068 b 831 1253 786 1068 846 1132 l 743 1253 b 689 1149 757 1182 731 1149 b 460 1253 617 1149 585 1253 b 318 1068 363 1253 303 1189 l 406 1068 b 460 1172 392 1139 418 1172 z "},"Œ":{"ha":1714,"x_min":0,"x_max":0,"o":"m 575 -11 b 974 167 749 -11 886 56 l 974 0 l 1644 0 l 1644 90 l 1078 90 l 1078 478 l 1631 478 l 1631 568 l 1078 568 l 1078 882 l 1644 882 l 1644 972 l 974 972 l 974 813 b 575 990 886 924 749 990 b 72 490 269 990 72 781 b 575 -11 72 199 269 -11 z m 575 79 b 176 490 343 79 176 251 b 575 900 176 729 343 900 b 974 490 807 900 974 729 b 575 79 974 251 807 79 z "},"P":{"ha":922,"x_min":0,"x_max":0,"o":"m 544 972 l 118 972 l 118 0 l 222 0 l 222 431 l 544 431 b 867 703 744 431 867 533 b 544 972 867 869 744 972 z m 222 521 l 222 882 l 544 882 b 763 703 679 882 763 814 b 544 521 763 590 679 521 z "},"Þ":{"ha":908,"x_min":0,"x_max":0,"o":"m 517 778 l 222 778 l 222 972 l 118 972 l 118 0 l 222 0 l 222 236 l 517 236 b 853 510 725 236 853 339 b 517 778 853 676 725 778 z m 222 326 l 222 688 l 517 688 b 749 510 661 688 749 621 b 517 326 749 396 661 326 z "},"Q":{"ha":1150,"x_min":0,"x_max":0,"o":"m 575 -11 b 694 0 617 -11 657 -7 b 917 -182 724 -96 775 -182 b 1014 -158 963 -182 992 -174 l 1064 -32 b 913 -85 1025 -62 990 -85 b 763 19 829 -85 789 -40 b 1078 490 958 86 1078 264 b 575 990 1078 781 881 990 b 72 490 269 990 72 781 b 575 -11 72 199 269 -11 z m 575 79 b 454 181 492 79 454 132 b 533 264 454 229 483 264 b 669 89 622 264 647 182 b 575 79 640 83 608 79 z m 176 490 b 575 900 176 729 343 900 b 974 490 807 900 974 729 b 733 110 974 310 879 168 b 532 331 704 217 676 331 b 385 186 450 331 385 274 b 404 114 385 158 392 133 b 176 490 265 176 176 315 z "},"R":{"ha":1019,"x_min":0,"x_max":0,"o":"m 118 0 l 222 0 l 222 486 l 511 486 b 728 276 635 486 735 453 l 726 242 b 794 0 722 146 735 51 l 928 0 b 833 242 850 51 833 144 l 833 276 b 707 511 833 411 797 481 b 885 739 825 542 885 625 b 604 972 885 883 778 972 l 118 972 z m 222 576 l 222 882 l 604 882 b 781 728 714 882 781 824 b 604 576 781 635 714 576 z "},"Ŕ":{"ha":1019,"x_min":0,"x_max":0,"o":"m 118 0 l 222 0 l 222 486 l 511 486 b 728 276 635 486 735 453 l 726 242 b 794 0 722 146 735 51 l 928 0 b 833 242 850 51 833 144 l 833 276 b 707 511 833 411 797 481 b 885 739 825 542 885 625 b 604 972 885 883 778 972 l 118 972 z m 475 1074 l 536 1074 l 743 1279 l 574 1279 z m 222 576 l 222 882 l 604 882 b 781 728 714 882 781 824 b 604 576 781 635 714 576 z "},"Ř":{"ha":1019,"x_min":0,"x_max":0,"o":"m 118 0 l 222 0 l 222 486 l 511 486 b 728 276 635 486 735 453 l 726 242 b 794 0 722 146 735 51 l 928 0 b 833 242 850 51 833 144 l 833 276 b 707 511 833 411 797 481 b 885 739 825 542 885 625 b 604 972 885 883 778 972 l 118 972 z m 376 1279 l 244 1279 l 468 1074 l 536 1074 l 760 1279 l 629 1279 l 503 1160 z m 222 576 l 222 882 l 604 882 b 781 728 714 882 781 824 b 604 576 781 635 714 576 z "},"Ŗ":{"ha":1019,"x_min":0,"x_max":0,"o":"m 118 0 l 222 0 l 222 486 l 511 486 b 728 276 635 486 735 453 l 726 242 b 794 0 722 146 735 51 l 928 0 b 833 242 850 51 833 144 l 833 276 b 707 511 833 411 797 481 b 885 739 825 542 885 625 b 604 972 885 883 778 972 l 118 972 z m 431 -226 l 490 -226 b 406 -353 482 -271 460 -308 l 515 -353 b 578 -131 571 -283 578 -235 l 578 -81 l 431 -81 z m 222 576 l 222 882 l 604 882 b 781 728 714 882 781 824 b 604 576 781 635 714 576 z "},"S":{"ha":931,"x_min":0,"x_max":0,"o":"m 454 904 b 719 625 586 904 729 825 l 817 740 b 460 989 781 900 650 989 b 124 724 272 989 124 908 b 749 264 124 335 749 575 b 481 76 749 138 619 76 b 168 369 317 76 161 160 l 71 254 b 471 -14 107 93 243 -14 b 856 269 674 -14 856 71 b 231 733 856 682 231 453 b 454 904 231 847 336 904 z "},"Ś":{"ha":931,"x_min":0,"x_max":0,"o":"m 454 904 b 719 625 586 904 729 825 l 817 740 b 460 989 781 900 650 989 b 124 724 272 989 124 908 b 749 264 124 335 749 575 b 481 76 749 138 619 76 b 168 369 317 76 161 160 l 71 254 b 471 -14 107 93 243 -14 b 856 269 674 -14 856 71 b 231 733 856 682 231 453 b 454 904 231 847 336 904 z m 438 1074 l 499 1074 l 706 1279 l 536 1279 z "},"Ꞌ":{"ha":368,"x_min":0,"x_max":0,"o":"m 157 460 l 213 460 l 250 972 l 118 972 z "},"Š":{"ha":931,"x_min":0,"x_max":0,"o":"m 454 904 b 719 625 586 904 729 825 l 817 740 b 460 989 781 900 650 989 b 124 724 272 989 124 908 b 749 264 124 335 749 575 b 481 76 749 138 619 76 b 168 369 317 76 161 160 l 71 254 b 471 -14 107 93 243 -14 b 856 269 674 -14 856 71 b 231 733 856 682 231 453 b 454 904 231 847 336 904 z m 339 1279 l 207 1279 l 431 1074 l 499 1074 l 722 1279 l 592 1279 l 465 1160 z "},"Ş":{"ha":931,"x_min":0,"x_max":0,"o":"m 454 904 b 719 625 586 904 729 825 l 817 740 b 460 989 781 900 650 989 b 124 724 272 989 124 908 b 749 264 124 335 749 575 b 481 76 749 138 619 76 b 168 369 317 76 161 160 l 71 254 b 429 -12 104 103 226 0 l 414 -104 l 442 -104 b 515 -167 489 -104 515 -131 b 456 -231 515 -204 490 -231 b 396 -128 421 -231 382 -207 l 318 -185 b 456 -297 325 -247 375 -297 b 593 -167 535 -297 593 -243 b 486 -42 593 -101 549 -53 l 490 -14 b 856 269 685 -8 856 78 b 231 733 856 682 231 453 b 454 904 231 847 336 904 z "},"Ŝ":{"ha":931,"x_min":0,"x_max":0,"o":"m 454 904 b 719 625 586 904 729 825 l 817 740 b 460 989 781 900 650 989 b 124 724 272 989 124 908 b 749 264 124 335 749 575 b 481 76 749 138 619 76 b 168 369 317 76 161 160 l 71 254 b 471 -14 107 93 243 -14 b 856 269 674 -14 856 71 b 231 733 856 682 231 453 b 454 904 231 847 336 904 z m 590 1074 l 722 1074 l 499 1279 l 431 1279 l 207 1074 l 338 1074 l 464 1193 z "},"Ș":{"ha":931,"x_min":0,"x_max":0,"o":"m 454 904 b 719 625 586 904 729 825 l 817 740 b 460 989 781 900 650 989 b 124 724 272 989 124 908 b 749 264 124 335 749 575 b 481 76 749 138 619 76 b 168 369 317 76 161 160 l 71 254 b 471 -14 107 93 243 -14 b 856 269 674 -14 856 71 b 231 733 856 682 231 453 b 454 904 231 847 336 904 z m 393 -226 l 453 -226 b 368 -353 444 -271 422 -308 l 478 -353 b 540 -131 533 -283 540 -235 l 540 -81 l 393 -81 z "},"Ṣ":{"ha":931,"x_min":0,"x_max":0,"o":"m 454 904 b 719 625 586 904 729 825 l 817 740 b 460 989 781 900 650 989 b 124 724 272 989 124 908 b 749 264 124 335 749 575 b 481 76 749 138 619 76 b 168 369 317 76 161 160 l 71 254 b 471 -14 107 93 243 -14 b 856 269 674 -14 856 71 b 231 733 856 682 231 453 b 454 904 231 847 336 904 z m 392 -228 l 539 -228 l 539 -81 l 392 -81 z "},"ẞ":{"ha":1092,"x_min":0,"x_max":0,"o":"m 989 888 l 989 972 l 482 972 b 111 603 251 972 111 833 l 111 0 l 215 0 l 215 603 b 482 882 215 776 317 882 l 811 882 b 656 688 711 856 656 779 b 918 264 656 488 918 468 b 700 69 918 150 831 69 b 454 363 546 69 447 186 l 357 247 b 696 -15 388 90 524 -15 b 1022 269 892 -15 1022 101 b 753 713 1022 533 753 539 b 989 888 753 828 874 871 z "},"T":{"ha":924,"x_min":0,"x_max":0,"o":"m 896 972 l 28 972 l 28 882 l 400 882 l 400 0 l 504 0 l 504 882 l 896 882 z "},"Ŧ":{"ha":924,"x_min":0,"x_max":0,"o":"m 896 972 l 28 972 l 28 882 l 400 882 l 400 521 l 210 521 l 210 472 l 400 472 l 400 0 l 504 0 l 504 472 l 700 472 l 700 521 l 504 521 l 504 882 l 896 882 z "},"Ť":{"ha":924,"x_min":0,"x_max":0,"o":"m 896 972 l 28 972 l 28 882 l 400 882 l 400 0 l 504 0 l 504 882 l 896 882 z m 329 1279 l 197 1279 l 421 1074 l 489 1074 l 713 1279 l 582 1279 l 456 1160 z "},"Ţ":{"ha":924,"x_min":0,"x_max":0,"o":"m 896 972 l 28 972 l 28 882 l 400 882 l 400 0 l 421 0 l 404 -104 l 432 -104 b 506 -167 479 -104 506 -131 b 446 -231 506 -204 481 -231 b 386 -128 411 -231 372 -207 l 308 -185 b 446 -297 315 -247 365 -297 b 583 -167 525 -297 583 -243 b 476 -42 583 -101 539 -53 l 482 0 l 504 0 l 504 882 l 896 882 z "},"Ț":{"ha":924,"x_min":0,"x_max":0,"o":"m 896 972 l 28 972 l 28 882 l 400 882 l 400 0 l 504 0 l 504 882 l 896 882 z m 383 -226 l 443 -226 b 358 -353 435 -271 413 -308 l 468 -353 b 531 -131 524 -283 531 -235 l 531 -81 l 383 -81 z "},"U":{"ha":965,"x_min":0,"x_max":0,"o":"m 483 -14 b 854 357 714 -14 854 126 l 854 972 l 750 972 l 750 357 b 483 78 750 183 649 78 b 215 357 317 78 215 183 l 215 972 l 111 972 l 111 357 b 483 -14 111 126 253 -14 z "},"Ú":{"ha":965,"x_min":0,"x_max":0,"o":"m 483 -14 b 854 357 714 -14 854 126 l 854 972 l 750 972 l 750 357 b 483 78 750 183 649 78 b 215 357 317 78 215 183 l 215 972 l 111 972 l 111 357 b 483 -14 111 126 253 -14 z m 456 1074 l 517 1074 l 724 1279 l 554 1279 z "},"Ʉ":{"ha":1074,"x_min":0,"x_max":0,"o":"m 539 -14 b 910 357 769 -14 910 126 l 910 496 l 1074 496 l 1074 544 l 910 544 l 910 972 l 806 972 l 806 544 l 271 544 l 271 972 l 167 972 l 167 544 l 0 544 l 0 496 l 167 496 l 167 357 b 539 -14 167 126 308 -14 z m 271 357 l 271 496 l 806 496 l 806 357 b 539 78 806 183 704 78 b 271 357 372 78 271 183 z "},"Ŭ":{"ha":965,"x_min":0,"x_max":0,"o":"m 483 -14 b 854 357 714 -14 854 126 l 854 972 l 750 972 l 750 357 b 483 78 750 183 649 78 b 215 357 317 78 215 183 l 215 972 l 111 972 l 111 357 b 483 -14 111 126 253 -14 z m 354 1279 l 258 1279 b 483 1065 258 1156 353 1065 b 707 1279 613 1065 707 1156 l 613 1279 b 483 1147 607 1203 553 1147 b 354 1279 413 1147 358 1203 z "},"Û":{"ha":965,"x_min":0,"x_max":0,"o":"m 483 -14 b 854 357 714 -14 854 126 l 854 972 l 750 972 l 750 357 b 483 78 750 183 649 78 b 215 357 317 78 215 183 l 215 972 l 111 972 l 111 357 b 483 -14 111 126 253 -14 z m 608 1074 l 740 1074 l 517 1279 l 449 1279 l 225 1074 l 356 1074 l 482 1193 z "},"Ü":{"ha":965,"x_min":0,"x_max":0,"o":"m 483 -14 b 854 357 714 -14 854 126 l 854 972 l 750 972 l 750 357 b 483 78 750 183 649 78 b 215 357 317 78 215 183 l 215 972 l 111 972 l 111 357 b 483 -14 111 126 253 -14 z m 264 1101 l 411 1101 l 411 1247 l 264 1247 z m 556 1101 l 703 1101 l 703 1247 l 556 1247 z "},"Ù":{"ha":965,"x_min":0,"x_max":0,"o":"m 483 -14 b 854 357 714 -14 854 126 l 854 972 l 750 972 l 750 357 b 483 78 750 183 649 78 b 215 357 317 78 215 183 l 215 972 l 111 972 l 111 357 b 483 -14 111 126 253 -14 z m 511 1074 l 413 1279 l 243 1279 l 450 1074 z "},"Ű":{"ha":965,"x_min":0,"x_max":0,"o":"m 483 -14 b 854 357 714 -14 854 126 l 854 972 l 750 972 l 750 357 b 483 78 750 183 649 78 b 215 357 317 78 215 183 l 215 972 l 111 972 l 111 357 b 483 -14 111 126 253 -14 z m 342 1074 l 400 1074 l 575 1279 l 413 1279 z m 567 1074 l 628 1074 l 835 1279 l 665 1279 z "},"Ū":{"ha":965,"x_min":0,"x_max":0,"o":"m 483 -14 b 854 357 714 -14 854 126 l 854 972 l 750 972 l 750 357 b 483 78 750 183 649 78 b 215 357 317 78 215 183 l 215 972 l 111 972 l 111 357 b 483 -14 111 126 253 -14 z m 238 1211 l 238 1129 l 728 1129 l 728 1211 z "},"Ų":{"ha":965,"x_min":0,"x_max":0,"o":"m 592 -4 l 590 -3 b 854 357 757 36 854 165 l 854 972 l 750 972 l 750 357 b 483 78 750 183 649 78 b 215 357 317 78 215 183 l 215 972 l 111 972 l 111 357 b 436 -11 111 143 233 7 b 514 -290 321 -99 356 -290 b 631 -247 547 -290 596 -278 l 631 -131 b 525 -208 596 -196 558 -208 b 542 -11 428 -208 419 -46 b 582 -4 556 -10 569 -7 z "},"Ů":{"ha":965,"x_min":0,"x_max":0,"o":"m 483 -14 b 854 357 714 -14 854 126 l 854 972 l 750 972 l 750 357 b 483 78 750 183 649 78 b 215 357 317 78 215 183 l 215 972 l 111 972 l 111 357 b 483 -14 111 126 253 -14 z m 483 1067 b 635 1211 572 1067 635 1126 b 483 1354 635 1294 572 1354 b 332 1211 394 1354 332 1294 b 483 1067 332 1126 394 1067 z m 483 1139 b 415 1211 444 1139 415 1169 b 483 1282 415 1251 444 1282 b 551 1211 522 1282 551 1251 b 483 1139 551 1169 522 1139 z "},"Ũ":{"ha":965,"x_min":0,"x_max":0,"o":"m 483 -14 b 854 357 714 -14 854 126 l 854 972 l 750 972 l 750 357 b 483 78 750 183 649 78 b 215 357 317 78 215 183 l 215 972 l 111 972 l 111 357 b 483 -14 111 126 253 -14 z m 368 1172 b 597 1068 440 1172 472 1068 b 739 1253 694 1068 754 1132 l 651 1253 b 597 1149 665 1182 639 1149 b 368 1253 525 1149 493 1253 b 226 1068 271 1253 211 1189 l 314 1068 b 368 1172 300 1139 326 1172 z "},"V":{"ha":997,"x_min":0,"x_max":0,"o":"m 138 972 l 24 972 l 426 0 l 571 0 l 974 972 l 863 972 l 500 92 z "},"W":{"ha":1317,"x_min":0,"x_max":0,"o":"m 139 972 l 31 972 l 392 0 l 521 0 l 658 371 l 796 0 l 925 0 l 1286 972 l 1181 972 l 857 94 l 717 474 l 903 972 l 807 972 l 671 601 l 533 972 l 435 972 l 611 497 l 463 94 z "},"Ẃ":{"ha":1317,"x_min":0,"x_max":0,"o":"m 139 972 l 31 972 l 392 0 l 521 0 l 658 371 l 796 0 l 925 0 l 1286 972 l 1181 972 l 857 94 l 717 474 l 903 972 l 807 972 l 671 601 l 533 972 l 435 972 l 611 497 l 463 94 z m 631 1074 l 692 1074 l 899 1279 l 729 1279 z "},"Ŵ":{"ha":1317,"x_min":0,"x_max":0,"o":"m 139 972 l 31 972 l 392 0 l 521 0 l 658 371 l 796 0 l 925 0 l 1286 972 l 1181 972 l 857 94 l 717 474 l 903 972 l 807 972 l 671 601 l 533 972 l 435 972 l 611 497 l 463 94 z m 783 1074 l 915 1074 l 692 1279 l 624 1279 l 400 1074 l 531 1074 l 657 1193 z "},"Ẅ":{"ha":1317,"x_min":0,"x_max":0,"o":"m 139 972 l 31 972 l 392 0 l 521 0 l 658 371 l 796 0 l 925 0 l 1286 972 l 1181 972 l 857 94 l 717 474 l 903 972 l 807 972 l 671 601 l 533 972 l 435 972 l 611 497 l 463 94 z m 439 1101 l 586 1101 l 586 1247 l 439 1247 z m 731 1101 l 878 1101 l 878 1247 l 731 1247 z "},"Ẁ":{"ha":1317,"x_min":0,"x_max":0,"o":"m 139 972 l 31 972 l 392 0 l 521 0 l 658 371 l 796 0 l 925 0 l 1286 972 l 1181 972 l 857 94 l 717 474 l 903 972 l 807 972 l 671 601 l 533 972 l 435 972 l 611 497 l 463 94 z m 686 1074 l 588 1279 l 418 1279 l 625 1074 z "},"X":{"ha":1061,"x_min":0,"x_max":0,"o":"m 178 972 l 47 972 l 460 494 l 28 0 l 158 0 l 531 424 l 903 0 l 1033 0 l 600 494 l 1014 972 l 883 972 l 531 565 z "},"Y":{"ha":956,"x_min":0,"x_max":0,"o":"m 131 972 l 3 972 l 426 464 l 426 0 l 531 0 l 531 465 l 953 972 l 826 972 l 479 558 z "},"Ý":{"ha":956,"x_min":0,"x_max":0,"o":"m 131 972 l 3 972 l 426 464 l 426 0 l 531 0 l 531 465 l 953 972 l 826 972 l 479 558 z m 450 1074 l 511 1074 l 718 1279 l 549 1279 z "},"Ŷ":{"ha":956,"x_min":0,"x_max":0,"o":"m 131 972 l 3 972 l 426 464 l 426 0 l 531 0 l 531 465 l 953 972 l 826 972 l 479 558 z m 603 1074 l 735 1074 l 511 1279 l 443 1279 l 219 1074 l 350 1074 l 476 1193 z "},"Ÿ":{"ha":956,"x_min":0,"x_max":0,"o":"m 131 972 l 3 972 l 426 464 l 426 0 l 531 0 l 531 465 l 953 972 l 826 972 l 479 558 z m 258 1101 l 406 1101 l 406 1247 l 258 1247 z m 550 1101 l 697 1101 l 697 1247 l 550 1247 z "},"Ỳ":{"ha":956,"x_min":0,"x_max":0,"o":"m 131 972 l 3 972 l 426 464 l 426 0 l 531 0 l 531 465 l 953 972 l 826 972 l 479 558 z m 506 1074 l 407 1279 l 238 1279 l 444 1074 z "},"Ỹ":{"ha":956,"x_min":0,"x_max":0,"o":"m 131 972 l 3 972 l 426 464 l 426 0 l 531 0 l 531 465 l 953 972 l 826 972 l 479 558 z m 363 1172 b 592 1068 435 1172 467 1068 b 733 1253 689 1068 749 1132 l 646 1253 b 592 1149 660 1182 633 1149 b 363 1253 519 1149 488 1253 b 221 1068 265 1253 206 1189 l 308 1068 b 363 1172 294 1139 321 1172 z "},"Z":{"ha":856,"x_min":0,"x_max":0,"o":"m 800 896 l 800 972 l 56 972 l 56 882 l 672 882 l 56 76 l 56 0 l 800 0 l 800 90 l 183 90 z "},"Ź":{"ha":856,"x_min":0,"x_max":0,"o":"m 800 896 l 800 972 l 56 972 l 56 882 l 672 882 l 56 76 l 56 0 l 800 0 l 800 90 l 183 90 z m 400 1074 l 461 1074 l 668 1279 l 499 1279 z "},"Ž":{"ha":856,"x_min":0,"x_max":0,"o":"m 800 896 l 800 972 l 56 972 l 56 882 l 672 882 l 56 76 l 56 0 l 800 0 l 800 90 l 183 90 z m 301 1279 l 169 1279 l 393 1074 l 461 1074 l 685 1279 l 554 1279 l 428 1160 z "},"Ż":{"ha":856,"x_min":0,"x_max":0,"o":"m 800 896 l 800 972 l 56 972 l 56 882 l 672 882 l 56 76 l 56 0 l 800 0 l 800 90 l 183 90 z m 350 1093 l 506 1093 l 506 1249 l 350 1249 z "},"a":{"ha":778,"x_min":0,"x_max":0,"o":"m 353 629 b 556 415 476 629 556 561 l 351 414 b 71 182 194 413 71 331 b 299 -14 71 74 150 -14 b 551 168 431 -14 514 47 b 618 0 557 100 574 39 l 747 0 b 657 424 622 83 657 285 b 354 711 657 618 536 711 b 68 506 203 711 89 624 l 168 414 b 353 629 142 560 253 629 z m 171 192 b 351 329 171 288 243 328 l 553 332 l 551 303 b 313 68 551 236 492 68 b 171 192 226 68 171 121 z "},"á":{"ha":778,"x_min":0,"x_max":0,"o":"m 353 629 b 556 415 476 629 556 561 l 351 414 b 71 182 194 413 71 331 b 299 -14 71 74 150 -14 b 551 168 431 -14 514 47 b 618 0 557 100 574 39 l 747 0 b 657 424 622 83 657 285 b 354 711 657 618 536 711 b 68 506 203 711 89 624 l 168 414 b 353 629 142 560 253 629 z m 356 796 l 411 796 l 642 1029 l 486 1029 z m 171 192 b 351 329 171 288 243 328 l 553 332 l 551 303 b 313 68 551 236 492 68 b 171 192 226 68 171 121 z "},"ă":{"ha":778,"x_min":0,"x_max":0,"o":"m 353 629 b 556 415 476 629 556 561 l 351 414 b 71 182 194 413 71 331 b 299 -14 71 74 150 -14 b 551 168 431 -14 514 47 b 618 0 557 100 574 39 l 747 0 b 657 424 622 83 657 285 b 354 711 657 618 536 711 b 68 506 203 711 89 624 l 168 414 b 353 629 142 560 253 629 z m 254 1024 l 164 1024 b 389 789 164 889 254 789 b 613 1024 524 789 613 889 l 524 1024 b 389 867 518 933 469 867 b 254 1024 308 867 258 933 z m 171 192 b 351 329 171 288 243 328 l 553 332 l 551 303 b 313 68 551 236 492 68 b 171 192 226 68 171 121 z "},"â":{"ha":778,"x_min":0,"x_max":0,"o":"m 353 629 b 556 415 476 629 556 561 l 351 414 b 71 182 194 413 71 331 b 299 -14 71 74 150 -14 b 551 168 431 -14 514 47 b 618 0 557 100 574 39 l 747 0 b 657 424 622 83 657 285 b 354 711 657 618 536 711 b 68 506 203 711 89 624 l 168 414 b 353 629 142 560 253 629 z m 528 792 l 640 792 l 422 1029 l 354 1029 l 136 792 l 247 792 l 388 943 z m 171 192 b 351 329 171 288 243 328 l 553 332 l 551 303 b 313 68 551 236 492 68 b 171 192 226 68 171 121 z "},"ä":{"ha":778,"x_min":0,"x_max":0,"o":"m 353 629 b 556 415 476 629 556 561 l 351 414 b 71 182 194 413 71 331 b 299 -14 71 74 150 -14 b 551 168 431 -14 514 47 b 618 0 557 100 574 39 l 747 0 b 657 424 622 83 657 285 b 354 711 657 618 536 711 b 68 506 203 711 89 624 l 168 414 b 353 629 142 560 253 629 z m 186 840 l 326 840 l 326 979 l 186 979 z m 451 840 l 592 840 l 592 979 l 451 979 z m 171 192 b 351 329 171 288 243 328 l 553 332 l 551 303 b 313 68 551 236 492 68 b 171 192 226 68 171 121 z "},"à":{"ha":778,"x_min":0,"x_max":0,"o":"m 353 629 b 556 415 476 629 556 561 l 351 414 b 71 182 194 413 71 331 b 299 -14 71 74 150 -14 b 551 168 431 -14 514 47 b 618 0 557 100 574 39 l 747 0 b 657 424 622 83 657 285 b 354 711 657 618 536 711 b 68 506 203 711 89 624 l 168 414 b 353 629 142 560 253 629 z m 422 796 l 292 1029 l 136 1029 l 367 796 z m 171 192 b 351 329 171 288 243 328 l 553 332 l 551 303 b 313 68 551 236 492 68 b 171 192 226 68 171 121 z "},"ā":{"ha":778,"x_min":0,"x_max":0,"o":"m 353 629 b 556 415 476 629 556 561 l 351 414 b 71 182 194 413 71 331 b 299 -14 71 74 150 -14 b 551 168 431 -14 514 47 b 618 0 557 100 574 39 l 747 0 b 657 424 622 83 657 285 b 354 711 657 618 536 711 b 68 506 203 711 89 624 l 168 414 b 353 629 142 560 253 629 z m 143 960 l 143 878 l 633 878 l 633 960 z m 171 192 b 351 329 171 288 243 328 l 553 332 l 551 303 b 313 68 551 236 492 68 b 171 192 226 68 171 121 z "},"ą":{"ha":778,"x_min":0,"x_max":0,"o":"m 353 629 b 556 415 476 629 556 561 l 351 414 b 71 182 194 413 71 331 b 299 -14 71 74 150 -14 b 551 168 431 -14 514 47 b 597 21 556 111 568 60 b 621 -286 419 -39 442 -286 b 738 -243 654 -286 703 -274 l 738 -126 b 632 -204 703 -192 665 -204 b 699 0 524 -204 525 0 l 747 0 b 657 424 622 83 657 285 b 354 711 657 618 536 711 b 68 506 203 711 89 624 l 168 414 b 353 629 142 560 253 629 z m 171 192 b 351 329 171 288 243 328 l 553 332 l 551 303 b 313 68 551 236 492 68 b 171 192 226 68 171 121 z "},"å":{"ha":778,"x_min":0,"x_max":0,"o":"m 353 629 b 556 415 476 629 556 561 l 351 414 b 71 182 194 413 71 331 b 299 -14 71 74 150 -14 b 551 168 431 -14 514 47 b 618 0 557 100 574 39 l 747 0 b 657 424 622 83 657 285 b 354 711 657 618 536 711 b 68 506 203 711 89 624 l 168 414 b 353 629 142 560 253 629 z m 389 785 b 533 922 474 785 533 842 b 389 1058 533 1001 474 1058 b 244 922 304 1058 244 1001 b 389 785 244 842 304 785 z m 389 853 b 324 922 351 853 324 882 b 389 990 324 961 351 990 b 454 922 426 990 454 961 b 389 853 454 882 426 853 z m 171 192 b 351 329 171 288 243 328 l 553 332 l 551 303 b 313 68 551 236 492 68 b 171 192 226 68 171 121 z "},"ã":{"ha":778,"x_min":0,"x_max":0,"o":"m 353 629 b 556 415 476 629 556 561 l 351 414 b 71 182 194 413 71 331 b 299 -14 71 74 150 -14 b 551 168 431 -14 514 47 b 618 0 557 100 574 39 l 747 0 b 657 424 622 83 657 285 b 354 711 657 618 536 711 b 68 506 203 711 89 624 l 168 414 b 353 629 142 560 253 629 z m 274 925 b 503 821 347 925 379 821 b 642 1000 597 821 656 882 l 560 1000 b 503 896 574 931 544 896 b 274 1000 429 896 397 1000 b 135 821 179 1000 121 939 l 217 821 b 274 925 203 890 232 925 z m 171 192 b 351 329 171 288 243 328 l 553 332 l 551 303 b 313 68 551 236 492 68 b 171 192 226 68 171 121 z "},"æ":{"ha":1322,"x_min":0,"x_max":0,"o":"m 551 303 l 551 303 b 313 68 551 236 492 68 b 171 192 226 68 171 121 b 351 329 171 288 243 328 l 553 332 z m 556 415 l 351 414 b 71 182 194 413 71 331 b 313 -14 71 74 154 -14 b 594 183 460 -14 556 65 b 917 -11 649 65 764 -11 b 1232 131 1060 -11 1171 42 l 1176 254 b 917 76 1132 135 1050 76 b 661 333 768 76 661 190 l 661 335 l 1263 335 l 1263 389 b 915 704 1263 551 1126 704 b 624 560 786 704 685 649 b 354 711 578 660 482 711 b 68 506 203 711 89 624 l 168 414 b 353 629 142 560 253 629 b 556 415 476 629 556 561 z m 664 417 b 915 617 682 536 772 617 b 1156 417 1035 617 1142 549 z "},"b":{"ha":881,"x_min":0,"x_max":0,"o":"m 204 347 b 461 621 204 507 313 621 b 717 347 610 621 717 507 b 461 72 717 188 610 72 b 204 347 313 72 204 188 z m 104 0 l 204 0 l 204 140 b 485 -11 264 47 364 -11 b 821 347 679 -11 821 139 b 485 704 821 554 679 704 b 204 553 364 704 264 646 l 204 1111 l 104 1111 z "},"c":{"ha":790,"x_min":0,"x_max":0,"o":"m 164 347 b 424 618 164 496 260 618 b 669 440 539 618 628 560 l 725 564 b 419 706 668 650 556 706 b 60 347 196 706 60 556 b 419 -11 60 139 196 -11 b 725 131 556 -11 668 44 l 669 254 b 424 76 628 135 539 76 b 164 347 260 76 164 199 z "},"ć":{"ha":790,"x_min":0,"x_max":0,"o":"m 164 347 b 424 618 164 496 260 618 b 669 440 539 618 628 560 l 725 564 b 419 706 668 650 556 706 b 60 347 196 706 60 556 b 419 -11 60 139 196 -11 b 725 131 556 -11 668 44 l 669 254 b 424 76 628 135 539 76 b 164 347 260 76 164 199 z m 356 796 l 411 796 l 642 1029 l 486 1029 z "},"č":{"ha":790,"x_min":0,"x_max":0,"o":"m 164 347 b 424 618 164 496 260 618 b 669 440 539 618 628 560 l 725 564 b 419 706 668 650 556 706 b 60 347 196 706 60 556 b 419 -11 60 139 196 -11 b 725 131 556 -11 668 44 l 669 254 b 424 76 628 135 539 76 b 164 347 260 76 164 199 z m 247 1029 l 135 1029 l 353 792 l 421 792 l 639 1029 l 528 1029 l 388 878 z "},"ç":{"ha":790,"x_min":0,"x_max":0,"o":"m 164 347 b 424 618 164 496 260 618 b 669 440 539 618 628 560 l 725 564 b 419 706 668 650 556 706 b 60 347 196 706 60 556 b 353 -7 60 160 169 21 l 338 -104 l 365 -104 b 439 -167 413 -104 439 -131 b 379 -231 439 -204 414 -231 b 319 -128 344 -231 306 -207 l 242 -185 b 379 -297 249 -247 299 -297 b 517 -167 458 -297 517 -243 b 410 -42 517 -101 472 -53 l 414 -11 l 419 -11 b 725 131 556 -11 668 44 l 669 254 b 424 76 628 135 539 76 b 164 347 260 76 164 199 z "},"ĉ":{"ha":790,"x_min":0,"x_max":0,"o":"m 164 347 b 424 618 164 496 260 618 b 669 440 539 618 628 560 l 725 564 b 419 706 668 650 556 706 b 60 347 196 706 60 556 b 419 -11 60 139 196 -11 b 725 131 556 -11 668 44 l 669 254 b 424 76 628 135 539 76 b 164 347 260 76 164 199 z m 528 792 l 640 792 l 422 1029 l 354 1029 l 136 792 l 247 792 l 388 943 z "},"ċ":{"ha":790,"x_min":0,"x_max":0,"o":"m 164 347 b 424 618 164 496 260 618 b 669 440 539 618 628 560 l 725 564 b 419 706 668 650 556 706 b 60 347 196 706 60 556 b 419 -11 60 139 196 -11 b 725 131 556 -11 668 44 l 669 254 b 424 76 628 135 539 76 b 164 347 260 76 164 199 z m 315 836 l 463 836 l 463 983 l 315 983 z "},"d":{"ha":881,"x_min":0,"x_max":0,"o":"m 776 0 l 776 1111 l 676 1111 l 676 553 b 396 704 617 646 517 704 b 60 347 201 704 60 554 b 396 -11 60 139 201 -11 b 676 140 517 -11 617 47 l 676 0 z m 164 347 b 419 621 164 507 271 621 b 676 347 568 621 676 507 b 419 72 676 188 568 72 b 164 347 271 72 164 188 z "},"ð":{"ha":863,"x_min":0,"x_max":0,"o":"m 406 -14 b 790 496 653 -14 790 211 b 586 983 790 706 711 876 l 721 1068 l 689 1125 l 529 1026 b 231 1113 443 1082 342 1113 l 231 1057 b 463 983 313 1057 393 1031 l 310 889 l 342 832 l 517 940 b 686 524 618 847 686 701 l 685 483 b 392 704 644 618 542 704 b 60 354 196 704 60 563 b 406 -14 60 144 196 -14 z m 647 354 b 406 76 647 188 550 76 b 164 354 261 76 164 188 b 406 617 164 511 261 617 b 647 354 550 617 647 511 z "},"ď":{"ha":1032,"x_min":0,"x_max":0,"o":"m 776 0 l 776 1111 l 676 1111 l 676 553 b 396 704 617 646 517 704 b 60 347 201 704 60 554 b 396 -11 60 139 201 -11 b 676 140 517 -11 617 47 l 676 0 z m 885 965 l 950 965 b 860 757 950 879 943 826 l 969 757 b 1032 979 1025 826 1032 875 l 1032 1111 l 885 1111 z m 164 347 b 419 621 164 507 271 621 b 676 347 568 621 676 507 b 419 72 676 188 568 72 b 164 347 271 72 164 188 z "},"ḑ":{"ha":881,"x_min":0,"x_max":0,"o":"m 776 0 l 776 1111 l 676 1111 l 676 553 b 396 704 617 646 517 704 b 60 347 201 704 60 554 b 396 -11 60 139 201 -11 b 676 140 517 -11 617 47 l 676 0 z m 344 -226 l 404 -226 b 319 -353 396 -271 374 -308 l 429 -353 b 492 -131 485 -283 492 -235 l 492 -81 l 344 -81 z m 164 347 b 419 621 164 507 271 621 b 676 347 568 621 676 507 b 419 72 676 188 568 72 b 164 347 271 72 164 188 z "},"đ":{"ha":893,"x_min":0,"x_max":0,"o":"m 776 0 l 776 865 l 919 865 l 919 914 l 776 914 l 776 1111 l 676 1111 l 676 914 l 429 914 l 429 865 l 676 865 l 676 553 b 396 704 617 646 517 704 b 60 347 201 704 60 554 b 396 -11 60 139 201 -11 b 676 140 517 -11 617 47 l 676 0 z m 164 347 b 419 621 164 507 271 621 b 676 347 568 621 676 507 b 419 72 676 188 568 72 b 164 347 271 72 164 188 z "},"e":{"ha":825,"x_min":0,"x_max":0,"o":"m 60 347 b 419 -11 60 139 201 -11 b 735 131 563 -11 674 42 l 679 254 b 419 76 635 135 553 76 b 164 333 271 76 164 190 l 164 335 l 765 335 l 765 375 b 418 704 765 551 629 704 b 60 347 201 704 60 551 z m 167 417 b 418 619 185 536 275 619 b 658 417 538 619 644 549 z "},"é":{"ha":825,"x_min":0,"x_max":0,"o":"m 386 796 l 442 796 l 672 1029 l 517 1029 z m 60 347 b 419 -11 60 139 201 -11 b 735 131 563 -11 674 42 l 679 254 b 419 76 635 135 553 76 b 164 333 271 76 164 190 l 164 335 l 765 335 l 765 375 b 418 704 765 551 629 704 b 60 347 201 704 60 551 z m 167 417 b 418 619 185 536 275 619 b 658 417 538 619 644 549 z "},"ĕ":{"ha":825,"x_min":0,"x_max":0,"o":"m 285 1024 l 194 1024 b 419 789 194 889 285 789 b 643 1024 554 789 643 889 l 554 1024 b 419 867 549 933 500 867 b 285 1024 339 867 289 933 z m 60 347 b 419 -11 60 139 201 -11 b 735 131 563 -11 674 42 l 679 254 b 419 76 635 135 553 76 b 164 333 271 76 164 190 l 164 335 l 765 335 l 765 375 b 418 704 765 551 629 704 b 60 347 201 704 60 551 z m 167 417 b 418 619 185 536 275 619 b 658 417 538 619 644 549 z "},"ě":{"ha":825,"x_min":0,"x_max":0,"o":"m 278 1029 l 165 1029 l 383 792 l 451 792 l 669 1029 l 558 1029 l 418 878 z m 60 347 b 419 -11 60 139 201 -11 b 735 131 563 -11 674 42 l 679 254 b 419 76 635 135 553 76 b 164 333 271 76 164 190 l 164 335 l 765 335 l 765 375 b 418 704 765 551 629 704 b 60 347 201 704 60 551 z m 167 417 b 418 619 185 536 275 619 b 658 417 538 619 644 549 z "},"ê":{"ha":825,"x_min":0,"x_max":0,"o":"m 558 792 l 671 792 l 453 1029 l 385 1029 l 167 792 l 278 792 l 418 943 z m 60 347 b 419 -11 60 139 201 -11 b 735 131 563 -11 674 42 l 679 254 b 419 76 635 135 553 76 b 164 333 271 76 164 190 l 164 335 l 765 335 l 765 375 b 418 704 765 551 629 704 b 60 347 201 704 60 551 z m 167 417 b 418 619 185 536 275 619 b 658 417 538 619 644 549 z "},"ë":{"ha":825,"x_min":0,"x_max":0,"o":"m 217 840 l 357 840 l 357 979 l 217 979 z m 482 840 l 622 840 l 622 979 l 482 979 z m 60 347 b 419 -11 60 139 201 -11 b 735 131 563 -11 674 42 l 679 254 b 419 76 635 135 553 76 b 164 333 271 76 164 190 l 164 335 l 765 335 l 765 375 b 418 704 765 551 629 704 b 60 347 201 704 60 551 z m 167 417 b 418 619 185 536 275 619 b 658 417 538 619 644 549 z "},"ė":{"ha":825,"x_min":0,"x_max":0,"o":"m 346 836 l 493 836 l 493 983 l 346 983 z m 60 347 b 419 -11 60 139 201 -11 b 735 131 563 -11 674 42 l 679 254 b 419 76 635 135 553 76 b 164 333 271 76 164 190 l 164 335 l 765 335 l 765 375 b 418 704 765 551 629 704 b 60 347 201 704 60 551 z m 167 417 b 418 619 185 536 275 619 b 658 417 538 619 644 549 z "},"ẹ":{"ha":825,"x_min":0,"x_max":0,"o":"m 346 -228 l 493 -228 l 493 -81 l 346 -81 z m 60 347 b 419 -11 60 139 201 -11 b 735 131 563 -11 674 42 l 679 254 b 419 76 635 135 553 76 b 164 333 271 76 164 190 l 164 335 l 765 335 l 765 375 b 418 704 765 551 629 704 b 60 347 201 704 60 551 z m 167 417 b 418 619 185 536 275 619 b 658 417 538 619 644 549 z "},"è":{"ha":825,"x_min":0,"x_max":0,"o":"m 453 796 l 322 1029 l 167 1029 l 397 796 z m 60 347 b 419 -11 60 139 201 -11 b 735 131 563 -11 674 42 l 679 254 b 419 76 635 135 553 76 b 164 333 271 76 164 190 l 164 335 l 765 335 l 765 375 b 418 704 765 551 629 704 b 60 347 201 704 60 551 z m 167 417 b 418 619 185 536 275 619 b 658 417 538 619 644 549 z "},"ē":{"ha":825,"x_min":0,"x_max":0,"o":"m 174 960 l 174 878 l 664 878 l 664 960 z m 60 347 b 419 -11 60 139 201 -11 b 735 131 563 -11 674 42 l 679 254 b 419 76 635 135 553 76 b 164 333 271 76 164 190 l 164 335 l 765 335 l 765 375 b 418 704 765 551 629 704 b 60 347 201 704 60 551 z m 167 417 b 418 619 185 536 275 619 b 658 417 538 619 644 549 z "},"ę":{"ha":825,"x_min":0,"x_max":0,"o":"m 529 0 l 529 0 b 735 131 619 21 690 65 l 679 254 b 419 76 635 135 553 76 b 164 333 271 76 164 190 l 164 335 l 765 335 l 765 375 b 418 704 765 551 629 704 b 60 347 201 704 60 551 b 372 -8 60 154 181 11 b 451 -286 258 -96 294 -286 b 568 -243 485 -286 533 -274 l 568 -126 b 463 -204 533 -192 496 -204 b 472 -8 368 -204 357 -47 b 528 0 492 -7 510 -4 z m 167 417 b 418 619 185 536 275 619 b 658 417 538 619 644 549 z "},"ẽ":{"ha":825,"x_min":0,"x_max":0,"o":"m 304 925 b 533 821 378 925 410 821 b 672 1000 628 821 686 882 l 590 1000 b 533 896 604 931 575 896 b 304 1000 460 896 428 1000 b 165 821 210 1000 151 939 l 247 821 b 304 925 233 890 263 925 z m 60 347 b 419 -11 60 139 201 -11 b 735 131 563 -11 674 42 l 679 254 b 419 76 635 135 553 76 b 164 333 271 76 164 190 l 164 335 l 765 335 l 765 375 b 418 704 765 551 629 704 b 60 347 201 704 60 551 z m 167 417 b 418 619 185 536 275 619 b 658 417 538 619 644 549 z "},"ə":{"ha":825,"x_min":0,"x_max":0,"o":"m 60 319 b 407 -10 60 143 196 -10 b 765 347 624 -10 765 143 b 406 706 765 556 624 706 b 90 564 263 706 151 653 l 146 440 b 406 618 190 560 272 618 b 661 361 554 618 661 504 l 661 360 l 60 360 z m 167 278 l 658 278 b 407 75 640 158 550 75 b 167 278 288 75 181 146 z "},"f":{"ha":629,"x_min":0,"x_max":0,"o":"m 188 863 l 188 694 l 42 694 l 42 613 l 188 613 l 188 0 l 288 0 l 288 613 l 601 613 l 601 694 l 288 694 l 288 849 b 442 1039 288 978 347 1039 b 578 847 513 1039 592 976 l 671 939 b 440 1121 654 1043 563 1121 b 188 863 289 1121 188 1032 z "},"g":{"ha":854,"x_min":0,"x_max":0,"o":"m 247 467 b 433 624 247 557 325 624 b 619 467 547 624 619 557 b 433 307 619 375 547 307 b 247 467 319 307 247 375 z m 44 -56 b 431 -290 56 -190 201 -290 b 819 -46 629 -290 819 -212 b 508 118 819 121 647 139 l 326 92 b 169 157 272 83 169 75 b 286 239 169 211 219 239 b 432 228 340 239 372 228 b 715 467 610 228 715 328 b 624 650 715 543 683 607 l 626 650 b 789 815 626 742 679 815 b 818 814 799 815 808 815 l 726 907 b 568 681 629 892 556 811 b 433 704 529 696 485 704 b 151 467 263 704 151 604 b 238 285 151 392 183 328 b 72 142 156 286 72 239 b 133 29 72 86 97 51 z m 140 25 b 336 0 199 -7 281 -8 l 504 25 b 724 -54 607 40 724 44 b 431 -207 724 -157 578 -207 b 140 25 261 -207 115 -135 z "},"ğ":{"ha":854,"x_min":0,"x_max":0,"o":"m 247 467 b 433 624 247 557 325 624 b 619 467 547 624 619 557 b 433 307 619 375 547 307 b 247 467 319 307 247 375 z m 289 1024 l 199 1024 b 424 789 199 889 289 789 b 647 1024 558 789 647 889 l 558 1024 b 424 867 553 933 504 867 b 289 1024 343 867 293 933 z m 44 -56 b 431 -290 56 -190 201 -290 b 819 -46 629 -290 819 -212 b 508 118 819 121 647 139 l 326 92 b 169 157 272 83 169 75 b 286 239 169 211 219 239 b 432 228 340 239 372 228 b 715 467 610 228 715 328 b 654 624 715 528 694 582 b 817 774 660 708 713 774 b 846 772 826 774 836 774 l 754 865 b 594 668 665 851 596 782 b 433 704 551 692 497 704 b 151 467 263 704 151 604 b 238 285 151 392 183 328 b 72 142 156 286 72 239 b 133 29 72 86 97 51 z m 140 25 b 336 0 199 -7 281 -8 l 504 25 b 724 -54 607 40 724 44 b 431 -207 724 -157 578 -207 b 140 25 261 -207 115 -135 z "},"ǧ":{"ha":854,"x_min":0,"x_max":0,"o":"m 247 467 b 433 624 247 557 325 624 b 619 467 547 624 619 557 b 433 307 619 375 547 307 b 247 467 319 307 247 375 z m 282 1029 l 169 1029 l 388 792 l 456 792 l 674 1029 l 563 1029 l 422 878 z m 44 -56 b 431 -290 56 -190 201 -290 b 819 -46 629 -290 819 -212 b 508 118 819 121 647 139 l 326 92 b 169 157 272 83 169 75 b 286 239 169 211 219 239 b 432 228 340 239 372 228 b 715 467 610 228 715 328 b 654 624 715 528 694 582 b 817 774 660 708 713 774 b 846 772 826 774 836 774 l 754 865 b 594 668 665 851 596 782 b 433 704 551 692 497 704 b 151 467 263 704 151 604 b 238 285 151 392 183 328 b 72 142 156 286 72 239 b 133 29 72 86 97 51 z m 140 25 b 336 0 199 -7 281 -8 l 504 25 b 724 -54 607 40 724 44 b 431 -207 724 -157 578 -207 b 140 25 261 -207 115 -135 z "},"ĝ":{"ha":854,"x_min":0,"x_max":0,"o":"m 247 467 b 433 624 247 557 325 624 b 619 467 547 624 619 557 b 433 307 619 375 547 307 b 247 467 319 307 247 375 z m 563 792 l 632 792 b 594 668 608 760 594 718 b 433 704 551 692 497 704 b 151 467 263 704 151 604 b 238 285 151 392 183 328 b 72 142 156 286 72 239 b 133 29 72 86 97 51 l 44 -56 b 431 -290 56 -190 201 -290 b 819 -46 629 -290 819 -212 b 508 118 819 121 647 139 l 326 92 b 169 157 272 83 169 75 b 286 239 169 211 219 239 b 432 228 340 239 372 228 b 715 467 610 228 715 328 b 654 624 715 528 694 582 b 817 774 660 708 713 774 b 846 772 826 774 836 774 l 754 865 b 653 817 715 860 681 842 l 457 1029 l 389 1029 l 171 792 l 282 792 l 422 943 z m 140 25 b 336 0 199 -7 281 -8 l 504 25 b 724 -54 607 40 724 44 b 431 -207 724 -157 578 -207 b 140 25 261 -207 115 -135 z "},"ģ":{"ha":854,"x_min":0,"x_max":0,"o":"m 247 467 b 433 624 247 557 325 624 b 619 467 547 624 619 557 b 433 307 619 375 547 307 b 247 467 319 307 247 375 z m 485 985 l 425 985 b 510 1111 433 1029 456 1067 l 400 1111 b 338 889 344 1042 338 993 l 338 839 l 485 839 z m 44 -56 b 431 -290 56 -190 201 -290 b 819 -46 629 -290 819 -212 b 508 118 819 121 647 139 l 326 92 b 169 157 272 83 169 75 b 286 239 169 211 219 239 b 432 228 340 239 372 228 b 715 467 610 228 715 328 b 624 650 715 543 683 607 l 626 650 b 789 815 626 742 679 815 b 818 814 799 815 808 815 l 726 907 b 568 681 629 892 556 811 b 433 704 529 696 485 704 b 151 467 263 704 151 604 b 238 285 151 392 183 328 b 72 142 156 286 72 239 b 133 29 72 86 97 51 z m 140 25 b 336 0 199 -7 281 -8 l 504 25 b 724 -54 607 40 724 44 b 431 -207 724 -157 578 -207 b 140 25 261 -207 115 -135 z "},"ġ":{"ha":854,"x_min":0,"x_max":0,"o":"m 247 467 b 433 624 247 557 325 624 b 619 467 547 624 619 557 b 433 307 619 375 547 307 b 247 467 319 307 247 375 z m 350 836 l 497 836 l 497 983 l 350 983 z m 44 -56 b 431 -290 56 -190 201 -290 b 819 -46 629 -290 819 -212 b 508 118 819 121 647 139 l 326 92 b 169 157 272 83 169 75 b 286 239 169 211 219 239 b 432 228 340 239 372 228 b 715 467 610 228 715 328 b 624 650 715 543 683 607 l 626 650 b 789 815 626 742 679 815 b 818 814 799 815 808 815 l 726 907 b 568 681 629 892 556 811 b 433 704 529 696 485 704 b 151 467 263 704 151 604 b 238 285 151 392 183 328 b 72 142 156 286 72 239 b 133 29 72 86 97 51 z m 140 25 b 336 0 199 -7 281 -8 l 504 25 b 724 -54 607 40 724 44 b 431 -207 724 -157 578 -207 b 140 25 261 -207 115 -135 z "},"ḡ":{"ha":854,"x_min":0,"x_max":0,"o":"m 247 467 b 433 624 247 557 325 624 b 619 467 547 624 619 557 b 433 307 619 375 547 307 b 247 467 319 307 247 375 z m 178 960 l 178 878 l 668 878 l 668 960 z m 44 -56 b 431 -290 56 -190 201 -290 b 819 -46 629 -290 819 -212 b 508 118 819 121 647 139 l 326 92 b 169 157 272 83 169 75 b 286 239 169 211 219 239 b 432 228 340 239 372 228 b 715 467 610 228 715 328 b 654 624 715 528 694 582 b 817 774 660 708 713 774 b 846 772 826 774 836 774 l 754 865 b 594 668 665 851 596 782 b 433 704 551 692 497 704 b 151 467 263 704 151 604 b 238 285 151 392 183 328 b 72 142 156 286 72 239 b 133 29 72 86 97 51 z m 140 25 b 336 0 199 -7 281 -8 l 504 25 b 724 -54 607 40 724 44 b 431 -207 724 -157 578 -207 b 140 25 261 -207 115 -135 z "},"h":{"ha":776,"x_min":0,"x_max":0,"o":"m 408 633 b 592 425 515 633 592 563 l 592 0 l 693 0 l 693 443 b 440 711 693 610 601 711 b 204 569 324 711 246 657 l 204 1111 l 104 1111 l 104 0 l 204 0 l 204 406 b 408 633 214 553 292 633 z "},"ħ":{"ha":776,"x_min":0,"x_max":0,"o":"m 408 633 b 592 425 515 633 592 563 l 592 0 l 693 0 l 693 443 b 440 711 693 610 601 711 b 204 569 324 711 246 657 l 204 865 l 458 865 l 458 914 l 204 914 l 204 1111 l 104 1111 l 104 914 l -32 914 l -32 865 l 104 865 l 104 0 l 204 0 l 204 406 b 408 633 214 553 292 633 z "},"ĥ":{"ha":776,"x_min":0,"x_max":0,"o":"m 408 633 b 592 425 515 633 592 563 l 592 0 l 693 0 l 693 443 b 440 711 693 610 601 711 b 204 569 324 711 246 657 l 204 1111 l 104 1111 l 104 0 l 204 0 l 204 406 b 408 633 214 553 292 633 z m 514 1213 l 646 1213 l 422 1418 l 354 1418 l 131 1213 l 261 1213 l 388 1332 z "},"ḥ":{"ha":776,"x_min":0,"x_max":0,"o":"m 408 633 b 592 425 515 633 592 563 l 592 0 l 693 0 l 693 443 b 440 711 693 610 601 711 b 204 569 324 711 246 657 l 204 1111 l 104 1111 l 104 0 l 204 0 l 204 406 b 408 633 214 553 292 633 z m 315 -228 l 463 -228 l 463 -81 l 315 -81 z "},"i":{"ha":306,"x_min":0,"x_max":0,"o":"m 103 0 l 203 0 l 203 694 l 103 694 z m 79 836 l 226 836 l 226 983 l 79 983 z "},"ı":{"ha":306,"x_min":0,"x_max":0,"o":"m 103 0 l 203 0 l 203 694 l 103 694 z "},"í":{"ha":306,"x_min":0,"x_max":0,"o":"m 103 0 l 203 0 l 203 694 l 103 694 z m 119 796 l 175 796 l 406 1029 l 250 1029 z "},"ĭ":{"ha":306,"x_min":0,"x_max":0,"o":"m 103 0 l 203 0 l 203 694 l 103 694 z m 46 1024 l -44 1024 b 153 789 -44 879 32 789 b 349 1024 274 789 349 879 l 260 1024 b 153 867 256 928 214 867 b 46 1024 90 867 49 928 z "},"î":{"ha":306,"x_min":0,"x_max":0,"o":"m 103 0 l 203 0 l 203 694 l 103 694 z m 243 792 l 349 792 l 186 1029 l 118 1029 l -44 792 l 60 792 l 151 938 z "},"ï":{"ha":306,"x_min":0,"x_max":0,"o":"m 103 0 l 203 0 l 203 694 l 103 694 z m -36 840 l 104 840 l 104 979 l -36 979 z m 201 840 l 342 840 l 342 979 l 201 979 z "},"ì":{"ha":306,"x_min":0,"x_max":0,"o":"m 103 0 l 203 0 l 203 694 l 103 694 z m 186 796 l 56 1029 l -100 1029 l 131 796 z "},"ĳ":{"ha":617,"x_min":0,"x_max":0,"o":"m 103 0 l 203 0 l 203 694 l 103 694 z m 79 836 l 226 836 l 226 983 l 79 983 z m 413 -18 b 315 -278 413 -122 399 -224 l 444 -278 b 513 -53 501 -229 513 -143 l 513 694 l 413 694 z m 390 836 l 538 836 l 538 983 l 390 983 z "},"ī":{"ha":306,"x_min":0,"x_max":0,"o":"m 103 0 l 203 0 l 203 694 l 103 694 z m -24 960 l -24 878 l 328 878 l 328 960 z "},"į":{"ha":306,"x_min":0,"x_max":0,"o":"m 79 836 l 226 836 l 226 983 l 79 983 z m 203 0 l 203 694 l 103 694 l 103 22 b 125 -286 -76 -39 -54 -286 b 242 -243 158 -286 207 -274 l 242 -126 b 136 -204 207 -192 169 -204 b 203 0 28 -204 29 0 z "},"ɨ":{"ha":379,"x_min":0,"x_max":0,"o":"m 140 0 l 240 0 l 240 379 l 379 379 l 379 428 l 240 428 l 240 694 l 140 694 l 140 428 l 0 428 l 0 379 l 140 379 z m 117 836 l 264 836 l 264 983 l 117 983 z "},"ĩ":{"ha":306,"x_min":0,"x_max":0,"o":"m 103 0 l 203 0 l 203 694 l 103 694 z m 57 925 b 246 821 121 925 135 821 b 378 1000 338 821 396 892 l 296 1000 b 247 896 310 931 283 896 b 58 1000 183 896 169 1000 b -74 821 -33 1000 -92 929 l 8 821 b 57 925 -6 890 21 925 z "},"j":{"ha":308,"x_min":0,"x_max":0,"o":"m 104 -18 b 7 -278 104 -122 90 -224 l 136 -278 b 204 -53 193 -229 204 -143 l 204 694 l 104 694 z m 82 836 l 229 836 l 229 983 l 82 983 z "},"ȷ":{"ha":308,"x_min":0,"x_max":0,"o":"m 104 -18 b 7 -278 104 -122 90 -224 l 136 -278 b 204 -53 193 -229 204 -143 l 204 694 l 104 694 z "},"ĵ":{"ha":308,"x_min":0,"x_max":0,"o":"m 104 -18 b 7 -278 104 -122 90 -224 l 136 -278 b 204 -53 193 -229 204 -143 l 204 694 l 104 694 z m 246 792 l 351 792 l 189 1029 l 121 1029 l -42 792 l 63 792 l 154 938 z "},"k":{"ha":732,"x_min":0,"x_max":0,"o":"m 104 0 l 204 0 l 204 250 l 344 375 l 614 0 l 732 0 l 419 442 l 704 694 l 575 694 l 204 361 l 204 1111 l 104 1111 z "},"ķ":{"ha":732,"x_min":0,"x_max":0,"o":"m 104 0 l 204 0 l 204 250 l 344 375 l 614 0 l 732 0 l 419 442 l 704 694 l 575 694 l 204 361 l 204 1111 l 104 1111 z m 308 -226 l 368 -226 b 283 -353 360 -271 338 -308 l 393 -353 b 456 -131 449 -283 456 -235 l 456 -81 l 308 -81 z "},"ĸ":{"ha":732,"x_min":0,"x_max":0,"o":"m 104 0 l 204 0 l 204 250 l 344 375 l 614 0 l 732 0 l 419 442 l 704 694 l 575 694 l 204 361 l 204 694 l 104 694 z "},"l":{"ha":308,"x_min":0,"x_max":0,"o":"m 104 0 l 204 0 l 204 1111 l 104 1111 z "},"ĺ":{"ha":308,"x_min":0,"x_max":0,"o":"m 104 0 l 204 0 l 204 1111 l 104 1111 z m 126 1213 l 188 1213 l 394 1418 l 225 1418 z "},"ľ":{"ha":460,"x_min":0,"x_max":0,"o":"m 104 0 l 204 0 l 204 1111 l 104 1111 z m 313 965 l 378 965 b 288 757 378 879 371 826 l 397 757 b 460 979 453 826 460 875 l 460 1111 l 313 1111 z "},"ļ":{"ha":308,"x_min":0,"x_max":0,"o":"m 104 0 l 204 0 l 204 1111 l 104 1111 z m 82 -226 l 142 -226 b 57 -353 133 -271 111 -308 l 167 -353 b 229 -131 222 -283 229 -235 l 229 -81 l 82 -81 z "},"ŀ":{"ha":494,"x_min":0,"x_max":0,"o":"m 104 0 l 204 0 l 204 1111 l 104 1111 z m 319 431 l 467 431 l 467 576 l 319 576 z "},"ḷ":{"ha":308,"x_min":0,"x_max":0,"o":"m 104 0 l 204 0 l 204 1111 l 104 1111 z m 81 -228 l 228 -228 l 228 -81 l 81 -81 z "},"ł":{"ha":435,"x_min":0,"x_max":0,"o":"m 168 0 l 268 0 l 268 550 l 407 621 l 407 708 l 268 638 l 268 1111 l 168 1111 l 168 586 l 28 514 l 28 426 l 168 499 z "},"m":{"ha":1208,"x_min":0,"x_max":0,"o":"m 393 633 b 563 440 492 633 563 568 l 563 0 l 664 0 l 664 421 b 854 633 674 558 746 633 b 1024 440 953 633 1024 568 l 1024 0 l 1125 0 l 1125 458 b 878 711 1125 615 1039 711 b 642 582 765 711 686 664 b 426 711 607 664 532 711 b 203 579 315 711 243 661 l 203 694 l 103 694 l 103 0 l 203 0 l 203 421 b 393 633 213 558 285 633 z "},"n":{"ha":775,"x_min":0,"x_max":0,"o":"m 407 633 b 590 425 514 633 590 563 l 590 0 l 692 0 l 692 443 b 439 711 692 610 600 711 b 203 569 322 711 244 657 l 203 694 l 103 694 l 103 0 l 203 0 l 203 406 b 407 633 213 553 290 633 z "},"ń":{"ha":775,"x_min":0,"x_max":0,"o":"m 407 633 b 590 425 514 633 590 563 l 590 0 l 692 0 l 692 443 b 439 711 692 610 600 711 b 203 569 322 711 244 657 l 203 694 l 103 694 l 103 0 l 203 0 l 203 406 b 407 633 213 553 290 633 z m 360 796 l 415 796 l 646 1029 l 490 1029 z "},"ŉ":{"ha":775,"x_min":0,"x_max":0,"o":"m 407 633 b 590 425 514 633 590 563 l 590 0 l 692 0 l 692 443 b 439 711 692 610 600 711 b 203 569 322 711 244 657 l 203 694 l 103 694 l 103 0 l 203 0 l 203 406 b 407 633 213 553 290 633 z m 115 965 l 181 965 b 90 757 181 879 174 826 l 200 757 b 263 979 256 826 263 875 l 263 1111 l 115 1111 z "},"ň":{"ha":775,"x_min":0,"x_max":0,"o":"m 407 633 b 590 425 514 633 590 563 l 590 0 l 692 0 l 692 443 b 439 711 692 610 600 711 b 203 569 322 711 244 657 l 203 694 l 103 694 l 103 0 l 203 0 l 203 406 b 407 633 213 553 290 633 z m 251 1029 l 139 1029 l 357 792 l 425 792 l 643 1029 l 532 1029 l 392 878 z "},"ņ":{"ha":775,"x_min":0,"x_max":0,"o":"m 407 633 b 590 425 514 633 590 563 l 590 0 l 692 0 l 692 443 b 439 711 692 610 600 711 b 203 569 322 711 244 657 l 203 694 l 103 694 l 103 0 l 203 0 l 203 406 b 407 633 213 553 290 633 z m 321 -226 l 381 -226 b 296 -353 372 -271 350 -308 l 406 -353 b 468 -131 461 -283 468 -235 l 468 -81 l 321 -81 z "},"ɲ":{"ha":854,"x_min":0,"x_max":0,"o":"m 486 633 b 669 425 593 633 669 563 l 669 0 l 771 0 l 771 443 b 518 711 771 610 679 711 b 282 569 401 711 324 657 l 282 694 l 182 694 l 182 -93 b 113 -197 182 -165 157 -197 b 7 -119 79 -197 42 -185 l 7 -243 b 124 -286 42 -274 90 -286 b 282 -107 221 -286 282 -218 l 282 406 b 486 633 292 553 369 633 z "},"ñ":{"ha":775,"x_min":0,"x_max":0,"o":"m 407 633 b 590 425 514 633 590 563 l 590 0 l 692 0 l 692 443 b 439 711 692 610 600 711 b 203 569 322 711 244 657 l 203 694 l 103 694 l 103 0 l 203 0 l 203 406 b 407 633 213 553 290 633 z m 278 925 b 507 821 351 925 383 821 b 646 1000 601 821 660 882 l 564 1000 b 507 896 578 931 549 896 b 278 1000 433 896 401 1000 b 139 821 183 1000 125 939 l 221 821 b 278 925 207 890 236 925 z "},"ŋ":{"ha":790,"x_min":0,"x_max":0,"o":"m 422 633 b 606 425 529 633 606 563 l 606 -93 b 536 -197 606 -165 581 -197 b 431 -119 503 -197 465 -185 l 431 -243 b 547 -286 465 -274 514 -286 b 707 -107 644 -286 707 -218 l 707 443 b 454 711 707 610 615 711 b 218 569 338 711 260 657 l 218 694 l 118 694 l 118 0 l 218 0 l 218 406 b 422 633 228 553 306 633 z "},"o":{"ha":839,"x_min":0,"x_max":0,"o":"m 419 -11 b 779 347 638 -11 779 139 b 419 704 779 554 638 704 b 60 347 201 704 60 554 b 419 -11 60 139 201 -11 z m 419 76 b 164 347 271 76 164 190 b 419 617 164 504 271 617 b 675 347 568 617 675 504 b 419 76 675 190 568 76 z "},"ó":{"ha":839,"x_min":0,"x_max":0,"o":"m 419 -11 b 779 347 638 -11 779 139 b 419 704 779 554 638 704 b 60 347 201 704 60 554 b 419 -11 60 139 201 -11 z m 419 76 b 164 347 271 76 164 190 b 419 617 164 504 271 617 b 675 347 568 617 675 504 b 419 76 675 190 568 76 z m 386 796 l 442 796 l 672 1029 l 517 1029 z "},"ŏ":{"ha":839,"x_min":0,"x_max":0,"o":"m 419 -11 b 779 347 638 -11 779 139 b 419 704 779 554 638 704 b 60 347 201 704 60 554 b 419 -11 60 139 201 -11 z m 419 76 b 164 347 271 76 164 190 b 419 617 164 504 271 617 b 675 347 568 617 675 504 b 419 76 675 190 568 76 z m 285 1024 l 194 1024 b 419 789 194 889 285 789 b 643 1024 554 789 643 889 l 554 1024 b 419 867 549 933 500 867 b 285 1024 339 867 289 933 z "},"ô":{"ha":839,"x_min":0,"x_max":0,"o":"m 419 -11 b 779 347 638 -11 779 139 b 419 704 779 554 638 704 b 60 347 201 704 60 554 b 419 -11 60 139 201 -11 z m 419 76 b 164 347 271 76 164 190 b 419 617 164 504 271 617 b 675 347 568 617 675 504 b 419 76 675 190 568 76 z m 558 792 l 671 792 l 453 1029 l 385 1029 l 167 792 l 278 792 l 418 943 z "},"ö":{"ha":839,"x_min":0,"x_max":0,"o":"m 419 -11 b 779 347 638 -11 779 139 b 419 704 779 554 638 704 b 60 347 201 704 60 554 b 419 -11 60 139 201 -11 z m 419 76 b 164 347 271 76 164 190 b 419 617 164 504 271 617 b 675 347 568 617 675 504 b 419 76 675 190 568 76 z m 217 840 l 357 840 l 357 979 l 217 979 z m 482 840 l 622 840 l 622 979 l 482 979 z "},"ọ":{"ha":839,"x_min":0,"x_max":0,"o":"m 419 -11 b 779 347 638 -11 779 139 b 419 704 779 554 638 704 b 60 347 201 704 60 554 b 419 -11 60 139 201 -11 z m 419 76 b 164 347 271 76 164 190 b 419 617 164 504 271 617 b 675 347 568 617 675 504 b 419 76 675 190 568 76 z m 346 -228 l 493 -228 l 493 -81 l 346 -81 z "},"ò":{"ha":839,"x_min":0,"x_max":0,"o":"m 419 -11 b 779 347 638 -11 779 139 b 419 704 779 554 638 704 b 60 347 201 704 60 554 b 419 -11 60 139 201 -11 z m 419 76 b 164 347 271 76 164 190 b 419 617 164 504 271 617 b 675 347 568 617 675 504 b 419 76 675 190 568 76 z m 453 796 l 322 1029 l 167 1029 l 397 796 z "},"ő":{"ha":839,"x_min":0,"x_max":0,"o":"m 419 -11 b 779 347 638 -11 779 139 b 419 704 779 554 638 704 b 60 347 201 704 60 554 b 419 -11 60 139 201 -11 z m 419 76 b 164 347 271 76 164 190 b 419 617 164 504 271 617 b 675 347 568 617 675 504 b 419 76 675 190 568 76 z m 286 796 l 342 796 l 531 1029 l 383 1029 z m 494 796 l 550 796 l 781 1029 l 625 1029 z "},"ō":{"ha":839,"x_min":0,"x_max":0,"o":"m 419 -11 b 779 347 638 -11 779 139 b 419 704 779 554 638 704 b 60 347 201 704 60 554 b 419 -11 60 139 201 -11 z m 419 76 b 164 347 271 76 164 190 b 419 617 164 504 271 617 b 675 347 568 617 675 504 b 419 76 675 190 568 76 z m 174 960 l 174 878 l 664 878 l 664 960 z "},"ø":{"ha":839,"x_min":0,"x_max":0,"o":"m 419 -11 b 779 347 638 -11 779 139 b 674 610 779 454 742 546 l 757 708 l 688 708 l 633 643 b 419 704 575 682 503 704 b 60 347 201 704 60 554 b 164 85 60 240 97 149 l 81 -14 l 150 -14 l 204 51 b 419 -11 263 11 335 -11 z m 419 76 b 267 125 361 76 308 94 l 610 533 b 675 347 651 486 675 422 b 419 76 675 190 568 76 z m 164 347 b 419 617 164 504 271 617 b 571 569 478 617 529 600 l 228 161 b 164 347 188 210 164 274 z "},"ǿ":{"ha":839,"x_min":0,"x_max":0,"o":"m 419 -11 b 779 347 638 -11 779 139 b 674 610 779 454 742 546 l 757 708 l 688 708 l 633 643 b 419 704 575 682 503 704 b 60 347 201 704 60 554 b 164 85 60 240 97 149 l 81 -14 l 150 -14 l 204 51 b 419 -11 263 11 335 -11 z m 419 76 b 267 125 361 76 308 94 l 610 533 b 675 347 651 486 675 422 b 419 76 675 190 568 76 z m 386 796 l 442 796 l 672 1029 l 517 1029 z m 164 347 b 419 617 164 504 271 617 b 571 569 478 617 529 600 l 228 161 b 164 347 188 210 164 274 z "},"õ":{"ha":839,"x_min":0,"x_max":0,"o":"m 419 -11 b 779 347 638 -11 779 139 b 419 704 779 554 638 704 b 60 347 201 704 60 554 b 419 -11 60 139 201 -11 z m 419 76 b 164 347 271 76 164 190 b 419 617 164 504 271 617 b 675 347 568 617 675 504 b 419 76 675 190 568 76 z m 304 925 b 533 821 378 925 410 821 b 672 1000 628 821 686 882 l 590 1000 b 533 896 604 931 575 896 b 304 1000 460 896 428 1000 b 165 821 210 1000 151 939 l 247 821 b 304 925 233 890 263 925 z "},"œ":{"ha":1440,"x_min":0,"x_max":0,"o":"m 419 -11 b 728 149 558 -11 667 50 b 1035 -11 788 50 896 -11 b 1350 131 1178 -11 1289 42 l 1294 254 b 1035 76 1250 135 1168 76 b 779 333 886 76 779 190 l 779 335 l 1381 335 l 1381 389 b 1033 704 1381 551 1244 704 b 728 544 894 704 788 642 b 419 704 668 643 560 704 b 60 347 201 704 60 554 b 419 -11 60 139 201 -11 z m 419 76 b 164 347 271 76 164 190 b 419 617 164 504 271 617 b 675 347 568 617 675 504 b 419 76 675 190 568 76 z m 782 417 b 1033 617 800 536 890 617 b 1274 417 1153 617 1260 549 z "},"p":{"ha":879,"x_min":0,"x_max":0,"o":"m 203 347 b 460 621 203 507 311 621 b 715 347 608 621 715 507 b 460 72 715 188 608 72 b 203 347 311 72 203 188 z m 103 -278 l 203 -278 l 203 140 b 483 -11 263 47 363 -11 b 819 347 678 -11 819 139 b 483 704 819 554 678 704 b 203 553 363 704 263 646 l 203 694 l 103 694 z "},"þ":{"ha":881,"x_min":0,"x_max":0,"o":"m 204 347 b 461 621 204 507 313 621 b 717 347 610 621 717 507 b 461 72 717 188 610 72 b 204 347 313 72 204 188 z m 104 -278 l 204 -278 l 204 140 b 485 -11 264 47 364 -11 b 821 347 679 -11 821 139 b 485 704 821 554 679 704 b 204 553 364 704 264 646 l 204 1111 l 104 1111 z "},"q":{"ha":879,"x_min":0,"x_max":0,"o":"m 776 -278 l 776 694 l 676 694 l 676 553 b 396 704 617 646 517 704 b 60 347 201 704 60 554 b 396 -11 60 139 201 -11 b 676 140 517 -11 617 47 l 676 -278 z m 164 347 b 419 621 164 507 271 621 b 676 347 568 621 676 507 b 419 72 676 188 568 72 b 164 347 271 72 164 188 z "},"r":{"ha":632,"x_min":0,"x_max":0,"o":"m 103 0 l 203 0 l 203 299 b 369 622 203 565 272 622 b 521 436 454 622 538 564 l 614 528 b 413 704 599 629 526 704 b 203 565 322 704 247 668 l 203 694 l 103 694 z "},"ŕ":{"ha":632,"x_min":0,"x_max":0,"o":"m 103 0 l 203 0 l 203 299 b 369 622 203 565 272 622 b 521 436 454 622 538 564 l 614 528 b 413 704 599 629 526 704 b 203 565 322 704 247 668 l 203 694 l 103 694 z m 283 796 l 339 796 l 569 1029 l 414 1029 z "},"ř":{"ha":632,"x_min":0,"x_max":0,"o":"m 103 0 l 203 0 l 203 299 b 369 622 203 565 272 622 b 521 436 454 622 538 564 l 614 528 b 413 704 599 629 526 704 b 203 565 322 704 247 668 l 203 694 l 103 694 z m 175 1029 l 63 1029 l 281 792 l 349 792 l 567 1029 l 456 1029 l 315 878 z "},"ŗ":{"ha":632,"x_min":0,"x_max":0,"o":"m 103 0 l 203 0 l 203 299 b 369 622 203 565 272 622 b 521 436 454 622 538 564 l 614 528 b 413 704 599 629 526 704 b 203 565 322 704 247 668 l 203 694 l 103 694 z m 244 -226 l 304 -226 b 219 -353 296 -271 274 -308 l 329 -353 b 392 -131 385 -283 392 -235 l 392 -81 l 244 -81 z "},"s":{"ha":694,"x_min":0,"x_max":0,"o":"m 339 629 b 506 435 433 629 528 567 l 606 526 b 339 711 582 642 485 711 b 94 513 211 711 94 647 b 531 192 94 228 531 385 b 354 68 531 110 447 68 b 157 276 243 68 136 135 l 57 185 b 353 -14 82 64 189 -14 b 632 200 493 -14 632 49 b 196 521 632 485 196 329 b 339 629 196 589 261 629 z "},"ś":{"ha":694,"x_min":0,"x_max":0,"o":"m 339 629 b 506 435 433 629 528 567 l 606 526 b 339 711 582 642 485 711 b 94 513 211 711 94 647 b 531 192 94 228 531 385 b 354 68 531 110 447 68 b 157 276 243 68 136 135 l 57 185 b 353 -14 82 64 189 -14 b 632 200 493 -14 632 49 b 196 521 632 485 196 329 b 339 629 196 589 261 629 z m 314 796 l 369 796 l 600 1029 l 444 1029 z "},"ꞌ":{"ha":368,"x_min":0,"x_max":0,"o":"m 157 599 l 213 599 l 250 972 l 118 972 z "},"š":{"ha":694,"x_min":0,"x_max":0,"o":"m 339 629 b 506 435 433 629 528 567 l 606 526 b 339 711 582 642 485 711 b 94 513 211 711 94 647 b 531 192 94 228 531 385 b 354 68 531 110 447 68 b 157 276 243 68 136 135 l 57 185 b 353 -14 82 64 189 -14 b 632 200 493 -14 632 49 b 196 521 632 485 196 329 b 339 629 196 589 261 629 z m 206 1029 l 93 1029 l 311 792 l 379 792 l 597 1029 l 486 1029 l 346 878 z "},"ş":{"ha":694,"x_min":0,"x_max":0,"o":"m 339 629 b 506 435 433 629 528 567 l 606 526 b 339 711 582 642 485 711 b 94 513 211 711 94 647 b 531 192 94 228 531 385 b 354 68 531 110 447 68 b 157 276 243 68 136 135 l 57 185 b 311 -12 79 75 171 0 l 296 -104 l 324 -104 b 397 -167 371 -104 397 -131 b 338 -231 397 -204 372 -231 b 278 -128 303 -231 264 -207 l 200 -185 b 338 -297 207 -247 257 -297 b 475 -167 417 -297 475 -243 b 368 -42 475 -101 431 -53 l 372 -14 b 632 200 506 -8 632 56 b 196 521 632 485 196 329 b 339 629 196 589 261 629 z "},"ŝ":{"ha":694,"x_min":0,"x_max":0,"o":"m 339 629 b 506 435 433 629 528 567 l 606 526 b 339 711 582 642 485 711 b 94 513 211 711 94 647 b 531 192 94 228 531 385 b 354 68 531 110 447 68 b 157 276 243 68 136 135 l 57 185 b 353 -14 82 64 189 -14 b 632 200 493 -14 632 49 b 196 521 632 485 196 329 b 339 629 196 589 261 629 z m 486 792 l 599 792 l 381 1029 l 313 1029 l 94 792 l 206 792 l 346 943 z "},"ș":{"ha":694,"x_min":0,"x_max":0,"o":"m 339 629 b 506 435 433 629 528 567 l 606 526 b 339 711 582 642 485 711 b 94 513 211 711 94 647 b 531 192 94 228 531 385 b 354 68 531 110 447 68 b 157 276 243 68 136 135 l 57 185 b 353 -14 82 64 189 -14 b 632 200 493 -14 632 49 b 196 521 632 485 196 329 b 339 629 196 589 261 629 z m 275 -226 l 335 -226 b 250 -353 326 -271 304 -308 l 360 -353 b 422 -131 415 -283 422 -235 l 422 -81 l 275 -81 z "},"ṣ":{"ha":694,"x_min":0,"x_max":0,"o":"m 339 629 b 506 435 433 629 528 567 l 606 526 b 339 711 582 642 485 711 b 94 513 211 711 94 647 b 531 192 94 228 531 385 b 354 68 531 110 447 68 b 157 276 243 68 136 135 l 57 185 b 353 -14 82 64 189 -14 b 632 200 493 -14 632 49 b 196 521 632 485 196 329 b 339 629 196 589 261 629 z m 274 -228 l 421 -228 l 421 -81 l 274 -81 z "},"ß":{"ha":821,"x_min":0,"x_max":0,"o":"m 647 901 b 381 1121 647 1044 532 1121 b 104 835 218 1121 104 1014 l 104 0 l 204 0 l 204 821 b 382 1039 204 960 278 1039 b 550 894 485 1039 550 981 b 401 565 550 758 401 738 b 686 194 401 350 686 375 b 556 67 686 118 633 67 b 429 256 463 67 413 142 l 329 164 b 556 -17 349 56 425 -17 b 788 203 690 -17 788 71 b 501 579 788 435 501 422 b 647 901 501 707 647 732 z "},"t":{"ha":586,"x_min":0,"x_max":0,"o":"m 544 38 l 544 178 b 394 72 490 88 435 72 b 300 176 332 72 300 104 l 300 613 l 544 613 l 544 694 l 300 694 l 300 942 l 200 843 l 200 694 l 54 694 l 54 613 l 200 613 l 200 163 b 381 -17 200 51 274 -17 b 544 38 429 -17 490 -3 z "},"ŧ":{"ha":586,"x_min":0,"x_max":0,"o":"m 544 38 l 544 178 b 394 72 490 88 435 72 b 300 176 332 72 300 104 l 300 379 l 546 379 l 546 428 l 300 428 l 300 613 l 544 613 l 544 694 l 300 694 l 300 942 l 200 843 l 200 694 l 54 694 l 54 613 l 200 613 l 200 428 l 56 428 l 56 379 l 200 379 l 200 163 b 381 -17 200 51 274 -17 b 544 38 429 -17 490 -3 z "},"ť":{"ha":586,"x_min":0,"x_max":0,"o":"m 544 38 l 544 178 b 394 72 490 88 435 72 b 300 176 332 72 300 104 l 300 613 l 544 613 l 544 694 l 300 694 l 300 942 l 200 843 l 200 694 l 54 694 l 54 613 l 200 613 l 200 163 b 381 -17 200 51 274 -17 b 544 38 429 -17 490 -3 z m 444 965 l 510 965 b 419 757 510 879 503 826 l 529 757 b 592 979 585 826 592 875 l 592 1111 l 444 1111 z "},"ţ":{"ha":586,"x_min":0,"x_max":0,"o":"m 544 38 l 544 178 b 394 72 490 88 435 72 b 300 176 332 72 300 104 l 300 613 l 544 613 l 544 694 l 300 694 l 300 942 l 200 843 l 200 694 l 54 694 l 54 613 l 200 613 l 200 163 b 340 -14 200 65 256 1 l 326 -104 l 354 -104 b 428 -167 401 -104 428 -131 b 368 -231 428 -204 403 -231 b 308 -128 333 -231 294 -207 l 231 -185 b 368 -297 238 -247 288 -297 b 506 -167 447 -297 506 -243 b 399 -42 506 -101 461 -53 l 403 -15 b 544 38 447 -12 499 3 z "},"ț":{"ha":586,"x_min":0,"x_max":0,"o":"m 544 38 l 544 178 b 394 72 490 88 435 72 b 300 176 332 72 300 104 l 300 613 l 544 613 l 544 694 l 300 694 l 300 942 l 200 843 l 200 694 l 54 694 l 54 613 l 200 613 l 200 163 b 381 -17 200 51 274 -17 b 544 38 429 -17 490 -3 z m 306 -226 l 365 -226 b 281 -353 357 -271 335 -308 l 390 -353 b 453 -131 446 -283 453 -235 l 453 -81 l 306 -81 z "},"u":{"ha":775,"x_min":0,"x_max":0,"o":"m 368 61 b 185 269 261 61 185 132 l 185 694 l 83 694 l 83 251 b 336 -17 83 85 175 -17 b 572 125 453 -17 531 38 l 572 0 l 672 0 l 672 694 l 572 694 l 572 289 b 368 61 563 142 485 61 z "},"ú":{"ha":775,"x_min":0,"x_max":0,"o":"m 368 61 b 185 269 261 61 185 132 l 185 694 l 83 694 l 83 251 b 336 -17 83 85 175 -17 b 572 125 453 -17 531 38 l 572 0 l 672 0 l 672 694 l 572 694 l 572 289 b 368 61 563 142 485 61 z m 357 796 l 413 796 l 643 1029 l 488 1029 z "},"ʉ":{"ha":775,"x_min":0,"x_max":0,"o":"m 368 61 b 185 269 261 61 185 132 l 185 694 l 83 694 l 83 251 b 336 -17 83 85 175 -17 b 572 125 453 -17 531 38 l 572 0 l 672 0 l 672 694 l 572 694 l 572 289 b 368 61 563 142 485 61 z "},"ŭ":{"ha":775,"x_min":0,"x_max":0,"o":"m 368 61 b 185 269 261 61 185 132 l 185 694 l 83 694 l 83 251 b 336 -17 83 85 175 -17 b 572 125 453 -17 531 38 l 572 0 l 672 0 l 672 694 l 572 694 l 572 289 b 368 61 563 142 485 61 z m 256 1024 l 165 1024 b 390 789 165 889 256 789 b 614 1024 525 789 614 889 l 525 1024 b 390 867 519 933 471 867 b 256 1024 310 867 260 933 z "},"û":{"ha":775,"x_min":0,"x_max":0,"o":"m 368 61 b 185 269 261 61 185 132 l 185 694 l 83 694 l 83 251 b 336 -17 83 85 175 -17 b 572 125 453 -17 531 38 l 572 0 l 672 0 l 672 694 l 572 694 l 572 289 b 368 61 563 142 485 61 z m 529 792 l 642 792 l 424 1029 l 356 1029 l 138 792 l 249 792 l 389 943 z "},"ü":{"ha":775,"x_min":0,"x_max":0,"o":"m 368 61 b 185 269 261 61 185 132 l 185 694 l 83 694 l 83 251 b 336 -17 83 85 175 -17 b 572 125 453 -17 531 38 l 572 0 l 672 0 l 672 694 l 572 694 l 572 289 b 368 61 563 142 485 61 z m 188 840 l 328 840 l 328 979 l 188 979 z m 453 840 l 593 840 l 593 979 l 453 979 z "},"ù":{"ha":775,"x_min":0,"x_max":0,"o":"m 368 61 b 185 269 261 61 185 132 l 185 694 l 83 694 l 83 251 b 336 -17 83 85 175 -17 b 572 125 453 -17 531 38 l 572 0 l 672 0 l 672 694 l 572 694 l 572 289 b 368 61 563 142 485 61 z m 424 796 l 293 1029 l 138 1029 l 368 796 z "},"ű":{"ha":775,"x_min":0,"x_max":0,"o":"m 368 61 b 185 269 261 61 185 132 l 185 694 l 83 694 l 83 251 b 336 -17 83 85 175 -17 b 572 125 453 -17 531 38 l 572 0 l 672 0 l 672 694 l 572 694 l 572 289 b 368 61 563 142 485 61 z m 257 796 l 313 796 l 501 1029 l 354 1029 z m 465 796 l 521 796 l 751 1029 l 596 1029 z "},"ū":{"ha":775,"x_min":0,"x_max":0,"o":"m 368 61 b 185 269 261 61 185 132 l 185 694 l 83 694 l 83 251 b 336 -17 83 85 175 -17 b 572 125 453 -17 531 38 l 572 0 l 672 0 l 672 694 l 572 694 l 572 289 b 368 61 563 142 485 61 z m 144 960 l 144 878 l 635 878 l 635 960 z "},"ų":{"ha":775,"x_min":0,"x_max":0,"o":"m 368 61 b 185 269 261 61 185 132 l 185 694 l 83 694 l 83 251 b 336 -17 83 85 175 -17 b 572 125 453 -17 531 38 l 572 22 b 594 -286 393 -39 415 -286 b 711 -243 628 -286 676 -274 l 711 -126 b 606 -204 676 -192 639 -204 b 672 0 497 -204 499 0 l 672 694 l 572 694 l 572 289 b 368 61 563 142 485 61 z "},"ů":{"ha":775,"x_min":0,"x_max":0,"o":"m 368 61 b 185 269 261 61 185 132 l 185 694 l 83 694 l 83 251 b 336 -17 83 85 175 -17 b 572 125 453 -17 531 38 l 572 0 l 672 0 l 672 694 l 572 694 l 572 289 b 368 61 563 142 485 61 z m 390 785 b 535 922 475 785 535 842 b 390 1058 535 1001 475 1058 b 246 922 306 1058 246 1001 b 390 785 246 842 306 785 z m 390 853 b 325 922 353 853 325 882 b 390 990 325 961 353 990 b 456 922 428 990 456 961 b 390 853 456 882 428 853 z "},"ũ":{"ha":775,"x_min":0,"x_max":0,"o":"m 368 61 b 185 269 261 61 185 132 l 185 694 l 83 694 l 83 251 b 336 -17 83 85 175 -17 b 572 125 453 -17 531 38 l 572 0 l 672 0 l 672 694 l 572 694 l 572 289 b 368 61 563 142 485 61 z m 275 925 b 504 821 349 925 381 821 b 643 1000 599 821 657 882 l 561 1000 b 504 896 575 931 546 896 b 275 1000 431 896 399 1000 b 136 821 181 1000 122 939 l 218 821 b 275 925 204 890 233 925 z "},"v":{"ha":746,"x_min":0,"x_max":0,"o":"m 121 694 l 14 694 l 300 0 l 444 0 l 732 694 l 626 694 l 374 78 z "},"w":{"ha":968,"x_min":0,"x_max":0,"o":"m 129 694 l 28 694 l 199 0 l 338 0 l 483 568 l 629 0 l 768 0 l 940 694 l 840 694 l 696 100 l 544 694 l 425 694 l 274 100 z "},"ẃ":{"ha":968,"x_min":0,"x_max":0,"o":"m 129 694 l 28 694 l 199 0 l 338 0 l 483 568 l 629 0 l 768 0 l 940 694 l 840 694 l 696 100 l 544 694 l 425 694 l 274 100 z m 451 796 l 507 796 l 738 1029 l 582 1029 z "},"ŵ":{"ha":968,"x_min":0,"x_max":0,"o":"m 129 694 l 28 694 l 199 0 l 338 0 l 483 568 l 629 0 l 768 0 l 940 694 l 840 694 l 696 100 l 544 694 l 425 694 l 274 100 z m 624 792 l 736 792 l 518 1029 l 450 1029 l 232 792 l 343 792 l 483 943 z "},"ẅ":{"ha":968,"x_min":0,"x_max":0,"o":"m 129 694 l 28 694 l 199 0 l 338 0 l 483 568 l 629 0 l 768 0 l 940 694 l 840 694 l 696 100 l 544 694 l 425 694 l 274 100 z m 282 840 l 422 840 l 422 979 l 282 979 z m 547 840 l 688 840 l 688 979 l 547 979 z "},"ẁ":{"ha":968,"x_min":0,"x_max":0,"o":"m 129 694 l 28 694 l 199 0 l 338 0 l 483 568 l 629 0 l 768 0 l 940 694 l 840 694 l 696 100 l 544 694 l 425 694 l 274 100 z m 518 796 l 388 1029 l 232 1029 l 463 796 z "},"x":{"ha":774,"x_min":0,"x_max":0,"o":"m 164 694 l 42 694 l 321 353 l 28 0 l 150 0 l 388 285 l 625 0 l 746 0 l 451 353 l 732 694 l 611 694 l 388 421 z "},"y":{"ha":746,"x_min":0,"x_max":0,"o":"m 121 694 l 14 694 l 321 -50 l 317 -60 b 185 -206 271 -172 242 -206 b 56 -114 151 -206 100 -192 l 56 -254 b 179 -294 92 -285 143 -294 b 394 -119 293 -294 353 -221 l 732 694 l 626 694 l 374 78 z "},"ý":{"ha":746,"x_min":0,"x_max":0,"o":"m 121 694 l 14 694 l 321 -50 l 317 -60 b 185 -206 271 -172 242 -206 b 56 -114 151 -206 100 -192 l 56 -254 b 179 -294 92 -285 143 -294 b 394 -119 293 -294 353 -221 l 732 694 l 626 694 l 374 78 z m 338 796 l 393 796 l 624 1029 l 468 1029 z "},"ŷ":{"ha":746,"x_min":0,"x_max":0,"o":"m 121 694 l 14 694 l 321 -50 l 317 -60 b 185 -206 271 -172 242 -206 b 56 -114 151 -206 100 -192 l 56 -254 b 179 -294 92 -285 143 -294 b 394 -119 293 -294 353 -221 l 732 694 l 626 694 l 374 78 z m 510 792 l 622 792 l 404 1029 l 336 1029 l 118 792 l 229 792 l 369 943 z "},"ÿ":{"ha":746,"x_min":0,"x_max":0,"o":"m 121 694 l 14 694 l 321 -50 l 317 -60 b 185 -206 271 -172 242 -206 b 56 -114 151 -206 100 -192 l 56 -254 b 179 -294 92 -285 143 -294 b 394 -119 293 -294 353 -221 l 732 694 l 626 694 l 374 78 z m 168 840 l 308 840 l 308 979 l 168 979 z m 433 840 l 574 840 l 574 979 l 433 979 z "},"ỳ":{"ha":746,"x_min":0,"x_max":0,"o":"m 121 694 l 14 694 l 321 -50 l 317 -60 b 185 -206 271 -172 242 -206 b 56 -114 151 -206 100 -192 l 56 -254 b 179 -294 92 -285 143 -294 b 394 -119 293 -294 353 -221 l 732 694 l 626 694 l 374 78 z m 404 796 l 274 1029 l 118 1029 l 349 796 z "},"ỹ":{"ha":746,"x_min":0,"x_max":0,"o":"m 121 694 l 14 694 l 321 -50 l 317 -60 b 185 -206 271 -172 242 -206 b 56 -114 151 -206 100 -192 l 56 -254 b 179 -294 92 -285 143 -294 b 394 -119 293 -294 353 -221 l 732 694 l 626 694 l 374 78 z m 256 925 b 485 821 329 925 361 821 b 624 1000 579 821 638 882 l 542 1000 b 485 896 556 931 526 896 b 256 1000 411 896 379 1000 b 117 821 161 1000 103 939 l 199 821 b 256 925 185 890 214 925 z "},"z":{"ha":651,"x_min":0,"x_max":0,"o":"m 592 622 l 592 694 l 60 694 l 60 613 l 464 613 l 60 72 l 60 0 l 592 0 l 592 82 l 188 82 z "},"ź":{"ha":651,"x_min":0,"x_max":0,"o":"m 592 622 l 592 694 l 60 694 l 60 613 l 464 613 l 60 72 l 60 0 l 592 0 l 592 82 l 188 82 z m 293 796 l 349 796 l 579 1029 l 424 1029 z "},"ž":{"ha":651,"x_min":0,"x_max":0,"o":"m 592 622 l 592 694 l 60 694 l 60 613 l 464 613 l 60 72 l 60 0 l 592 0 l 592 82 l 188 82 z m 185 1029 l 72 1029 l 290 792 l 358 792 l 576 1029 l 465 1029 l 325 878 z "},"ż":{"ha":651,"x_min":0,"x_max":0,"o":"m 592 622 l 592 694 l 60 694 l 60 613 l 464 613 l 60 72 l 60 0 l 592 0 l 592 82 l 188 82 z m 253 836 l 400 836 l 400 983 l 253 983 z "},"ﬁ":{"ha":853,"x_min":0,"x_max":0,"o":"m 188 849 l 188 694 l 42 694 l 42 613 l 188 613 l 188 0 l 288 0 l 288 613 l 650 613 l 650 0 l 750 0 l 750 694 l 288 694 l 288 835 b 463 1039 288 974 356 1039 b 619 847 546 1039 638 976 l 713 939 b 461 1121 694 1043 594 1121 b 188 849 297 1121 188 1028 z "},"ﬂ":{"ha":853,"x_min":0,"x_max":0,"o":"m 650 821 l 650 694 l 288 694 l 288 821 b 472 1039 288 958 356 1039 b 650 821 585 1039 650 958 z m 42 613 l 188 613 l 188 0 l 288 0 l 288 613 l 650 613 l 650 0 l 750 0 l 750 821 b 471 1121 750 1004 647 1115 b 188 821 292 1121 188 1010 l 188 694 l 42 694 z "},"ª":{"ha":636,"x_min":0,"x_max":0,"o":"m 288 913 b 436 757 379 913 435 864 l 286 756 b 64 572 163 754 64 689 b 246 418 64 488 128 418 b 436 533 340 418 403 457 b 489 429 443 492 458 454 l 608 429 b 529 758 499 485 529 646 b 289 985 529 910 433 985 b 61 821 168 985 76 914 l 157 735 b 288 913 124 857 210 913 z m 154 581 b 286 682 154 653 206 681 l 433 685 l 432 649 b 257 489 424 590 376 489 b 154 581 194 489 154 528 z "},"º":{"ha":675,"x_min":0,"x_max":0,"o":"m 338 421 b 621 700 510 421 621 539 b 338 979 621 861 510 979 b 54 700 165 979 54 861 b 338 421 54 539 165 421 z m 338 496 b 147 700 228 496 147 582 b 338 904 147 819 228 904 b 528 700 447 904 528 819 b 338 496 528 582 447 496 z "},"Ω":{"ha":1150,"x_min":0,"x_max":0,"o":"m 90 0 l 490 0 l 490 90 b 190 490 311 132 190 288 b 575 900 190 729 351 900 b 960 490 799 900 960 729 b 660 90 960 288 839 132 l 660 0 l 1060 0 l 1060 90 l 819 90 b 1064 499 974 165 1064 310 b 575 990 1064 778 872 990 b 86 499 278 990 86 778 b 329 90 86 310 176 165 l 90 90 z "},"π":{"ha":860,"x_min":0,"x_max":0,"o":"m 818 694 l 54 694 l 54 613 l 225 613 l 225 0 l 325 0 l 325 613 l 533 613 l 533 171 b 692 -8 533 60 594 -8 b 808 35 725 -8 774 4 l 808 158 b 703 81 774 93 736 81 b 633 185 658 81 633 113 l 633 613 l 818 613 z "},"⓿":{"ha":1206,"x_min":0,"x_max":0,"o":"m 603 -33 b 1133 490 901 -33 1133 199 b 603 1014 1133 782 901 1014 b 72 490 304 1014 72 782 b 603 -33 72 199 304 -33 z m 603 210 b 386 488 467 210 386 314 b 603 765 386 661 467 765 b 819 488 739 765 819 661 b 603 210 819 314 739 210 z m 603 257 b 764 488 703 257 764 346 b 603 718 764 631 703 718 b 442 488 503 718 442 631 b 603 257 442 346 503 257 z "},"❶":{"ha":1206,"x_min":0,"x_max":0,"o":"m 603 -33 b 1133 490 901 -33 1133 199 b 603 1014 1133 782 901 1014 b 72 490 304 1014 72 782 b 603 -33 72 199 304 -33 z m 581 221 l 581 694 l 486 608 l 486 669 l 586 761 l 635 761 l 635 221 z "},"❷":{"ha":1206,"x_min":0,"x_max":0,"o":"m 603 -33 b 1133 490 901 -33 1133 199 b 603 1014 1133 782 901 1014 b 72 490 304 1014 72 782 b 603 -33 72 199 304 -33 z m 417 257 b 736 611 417 492 736 443 b 610 725 736 688 676 725 b 461 565 538 725 457 679 l 410 625 b 610 769 431 717 501 769 b 794 611 713 769 794 718 b 475 268 794 406 476 457 l 797 268 l 797 219 l 417 219 z "},"❸":{"ha":1206,"x_min":0,"x_max":0,"o":"m 603 -33 b 1133 490 901 -33 1133 199 b 603 1014 1133 782 901 1014 b 72 490 304 1014 72 782 b 603 -33 72 199 304 -33 z m 604 526 b 708 619 667 526 708 563 b 594 719 708 683 656 719 b 458 564 529 719 454 674 l 407 625 b 594 763 426 713 493 763 b 765 619 690 763 765 714 b 683 506 765 565 735 525 b 789 365 749 483 789 433 b 594 203 789 258 701 203 b 389 347 481 203 408 256 l 440 408 b 594 247 436 294 517 247 b 732 369 664 247 732 289 b 604 479 732 435 681 479 z m 529 526 l 603 526 l 603 479 l 529 479 z "},"❹":{"ha":1206,"x_min":0,"x_max":0,"o":"m 603 -33 b 1133 490 901 -33 1133 199 b 603 1014 1133 782 901 1014 b 72 490 304 1014 72 782 b 603 -33 72 199 304 -33 z m 632 219 l 632 379 l 367 379 l 367 422 l 599 761 l 688 761 l 688 424 l 821 424 l 821 379 l 688 379 l 688 219 z m 426 424 l 632 424 l 632 721 z "},"❺":{"ha":1206,"x_min":0,"x_max":0,"o":"m 603 -33 b 1133 490 901 -33 1133 199 b 603 1014 1133 782 901 1014 b 72 490 304 1014 72 782 b 603 -33 72 199 304 -33 z m 465 444 l 422 447 l 433 753 l 779 753 l 779 703 l 482 703 l 475 508 b 619 582 510 563 565 582 b 806 397 732 582 806 508 b 603 203 806 279 725 203 b 406 347 504 203 429 256 l 457 408 b 607 250 457 296 538 250 b 749 397 690 250 749 310 b 607 536 749 479 690 536 b 465 444 538 536 492 500 z "},"❻":{"ha":1206,"x_min":0,"x_max":0,"o":"m 603 -33 b 1133 490 901 -33 1133 199 b 603 1014 1133 782 901 1014 b 72 490 304 1014 72 782 b 603 -33 72 199 304 -33 z m 604 207 b 386 478 464 207 386 322 b 608 763 386 647 471 763 b 792 675 688 763 757 732 l 757 606 b 608 715 738 679 675 715 b 442 486 508 715 442 618 b 443 451 442 474 442 463 b 611 571 465 524 524 571 b 800 394 724 571 800 500 b 604 207 800 286 724 207 z m 464 390 b 604 254 464 310 525 254 b 744 390 685 254 744 311 b 604 525 744 468 685 525 b 464 390 524 525 464 468 z "},"❼":{"ha":1206,"x_min":0,"x_max":0,"o":"m 603 -33 b 1133 490 901 -33 1133 199 b 603 1014 1133 782 901 1014 b 72 490 304 1014 72 782 b 603 -33 72 199 304 -33 z m 488 219 l 738 711 l 431 711 l 431 761 l 797 761 l 797 719 l 544 219 z "},"❽":{"ha":1206,"x_min":0,"x_max":0,"o":"m 603 -33 b 1133 490 901 -33 1133 199 b 603 1014 1133 782 901 1014 b 72 490 304 1014 72 782 b 603 -33 72 199 304 -33 z m 603 526 b 726 619 681 526 726 563 b 603 717 726 682 669 717 b 479 619 536 717 479 682 b 603 526 479 563 525 526 z m 603 479 b 456 365 511 479 456 431 b 603 247 456 286 526 247 b 750 365 679 247 750 286 b 603 479 750 431 694 479 z m 400 365 b 515 504 400 431 442 482 b 424 619 457 524 424 564 b 603 763 424 714 501 763 b 782 619 704 763 782 714 b 690 504 782 564 749 524 b 806 365 764 482 806 431 b 603 203 806 254 714 203 b 400 365 492 203 400 254 z "},"❾":{"ha":1206,"x_min":0,"x_max":0,"o":"m 603 -33 b 1133 490 901 -33 1133 199 b 603 1014 1133 782 901 1014 b 72 490 304 1014 72 782 b 603 -33 72 199 304 -33 z m 601 767 b 821 493 743 767 821 649 b 597 207 821 325 736 207 b 413 296 519 207 447 239 l 449 369 b 597 258 467 294 529 258 b 763 486 696 258 763 353 b 761 513 763 494 763 503 b 594 400 739 444 679 400 b 406 578 482 400 406 472 b 601 767 406 686 482 767 z m 740 582 b 601 715 740 661 681 715 b 463 582 521 715 463 660 b 601 449 463 504 521 449 b 740 582 682 449 740 504 z "},"⓪":{"ha":1206,"x_min":0,"x_max":0,"o":"m 603 14 b 128 490 336 14 128 222 b 603 967 128 758 336 967 b 1078 490 869 967 1078 758 b 603 14 1078 222 869 14 z m 603 -35 b 1133 490 900 -35 1133 197 b 603 1015 1133 783 900 1015 b 72 490 306 1015 72 783 b 603 -35 72 197 306 -35 z m 603 214 b 819 492 739 214 819 318 b 603 769 819 665 739 769 b 386 492 467 769 386 665 b 603 214 386 318 467 214 z m 603 261 b 442 492 503 261 442 350 b 603 722 442 635 503 722 b 764 492 703 722 764 635 b 603 261 764 350 703 261 z "},"①":{"ha":1206,"x_min":0,"x_max":0,"o":"m 603 14 b 128 490 336 14 128 222 b 603 967 128 758 336 967 b 1078 490 869 967 1078 758 b 603 14 1078 222 869 14 z m 603 -35 b 1133 490 900 -35 1133 197 b 603 1015 1133 783 900 1015 b 72 490 306 1015 72 783 b 603 -35 72 197 306 -35 z m 581 225 l 635 225 l 635 765 l 586 765 l 486 674 l 486 613 l 581 699 z "},"②":{"ha":1206,"x_min":0,"x_max":0,"o":"m 603 14 b 128 490 336 14 128 222 b 603 967 128 758 336 967 b 1078 490 869 967 1078 758 b 603 14 1078 222 869 14 z m 603 -35 b 1133 490 900 -35 1133 197 b 603 1015 1133 783 900 1015 b 72 490 306 1015 72 783 b 603 -35 72 197 306 -35 z m 417 261 l 417 224 l 797 224 l 797 272 l 475 272 b 794 615 476 461 794 410 b 610 774 794 722 713 774 b 410 629 501 774 431 721 l 461 569 b 610 729 457 683 538 729 b 736 615 676 729 736 692 b 417 261 736 447 417 496 z "},"③":{"ha":1206,"x_min":0,"x_max":0,"o":"m 603 14 b 128 490 336 14 128 222 b 603 967 128 758 336 967 b 1078 490 869 967 1078 758 b 603 14 1078 222 869 14 z m 603 -35 b 1133 490 900 -35 1133 197 b 603 1015 1133 783 900 1015 b 72 490 306 1015 72 783 b 603 -35 72 197 306 -35 z m 604 531 l 604 483 b 732 374 681 483 732 439 b 594 251 732 293 664 251 b 440 413 517 251 436 299 l 389 351 b 594 207 408 260 481 207 b 789 369 701 207 789 263 b 683 510 789 438 749 488 b 765 624 735 529 765 569 b 594 767 765 718 690 767 b 407 629 493 767 426 717 l 458 568 b 594 724 454 678 529 724 b 708 624 656 724 708 688 b 604 531 708 567 667 531 z m 529 531 l 529 483 l 603 483 l 603 531 z "},"④":{"ha":1206,"x_min":0,"x_max":0,"o":"m 603 14 b 128 490 336 14 128 222 b 603 967 128 758 336 967 b 1078 490 869 967 1078 758 b 603 14 1078 222 869 14 z m 603 -35 b 1133 490 900 -35 1133 197 b 603 1015 1133 783 900 1015 b 72 490 306 1015 72 783 b 603 -35 72 197 306 -35 z m 632 224 l 688 224 l 688 383 l 821 383 l 821 428 l 688 428 l 688 765 l 599 765 l 367 426 l 367 383 l 632 383 z m 426 428 l 632 725 l 632 428 z "},"⑤":{"ha":1206,"x_min":0,"x_max":0,"o":"m 603 14 b 128 490 336 14 128 222 b 603 967 128 758 336 967 b 1078 490 869 967 1078 758 b 603 14 1078 222 869 14 z m 603 -35 b 1133 490 900 -35 1133 197 b 603 1015 1133 783 900 1015 b 72 490 306 1015 72 783 b 603 -35 72 197 306 -35 z m 465 449 b 607 540 492 504 538 540 b 749 401 690 540 749 483 b 607 254 749 314 690 254 b 457 413 538 254 457 300 l 406 351 b 603 207 429 260 504 207 b 806 401 725 207 806 283 b 619 586 806 513 732 586 b 475 513 565 586 510 567 l 482 707 l 779 707 l 779 757 l 433 757 l 422 451 z "},"⑥":{"ha":1206,"x_min":0,"x_max":0,"o":"m 603 14 b 128 490 336 14 128 222 b 603 967 128 758 336 967 b 1078 490 869 967 1078 758 b 603 14 1078 222 869 14 z m 603 -35 b 1133 490 900 -35 1133 197 b 603 1015 1133 783 900 1015 b 72 490 306 1015 72 783 b 603 -35 72 197 306 -35 z m 604 211 b 800 399 724 211 800 290 b 611 575 800 504 724 575 b 443 456 524 575 465 528 b 442 490 442 467 442 478 b 608 719 442 622 508 719 b 757 610 675 719 738 683 l 792 679 b 608 767 757 736 688 767 b 386 482 471 767 386 651 b 604 211 386 326 464 211 z m 464 394 b 604 529 464 472 524 529 b 744 394 685 529 744 472 b 604 258 744 315 685 258 b 464 394 525 258 464 314 z "},"⑦":{"ha":1206,"x_min":0,"x_max":0,"o":"m 603 14 b 128 490 336 14 128 222 b 603 967 128 758 336 967 b 1078 490 869 967 1078 758 b 603 14 1078 222 869 14 z m 603 -35 b 1133 490 900 -35 1133 197 b 603 1015 1133 783 900 1015 b 72 490 306 1015 72 783 b 603 -35 72 197 306 -35 z m 488 224 l 544 224 l 797 724 l 797 765 l 431 765 l 431 715 l 738 715 z "},"⑧":{"ha":1206,"x_min":0,"x_max":0,"o":"m 603 14 b 128 490 336 14 128 222 b 603 967 128 758 336 967 b 1078 490 869 967 1078 758 b 603 14 1078 222 869 14 z m 603 -35 b 1133 490 900 -35 1133 197 b 603 1015 1133 783 900 1015 b 72 490 306 1015 72 783 b 603 -35 72 197 306 -35 z m 603 531 b 479 624 525 531 479 567 b 603 721 479 686 536 721 b 726 624 669 721 726 686 b 603 531 726 567 681 531 z m 603 483 b 750 369 694 483 750 435 b 603 251 750 290 679 251 b 456 369 526 251 456 290 b 603 483 456 435 511 483 z m 400 369 b 603 207 400 258 492 207 b 806 369 714 207 806 258 b 690 508 806 435 764 486 b 782 624 749 528 782 568 b 603 767 782 718 704 767 b 424 624 501 767 424 718 b 515 508 424 568 457 528 b 400 369 442 486 400 435 z "},"⑨":{"ha":1206,"x_min":0,"x_max":0,"o":"m 603 14 b 128 490 336 14 128 222 b 603 967 128 758 336 967 b 1078 490 869 967 1078 758 b 603 14 1078 222 869 14 z m 603 -35 b 1133 490 900 -35 1133 197 b 603 1015 1133 783 900 1015 b 72 490 306 1015 72 783 b 603 -35 72 197 306 -35 z m 601 771 b 406 582 482 771 406 690 b 594 404 406 476 482 404 b 761 517 679 404 739 449 l 763 490 b 597 263 763 357 696 263 b 449 374 529 263 467 299 l 413 300 b 597 211 447 243 519 211 b 821 497 736 211 821 329 b 601 771 821 653 743 771 z m 740 586 b 601 453 740 508 682 453 b 463 586 521 453 463 508 b 601 719 463 664 521 719 b 740 586 681 719 740 665 z "},"⁄":{"ha":368,"x_min":0,"x_max":0,"o":"m -181 0 l -122 0 l 549 972 l 490 972 z "},"½":{"ha":1121,"x_min":0,"x_max":0,"o":"m 138 431 l 192 431 l 192 971 l 143 971 l 43 879 l 43 818 l 138 904 z m 103 0 l 161 0 l 832 972 l 774 972 z m 697 38 l 697 0 l 1078 0 l 1078 49 l 756 49 b 1075 392 757 238 1075 186 b 890 550 1075 499 993 550 b 690 406 782 550 711 497 l 742 346 b 890 506 738 460 818 506 b 1017 392 957 506 1017 468 b 697 38 1017 224 697 272 z "},"¼":{"ha":1088,"x_min":0,"x_max":0,"o":"m 138 431 l 192 431 l 192 971 l 143 971 l 43 879 l 43 818 l 138 904 z m 103 0 l 161 0 l 832 972 l 774 972 z m 869 0 l 925 0 l 925 160 l 1058 160 l 1058 204 l 925 204 l 925 542 l 836 542 l 604 203 l 604 160 l 869 160 z m 664 204 l 869 501 l 869 204 z "},"¾":{"ha":1292,"x_min":0,"x_max":0,"o":"m 258 736 l 258 689 b 386 579 335 689 386 644 b 249 457 386 499 318 457 b 94 618 171 457 90 504 l 43 557 b 249 413 63 465 135 413 b 443 575 356 413 443 468 b 338 715 443 643 403 693 b 419 829 389 735 419 775 b 249 972 419 924 344 972 b 61 835 147 972 81 922 l 113 774 b 249 929 108 883 183 929 b 363 829 310 929 363 893 b 258 736 363 772 321 736 z m 183 736 l 183 689 l 257 689 l 257 736 z m 307 0 l 365 0 l 1036 972 l 978 972 z m 1074 0 l 1129 0 l 1129 160 l 1263 160 l 1263 204 l 1129 204 l 1129 542 l 1040 542 l 808 203 l 808 160 l 1074 160 z m 868 204 l 1074 501 l 1074 204 z "},"⅛":{"ha":1147,"x_min":0,"x_max":0,"o":"m 138 431 l 192 431 l 192 971 l 143 971 l 43 879 l 43 818 l 138 904 z m 103 0 l 161 0 l 832 972 l 774 972 z m 888 307 b 764 400 810 307 764 343 b 888 497 764 463 821 497 b 1011 400 954 497 1011 463 b 888 307 1011 343 965 307 z m 888 260 b 1035 146 979 260 1035 211 b 888 28 1035 67 964 28 b 740 146 811 28 740 67 b 888 260 740 211 796 260 z m 685 146 b 888 -17 685 35 776 -17 b 1090 146 999 -17 1090 35 b 975 285 1090 211 1049 263 b 1067 400 1033 304 1067 344 b 888 543 1067 494 989 543 b 708 400 786 543 708 494 b 800 285 708 344 742 304 b 685 146 726 263 685 211 z "},"⅜":{"ha":1351,"x_min":0,"x_max":0,"o":"m 258 736 l 258 689 b 386 579 335 689 386 644 b 249 457 386 499 318 457 b 94 618 171 457 90 504 l 43 557 b 249 413 63 465 135 413 b 443 575 356 413 443 468 b 338 715 443 643 403 693 b 419 829 389 735 419 775 b 249 972 419 924 344 972 b 61 835 147 972 81 922 l 113 774 b 249 929 108 883 183 929 b 363 829 310 929 363 893 b 258 736 363 772 321 736 z m 183 736 l 183 689 l 257 689 l 257 736 z m 307 0 l 365 0 l 1036 972 l 978 972 z m 1092 307 b 968 400 1014 307 968 343 b 1092 497 968 463 1025 497 b 1215 400 1158 497 1215 463 b 1092 307 1215 343 1169 307 z m 1092 260 b 1239 146 1183 260 1239 211 b 1092 28 1239 67 1168 28 b 944 146 1015 28 944 67 b 1092 260 944 211 1000 260 z m 889 146 b 1092 -17 889 35 981 -17 b 1294 146 1203 -17 1294 35 b 1179 285 1294 211 1253 263 b 1271 400 1238 304 1271 344 b 1092 543 1271 494 1193 543 b 913 400 990 543 913 494 b 1004 285 913 344 946 304 b 889 146 931 263 889 211 z "},"⅝":{"ha":1353,"x_min":0,"x_max":0,"o":"m 117 654 b 258 746 143 710 189 746 b 400 607 342 746 400 689 b 258 460 400 519 342 460 b 108 618 189 460 108 506 l 57 557 b 254 413 81 465 156 413 b 457 607 376 413 457 489 b 271 792 457 718 383 792 b 126 718 217 792 161 772 l 133 913 l 431 913 l 431 963 l 85 963 l 74 657 z m 308 0 l 367 0 l 1038 972 l 979 972 z m 1093 307 b 969 400 1015 307 969 343 b 1093 497 969 463 1026 497 b 1217 400 1160 497 1217 463 b 1093 307 1217 343 1171 307 z m 1093 260 b 1240 146 1185 260 1240 211 b 1093 28 1240 67 1169 28 b 946 146 1017 28 946 67 b 1093 260 946 211 1001 260 z m 890 146 b 1093 -17 890 35 982 -17 b 1296 146 1204 -17 1296 35 b 1181 285 1296 211 1254 263 b 1272 400 1239 304 1272 344 b 1093 543 1272 494 1194 543 b 914 400 992 543 914 494 b 1006 285 914 344 947 304 b 890 146 932 263 890 211 z "},"⅞":{"ha":1174,"x_min":0,"x_max":0,"o":"m 72 429 l 129 429 l 382 929 l 382 971 l 15 971 l 15 921 l 322 921 z m 129 0 l 188 0 l 858 972 l 800 972 z m 914 307 b 790 400 836 307 790 343 b 914 497 790 463 847 497 b 1038 400 981 497 1038 463 b 914 307 1038 343 992 307 z m 914 260 b 1061 146 1006 260 1061 211 b 914 28 1061 67 990 28 b 767 146 838 28 767 67 b 914 260 767 211 822 260 z m 711 146 b 914 -17 711 35 803 -17 b 1117 146 1025 -17 1117 35 b 1001 285 1117 211 1075 263 b 1093 400 1060 304 1093 344 b 914 543 1093 494 1015 543 b 735 400 813 543 735 494 b 826 285 735 344 768 304 b 711 146 753 263 711 211 z "},"₀":{"ha":547,"x_min":0,"x_max":0,"o":"m 274 -287 b 490 -10 410 -287 490 -183 b 274 268 490 164 410 268 b 57 -10 138 268 57 164 b 274 -287 57 -183 138 -287 z m 274 -240 b 113 -10 174 -240 113 -151 b 274 221 113 133 174 221 b 435 -10 374 221 435 133 b 274 -240 435 -151 374 -240 z "},"₁":{"ha":290,"x_min":0,"x_max":0,"o":"m 138 -276 l 192 -276 l 192 264 l 143 264 l 43 172 l 43 111 l 138 197 z "},"₂":{"ha":488,"x_min":0,"x_max":0,"o":"m 64 -240 l 64 -278 l 444 -278 l 444 -229 l 122 -229 b 442 114 124 -40 442 -92 b 257 272 442 221 360 272 b 57 128 149 272 78 219 l 108 68 b 257 228 104 182 185 228 b 383 114 324 228 383 190 b 64 -240 383 -54 64 -6 z "},"₃":{"ha":500,"x_min":0,"x_max":0,"o":"m 258 29 l 258 -18 b 386 -128 335 -18 386 -62 b 249 -250 386 -208 318 -250 b 94 -89 171 -250 90 -203 l 43 -150 b 249 -294 63 -242 135 -294 b 443 -132 356 -294 443 -239 b 338 8 443 -64 403 -14 b 419 122 389 28 419 68 b 249 265 419 217 344 265 b 61 128 147 265 81 215 l 113 67 b 249 222 108 176 183 222 b 363 122 310 222 363 186 b 258 29 363 65 321 29 z m 183 29 l 183 -18 l 257 -18 l 257 29 z "},"₄":{"ha":513,"x_min":0,"x_max":0,"o":"m 294 -278 l 350 -278 l 350 -118 l 483 -118 l 483 -74 l 350 -74 l 350 264 l 261 264 l 29 -75 l 29 -118 l 294 -118 z m 89 -74 l 294 224 l 294 -74 z "},"₅":{"ha":500,"x_min":0,"x_max":0,"o":"m 117 -53 b 258 39 143 3 189 39 b 400 -100 342 39 400 -18 b 258 -247 400 -187 342 -247 b 108 -89 189 -247 108 -201 l 57 -150 b 254 -294 81 -242 156 -294 b 457 -100 376 -294 457 -218 b 271 85 457 11 383 85 b 126 11 217 85 161 65 l 133 206 l 431 206 l 431 256 l 85 256 l 74 -50 z "},"₆":{"ha":500,"x_min":0,"x_max":0,"o":"m 261 -290 b 457 -103 381 -290 457 -211 b 268 74 457 3 381 74 b 100 -46 181 74 122 26 b 99 -11 99 -35 99 -24 b 265 218 99 121 165 218 b 414 108 332 218 394 182 l 449 178 b 265 265 414 235 344 265 b 43 -19 128 265 43 150 b 261 -290 43 -175 121 -290 z m 121 -107 b 261 28 121 -29 181 28 b 401 -107 342 28 401 -29 b 261 -243 401 -186 342 -243 b 121 -107 182 -243 121 -187 z "},"₇":{"ha":383,"x_min":0,"x_max":0,"o":"m 72 -278 l 129 -278 l 382 222 l 382 264 l 15 264 l 15 214 l 322 214 z "},"₈":{"ha":519,"x_min":0,"x_max":0,"o":"m 260 29 b 136 122 182 29 136 65 b 260 219 136 185 193 219 b 383 122 326 219 383 185 b 260 29 383 65 338 29 z m 260 -18 b 407 -132 351 -18 407 -67 b 260 -250 407 -211 336 -250 b 113 -132 183 -250 113 -211 b 260 -18 113 -67 168 -18 z m 57 -132 b 260 -294 57 -243 149 -294 b 463 -132 371 -294 463 -243 b 347 7 463 -67 421 -15 b 439 122 406 26 439 67 b 260 265 439 217 361 265 b 81 122 158 265 81 217 b 172 7 81 67 114 26 b 57 -132 99 -15 57 -67 z "},"₉":{"ha":526,"x_min":0,"x_max":0,"o":"m 251 269 b 56 81 132 269 56 189 b 244 -97 56 -25 132 -97 b 411 15 329 -97 389 -53 l 413 -11 b 247 -239 413 -144 346 -239 b 99 -128 179 -239 117 -203 l 63 -201 b 247 -290 97 -258 169 -290 b 471 -4 386 -290 471 -172 b 251 269 471 151 393 269 z m 390 85 b 251 -49 390 7 332 -49 b 113 85 171 -49 113 7 b 251 218 113 163 171 218 b 390 85 331 218 390 164 z "},"⁰":{"ha":547,"x_min":0,"x_max":0,"o":"m 274 697 b 490 975 410 697 490 801 b 274 1253 490 1149 410 1253 b 57 975 138 1253 57 1149 b 274 697 57 801 138 697 z m 274 744 b 113 975 174 744 113 833 b 274 1206 113 1118 174 1206 b 435 975 374 1206 435 1118 b 274 744 435 833 374 744 z "},"¹":{"ha":290,"x_min":0,"x_max":0,"o":"m 138 708 l 192 708 l 192 1249 l 143 1249 l 43 1157 l 43 1096 l 138 1182 z "},"²":{"ha":488,"x_min":0,"x_max":0,"o":"m 64 744 l 64 707 l 444 707 l 444 756 l 122 756 b 442 1099 124 944 442 893 b 257 1257 442 1206 360 1257 b 57 1113 149 1257 78 1204 l 108 1053 b 257 1213 104 1167 185 1213 b 383 1099 324 1213 383 1175 b 64 744 383 931 64 979 z "},"³":{"ha":500,"x_min":0,"x_max":0,"o":"m 258 1014 l 258 967 b 386 857 335 967 386 922 b 249 735 386 776 318 735 b 94 896 171 735 90 782 l 43 835 b 249 690 63 743 135 690 b 443 853 356 690 443 746 b 338 993 443 921 403 971 b 419 1107 389 1013 419 1053 b 249 1250 419 1201 344 1250 b 61 1113 147 1250 81 1200 l 113 1051 b 249 1207 108 1161 183 1207 b 363 1107 310 1207 363 1171 b 258 1014 363 1050 321 1014 z m 183 1014 l 183 967 l 257 967 l 257 1014 z "},"⁴":{"ha":513,"x_min":0,"x_max":0,"o":"m 294 707 l 350 707 l 350 867 l 483 867 l 483 911 l 350 911 l 350 1249 l 261 1249 l 29 910 l 29 867 l 294 867 z m 89 911 l 294 1208 l 294 911 z "},"⁵":{"ha":500,"x_min":0,"x_max":0,"o":"m 117 932 b 258 1024 143 988 189 1024 b 400 885 342 1024 400 967 b 258 738 400 797 342 738 b 108 896 189 738 108 783 l 57 835 b 254 690 81 743 156 690 b 457 885 376 690 457 767 b 271 1069 457 996 383 1069 b 126 996 217 1069 161 1050 l 133 1190 l 431 1190 l 431 1240 l 85 1240 l 74 935 z "},"⁶":{"ha":500,"x_min":0,"x_max":0,"o":"m 261 694 b 457 882 381 694 457 774 b 268 1058 457 988 381 1058 b 100 939 181 1058 122 1011 b 99 974 99 950 99 961 b 265 1203 99 1106 165 1203 b 414 1093 332 1203 394 1167 l 449 1163 b 265 1250 414 1219 344 1250 b 43 965 128 1250 43 1135 b 261 694 43 810 121 694 z m 121 878 b 261 1013 121 956 181 1013 b 401 878 342 1013 401 956 b 261 742 401 799 342 742 b 121 878 182 742 121 797 z "},"⁷":{"ha":383,"x_min":0,"x_max":0,"o":"m 72 707 l 129 707 l 382 1207 l 382 1249 l 15 1249 l 15 1199 l 322 1199 z "},"⁸":{"ha":519,"x_min":0,"x_max":0,"o":"m 260 1014 b 136 1107 182 1014 136 1050 b 260 1204 136 1169 193 1204 b 383 1107 326 1204 383 1169 b 260 1014 383 1050 338 1014 z m 260 967 b 407 853 351 967 407 918 b 260 735 407 774 336 735 b 113 853 183 735 113 774 b 260 967 113 918 168 967 z m 57 853 b 260 690 57 742 149 690 b 463 853 371 690 463 742 b 347 992 463 918 421 969 b 439 1107 406 1011 439 1051 b 260 1250 439 1201 361 1250 b 81 1107 158 1250 81 1201 b 172 992 81 1051 114 1011 b 57 853 99 969 57 918 z "},"⁹":{"ha":526,"x_min":0,"x_max":0,"o":"m 251 1254 b 56 1065 132 1254 56 1174 b 244 888 56 960 132 888 b 411 1000 329 888 389 932 l 413 974 b 247 746 413 840 346 746 b 99 857 179 746 117 782 l 63 783 b 247 694 97 726 169 694 b 471 981 386 694 471 813 b 251 1254 471 1136 393 1254 z m 390 1069 b 251 936 390 992 332 936 b 113 1069 171 936 113 992 b 251 1203 113 1147 171 1203 b 390 1069 331 1203 390 1149 z "}," ":{"ha":278,"x_min":0,"x_max":0,"o":""},"﴾":{"ha":868,"x_min":0,"x_max":0,"o":"m 297 338 l 297 139 l 349 139 l 349 338 b 324 333 340 335 332 333 b 297 338 314 333 306 335 z m 263 475 l 92 574 l 69 533 l 240 435 b 263 475 243 450 251 464 z m 550 574 l 382 476 b 404 436 393 465 401 451 l 572 533 z m 242 396 l 69 296 l 92 256 l 265 356 b 242 396 254 367 246 381 z m 297 497 b 324 501 306 500 314 501 b 349 497 332 501 340 500 l 349 694 l 297 694 z m 379 354 l 550 256 l 572 296 l 403 393 b 379 354 399 378 390 365 z m 815 1088 l 815 1135 b 303 764 592 1115 403 975 l 358 764 b 815 1088 453 950 619 1071 z m 358 69 l 303 69 b 815 -301 403 -142 592 -282 l 815 -254 b 358 69 619 -237 453 -117 z "},"﴿":{"ha":868,"x_min":0,"x_max":0,"o":"m 571 496 l 571 694 l 519 694 l 519 496 b 544 500 528 499 536 500 b 571 496 554 500 563 499 z m 606 358 l 776 260 l 799 300 l 628 399 b 606 358 625 383 617 369 z m 318 260 l 486 357 b 464 397 475 368 467 382 l 296 300 z m 626 438 l 799 538 l 776 578 l 603 478 b 626 438 614 467 622 453 z m 571 336 b 544 332 563 333 554 332 b 519 336 536 332 528 333 l 519 139 l 571 139 z m 489 479 l 318 578 l 296 538 l 465 440 b 489 479 469 456 478 468 z m 53 -254 l 53 -301 b 565 69 276 -282 465 -142 l 510 69 b 53 -254 415 -117 249 -237 z m 510 764 l 565 764 b 53 1135 465 975 276 1115 l 53 1088 b 510 764 249 1071 415 950 z "},".":{"ha":383,"x_min":0,"x_max":0,"o":"m 118 0 l 265 0 l 265 146 l 118 146 z "},",":{"ha":408,"x_min":0,"x_max":0,"o":"m 143 0 l 208 0 b 118 -208 208 -86 201 -139 l 228 -208 b 290 14 283 -139 290 -90 l 290 146 l 143 146 z "},":":{"ha":383,"x_min":0,"x_max":0,"o":"m 118 0 l 265 0 l 265 146 l 118 146 z m 118 551 l 265 551 l 265 697 l 118 697 z "},";":{"ha":408,"x_min":0,"x_max":0,"o":"m 143 0 l 208 0 b 118 -208 208 -86 201 -139 l 228 -208 b 290 14 283 -139 290 -90 l 290 146 l 143 146 z m 143 551 l 290 551 l 290 697 l 143 697 z "},"…":{"ha":1050,"x_min":0,"x_max":0,"o":"m 118 0 l 265 0 l 265 146 l 118 146 z m 451 0 l 599 0 l 599 146 l 451 146 z m 785 0 l 932 0 l 932 146 l 785 146 z "},"!":{"ha":383,"x_min":0,"x_max":0,"o":"m 118 0 l 265 0 l 265 146 l 118 146 z m 164 250 l 219 250 l 247 751 l 247 972 l 136 972 l 136 751 z "},"¡":{"ha":383,"x_min":0,"x_max":0,"o":"m 265 694 l 118 694 l 118 549 l 265 549 z m 219 444 l 164 444 l 136 -57 l 136 -278 l 247 -278 l 247 -57 z "},"?":{"ha":653,"x_min":0,"x_max":0,"o":"m 279 253 l 335 253 b 613 738 335 464 613 496 b 335 989 613 889 501 989 b 31 754 181 989 58 894 l 128 639 b 335 904 121 799 204 904 b 508 738 439 904 508 838 b 279 253 508 536 260 524 z m 238 0 l 385 0 l 385 146 l 238 146 z "},"¿":{"ha":653,"x_min":0,"x_max":0,"o":"m 374 442 l 318 442 b 40 -43 318 231 40 199 b 318 -294 40 -194 151 -294 b 622 -60 472 -294 594 -200 l 525 56 b 318 -210 532 -104 449 -210 b 144 -43 214 -210 144 -143 b 374 442 144 158 393 171 z m 415 694 l 268 694 l 268 549 l 415 549 z "},"·":{"ha":383,"x_min":0,"x_max":0,"o":"m 118 292 l 265 292 l 265 438 l 118 438 z "},"•":{"ha":485,"x_min":0,"x_max":0,"o":"m 118 242 l 367 242 l 367 488 l 118 488 z "},"*":{"ha":642,"x_min":0,"x_max":0,"o":"m 297 629 l 297 431 l 349 431 l 349 629 b 324 625 340 626 332 625 b 297 629 314 625 306 626 z m 263 767 l 92 865 l 69 825 l 240 726 b 263 767 243 742 251 756 z m 550 865 l 382 768 b 404 728 393 757 401 743 l 572 825 z m 242 688 l 69 588 l 92 547 l 265 647 b 242 688 254 658 246 672 z m 297 789 b 324 793 306 792 314 793 b 349 789 332 793 340 792 l 349 986 l 297 986 z m 379 646 l 550 547 l 572 588 l 403 685 b 379 646 399 669 390 657 z "},"⁂":{"ha":1308,"x_min":0,"x_max":0,"o":"m 631 629 l 631 431 l 682 431 l 682 629 b 657 625 674 626 665 625 b 631 629 647 625 639 626 z m 596 767 l 425 865 l 403 825 l 574 726 b 596 767 576 742 585 756 z m 883 865 l 715 768 b 738 728 726 757 735 743 l 906 825 z m 575 688 l 403 588 l 425 547 l 599 647 b 575 688 588 658 579 672 z m 631 789 b 657 793 639 792 647 793 b 682 789 665 793 674 792 l 682 986 l 631 986 z m 713 646 l 883 547 l 906 588 l 736 685 b 713 646 732 669 724 657 z m 297 213 l 297 14 l 349 14 l 349 213 b 324 208 340 210 332 208 b 297 213 314 208 306 210 z m 263 350 l 92 449 l 69 408 l 240 310 b 263 350 243 325 251 339 z m 550 449 l 382 351 b 404 311 393 340 401 326 l 572 408 z m 242 271 l 69 171 l 92 131 l 265 231 b 242 271 254 242 246 256 z m 297 372 b 324 376 306 375 314 376 b 349 372 332 376 340 375 l 349 569 l 297 569 z m 379 229 l 550 131 l 572 171 l 403 268 b 379 229 399 253 390 240 z m 964 213 l 964 14 l 1015 14 l 1015 213 b 990 208 1007 210 999 208 b 964 213 981 208 972 210 z m 929 350 l 758 449 l 736 408 l 907 310 b 929 350 910 325 918 339 z m 1217 449 l 1049 351 b 1071 311 1060 340 1068 326 l 1239 408 z m 908 271 l 736 171 l 758 131 l 932 231 b 908 271 921 242 913 256 z m 964 372 b 990 376 972 375 981 376 b 1015 372 999 376 1007 375 l 1015 569 l 964 569 z m 1046 229 l 1217 131 l 1239 171 l 1069 268 b 1046 229 1065 253 1057 240 z "},"‼":{"ha":767,"x_min":0,"x_max":0,"o":"m 118 0 l 265 0 l 265 146 l 118 146 z m 164 250 l 219 250 l 247 751 l 247 972 l 136 972 l 136 751 z m 501 0 l 649 0 l 649 146 l 501 146 z m 547 250 l 603 250 l 631 751 l 631 972 l 519 972 l 519 751 z "},"‽":{"ha":667,"x_min":0,"x_max":0,"o":"m 293 253 l 349 253 l 351 289 b 626 738 381 468 626 510 b 342 989 626 889 513 989 b 31 754 183 989 58 894 l 128 639 b 342 904 121 799 207 904 b 522 738 450 904 522 838 b 365 471 522 611 429 558 l 379 640 l 379 778 l 268 778 l 268 640 z m 251 0 l 399 0 l 399 146 l 251 146 z "},"#":{"ha":881,"x_min":0,"x_max":0,"o":"m 156 0 l 204 0 l 267 314 l 531 314 l 468 0 l 517 0 l 579 314 l 801 314 l 801 356 l 588 356 l 644 642 l 847 642 l 847 683 l 653 683 l 711 972 l 663 972 l 604 683 l 340 683 l 399 972 l 350 972 l 292 683 l 79 683 l 79 642 l 283 642 l 226 356 l 33 356 l 33 314 l 218 314 z m 275 356 l 332 642 l 596 642 l 539 356 z "},"/":{"ha":667,"x_min":0,"x_max":0,"o":"m 28 -278 l 83 -278 l 639 1111 l 583 1111 z "},"\\":{"ha":667,"x_min":0,"x_max":0,"o":"m 639 -278 l 83 1111 l 28 1111 l 583 -278 z "},"-":{"ha":657,"x_min":0,"x_max":0,"o":"m 83 417 l 83 335 l 574 335 l 574 417 z "},"–":{"ha":796,"x_min":0,"x_max":0,"o":"m 83 400 l 83 351 l 713 351 l 713 400 z "},"—":{"ha":935,"x_min":0,"x_max":0,"o":"m 83 400 l 83 351 l 851 351 l 851 400 z "},"_":{"ha":796,"x_min":0,"x_max":0,"o":"m 83 -69 l 83 -118 l 713 -118 l 713 -69 z "},"₍":{"ha":460,"x_min":0,"x_max":0,"o":"m 421 378 l 421 428 b 56 -15 215 410 56 232 b 421 -458 56 -262 215 -440 l 421 -408 b 111 -15 249 -392 111 -237 b 421 378 111 207 249 361 z "},"₎":{"ha":460,"x_min":0,"x_max":0,"o":"m 39 428 l 39 378 b 349 -15 211 361 349 207 b 39 -408 349 -237 211 -392 l 39 -458 b 404 -15 244 -440 404 -262 b 39 428 404 232 244 410 z "},"(":{"ha":693,"x_min":0,"x_max":0,"o":"m 640 1086 l 640 1136 b 53 417 310 1107 53 818 b 640 -303 53 15 310 -274 l 640 -253 b 108 417 343 -226 108 40 b 640 1086 108 793 343 1060 z "},")":{"ha":693,"x_min":0,"x_max":0,"o":"m 53 1136 l 53 1086 b 585 417 350 1060 585 793 b 53 -253 585 40 350 -226 l 53 -303 b 640 417 383 -274 640 15 b 53 1136 640 818 383 1107 z "},"{":{"ha":722,"x_min":0,"x_max":0,"o":"m 604 1067 l 604 1117 b 133 690 328 1149 133 975 b 201 421 133 588 158 493 b 133 150 158 347 133 251 b 604 -278 133 -135 329 -308 l 604 -228 b 189 150 360 -258 189 -110 b 236 371 189 233 207 310 b 433 272 288 310 356 272 b 604 421 535 272 604 336 b 435 569 604 506 535 569 b 236 469 356 569 288 532 b 189 690 207 531 189 607 b 604 1067 189 950 358 1099 z m 265 421 b 435 521 308 483 368 521 b 549 421 504 521 549 481 b 433 321 549 361 504 321 b 265 421 368 321 308 358 z "},"}":{"ha":722,"x_min":0,"x_max":0,"o":"m 118 -228 l 118 -278 b 589 149 394 -310 589 -136 b 521 419 589 251 564 346 b 589 689 564 493 589 588 b 118 1117 589 974 393 1147 l 118 1067 b 533 689 363 1097 533 949 b 486 468 533 606 515 529 b 289 568 435 531 367 568 b 118 418 188 568 118 503 b 288 271 118 333 188 271 b 486 371 365 271 435 308 b 533 149 515 308 533 232 b 118 -228 533 -111 364 -260 z m 174 418 b 289 519 174 478 218 519 b 457 419 354 519 414 482 b 288 319 414 357 354 319 b 174 418 218 319 174 358 z "},"[":{"ha":599,"x_min":0,"x_max":0,"o":"m 557 -232 l 174 -232 l 174 1065 l 557 1065 l 557 1111 l 118 1111 l 118 -278 l 557 -278 z "},"]":{"ha":599,"x_min":0,"x_max":0,"o":"m 42 1065 l 425 1065 l 425 -232 l 42 -232 l 42 -278 l 481 -278 l 481 1111 l 42 1111 z "},"⁽":{"ha":460,"x_min":0,"x_max":0,"o":"m 421 1357 l 421 1407 b 56 964 215 1389 56 1211 b 421 521 56 717 215 539 l 421 571 b 111 964 249 588 111 742 b 421 1357 111 1186 249 1340 z "},"⁾":{"ha":460,"x_min":0,"x_max":0,"o":"m 39 1407 l 39 1357 b 349 964 211 1340 349 1186 b 39 571 349 742 211 588 l 39 521 b 404 964 244 539 404 717 b 39 1407 404 1211 244 1389 z "},"‚":{"ha":408,"x_min":0,"x_max":0,"o":"m 143 0 l 208 0 b 118 -208 208 -86 201 -139 l 228 -208 b 290 14 283 -139 290 -90 l 290 146 l 143 146 z "},"„":{"ha":658,"x_min":0,"x_max":0,"o":"m 143 0 l 208 0 b 118 -208 208 -86 201 -139 l 228 -208 b 290 14 283 -139 290 -90 l 290 146 l 143 146 z m 393 0 l 458 0 b 368 -208 458 -86 451 -139 l 478 -208 b 540 14 533 -139 540 -90 l 540 146 l 393 146 z "},"“":{"ha":658,"x_min":0,"x_max":0,"o":"m 265 768 l 200 768 b 290 976 200 854 207 907 l 181 976 b 118 754 125 907 118 858 l 118 622 l 265 622 z m 515 768 l 450 768 b 540 976 450 854 457 907 l 431 976 b 368 754 375 907 368 858 l 368 622 l 515 622 z "},"”":{"ha":658,"x_min":0,"x_max":0,"o":"m 143 826 l 208 826 b 118 618 208 740 201 688 l 228 618 b 290 840 283 688 290 736 l 290 972 l 143 972 z m 393 826 l 458 826 b 368 618 458 740 451 688 l 478 618 b 540 840 533 688 540 736 l 540 972 l 393 972 z "},"‘":{"ha":408,"x_min":0,"x_max":0,"o":"m 265 768 l 200 768 b 290 976 200 854 207 907 l 181 976 b 118 754 125 907 118 858 l 118 622 l 265 622 z "},"’":{"ha":408,"x_min":0,"x_max":0,"o":"m 143 826 l 208 826 b 118 618 208 740 201 688 l 228 618 b 290 840 283 688 290 736 l 290 972 l 143 972 z "},"«":{"ha":892,"x_min":0,"x_max":0,"o":"m 447 532 l 447 626 l 83 403 l 83 318 l 447 94 l 447 188 l 165 360 z m 808 532 l 808 626 l 444 403 l 444 318 l 808 94 l 808 188 l 526 360 z "},"»":{"ha":892,"x_min":0,"x_max":0,"o":"m 444 189 l 444 94 l 808 318 l 808 403 l 444 626 l 444 533 l 726 361 z m 83 189 l 83 94 l 447 318 l 447 403 l 83 626 l 83 533 l 365 361 z "},"‹":{"ha":531,"x_min":0,"x_max":0,"o":"m 447 532 l 447 626 l 83 403 l 83 318 l 447 94 l 447 188 l 165 360 z "},"›":{"ha":531,"x_min":0,"x_max":0,"o":"m 83 189 l 83 94 l 447 318 l 447 403 l 83 626 l 83 533 l 365 361 z "},"\"":{"ha":590,"x_min":0,"x_max":0,"o":"m 157 599 l 213 599 l 250 972 l 118 972 z m 379 599 l 435 599 l 472 972 l 340 972 z "},"'":{"ha":368,"x_min":0,"x_max":0,"o":"m 157 599 l 213 599 l 250 972 l 118 972 z "},"ƒ":{"ha":922,"x_min":0,"x_max":0,"o":"m 411 724 l 411 549 l 183 549 l 183 467 l 411 467 l 411 260 b 257 69 411 131 351 69 b 121 261 186 69 107 132 l 28 169 b 258 -12 44 65 136 -12 b 511 246 410 -12 511 76 l 511 467 l 743 467 l 743 549 l 511 549 l 511 710 b 665 900 511 839 571 900 b 801 708 736 900 815 838 l 894 800 b 664 982 878 904 786 982 b 411 724 513 982 411 893 z "},"฿":{"ha":922,"x_min":0,"x_max":0,"o":"m 118 0 l 411 0 l 411 -181 l 463 -181 l 463 0 b 825 296 686 0 825 115 b 638 556 825 422 756 513 b 769 749 721 590 769 660 b 489 972 769 892 664 972 l 463 972 l 463 1167 l 411 1167 l 411 972 l 118 972 z m 222 90 l 222 507 l 411 507 l 411 90 z m 222 597 l 222 882 l 411 882 l 411 597 z m 463 90 l 463 507 b 721 296 622 507 721 426 b 463 90 721 168 622 90 z m 463 597 l 463 882 l 489 882 b 665 740 599 882 665 828 b 489 597 665 651 599 597 z "},"☺":{"ha":1206,"x_min":0,"x_max":0,"o":"m 603 14 b 128 490 336 14 128 222 b 603 967 128 758 336 967 b 1078 490 869 967 1078 758 b 603 14 1078 222 869 14 z m 603 -35 b 1133 490 900 -35 1133 197 b 603 1015 1133 783 900 1015 b 72 490 306 1015 72 783 b 603 -35 72 197 306 -35 z m 476 447 b 526 617 508 447 526 510 b 476 786 526 724 508 786 b 426 617 444 786 426 724 b 476 447 426 510 444 447 z m 436 401 l 385 401 b 293 308 385 347 344 308 l 293 260 b 375 285 324 260 351 269 b 597 200 439 222 517 200 b 819 285 678 200 756 222 b 901 260 843 269 871 260 l 901 308 b 811 401 850 308 811 347 l 760 401 b 785 319 760 371 769 343 b 597 249 731 268 668 249 b 410 319 526 249 464 268 b 436 401 426 343 436 371 z m 719 447 b 769 617 751 447 769 510 b 719 786 769 724 751 786 b 669 617 688 786 669 724 b 719 447 669 510 688 447 z "},"":{"ha":1793,"x_min":0,"x_max":0,"o":"m 1751 490 b 1210 1014 1751 782 1524 1014 b 897 921 1089 1014 978 979 b 583 1014 815 979 704 1014 b 42 490 269 1014 42 782 b 583 -32 42 199 269 -32 b 897 60 704 -32 815 3 b 1210 -32 978 3 1089 -32 b 1751 490 1524 -32 1751 199 z m 1696 490 b 1210 14 1696 221 1490 14 b 936 92 1104 14 1007 43 b 1033 299 997 149 1033 219 b 760 299 1033 517 760 517 b 857 92 760 219 796 149 b 583 14 786 43 689 14 b 97 490 303 14 97 221 b 583 968 97 760 303 968 b 857 889 689 968 786 939 b 760 682 796 833 760 761 b 1033 682 760 464 1033 464 b 936 889 1033 761 997 833 b 1210 968 1007 939 1104 968 b 1696 490 1490 968 1696 760 z m 815 299 b 978 299 815 456 978 456 b 896 124 978 232 947 172 b 815 299 846 172 815 232 z m 815 682 b 897 857 815 749 846 808 b 978 682 947 808 978 749 b 815 682 978 525 815 525 z "},"@":{"ha":1233,"x_min":0,"x_max":0,"o":"m 72 351 b 624 -187 72 51 308 -187 b 906 -108 711 -187 815 -168 l 906 -49 b 624 -139 817 -118 715 -139 b 128 350 336 -139 128 72 b 618 839 128 629 339 839 b 1106 358 894 839 1106 635 b 950 113 1106 210 1044 110 b 846 278 867 115 843 197 l 850 419 b 613 656 854 561 758 656 b 371 485 492 656 394 586 l 424 443 b 610 606 428 540 503 606 b 800 421 724 606 800 531 l 606 419 b 375 239 478 418 375 358 b 574 71 375 149 436 71 b 800 200 681 71 758 114 b 954 68 817 122 869 68 b 1161 358 1079 68 1161 183 b 618 890 1161 657 922 890 b 72 351 311 890 72 653 z m 436 246 b 606 369 436 329 503 369 l 799 369 l 797 322 b 581 118 789 257 736 118 b 436 246 489 118 436 169 z "},"&":{"ha":1056,"x_min":0,"x_max":0,"o":"m 450 906 b 579 774 529 906 579 849 b 406 593 579 675 503 633 b 319 769 356 650 319 706 b 450 906 319 847 372 906 z m 90 263 b 413 -12 90 72 240 -12 b 747 132 543 -12 658 39 l 885 1 l 1015 1 l 806 204 b 938 579 872 301 918 428 l 843 690 b 744 264 847 519 810 372 l 519 481 l 468 529 b 675 774 579 578 675 640 b 456 988 675 901 588 988 b 219 761 313 988 219 894 b 311 554 219 683 257 618 b 90 263 197 501 90 415 z m 192 271 b 374 489 192 383 278 446 l 443 422 l 688 189 b 426 74 618 115 529 74 b 192 271 288 74 192 150 z "},"¶":{"ha":754,"x_min":0,"x_max":0,"o":"m 414 972 l 300 972 b 56 757 149 972 56 890 b 300 539 56 621 149 539 l 363 539 l 363 0 l 414 0 z m 585 0 l 636 0 l 636 972 l 585 972 z "},"§":{"ha":713,"x_min":0,"x_max":0,"o":"m 67 482 b 503 176 67 222 503 361 b 361 65 503 104 436 65 b 193 267 265 65 171 128 l 93 175 b 356 -17 117 53 215 -17 b 604 186 488 -17 604 44 b 525 332 604 261 572 304 b 646 488 594 358 646 410 b 210 793 646 747 210 608 b 351 904 210 865 276 904 b 519 703 447 904 542 842 l 619 794 b 357 986 596 917 497 986 b 108 783 225 986 108 925 b 188 638 108 708 140 665 b 67 482 118 611 67 560 z m 168 501 b 253 611 168 554 203 592 b 544 468 379 572 544 585 b 460 358 544 415 510 378 b 168 501 333 397 168 385 z "},"©":{"ha":1206,"x_min":0,"x_max":0,"o":"m 603 14 b 128 490 336 14 128 222 b 603 967 128 758 336 967 b 1078 490 869 967 1078 758 b 603 14 1078 222 869 14 z m 603 -35 b 1133 490 900 -35 1133 197 b 603 1015 1133 783 900 1015 b 72 490 306 1015 72 783 b 603 -35 72 197 306 -35 z m 379 494 b 610 736 379 635 476 736 b 817 604 706 736 783 689 l 851 654 b 610 785 804 736 711 785 b 324 494 444 785 324 663 b 610 204 324 326 444 204 b 851 335 711 204 804 253 l 817 386 b 610 253 783 300 706 253 b 379 494 476 253 379 354 z "},"®":{"ha":721,"x_min":0,"x_max":0,"o":"m 360 401 b 90 675 208 401 90 521 b 360 947 90 829 208 947 b 631 675 511 947 631 829 b 360 401 631 521 511 401 z m 360 360 b 679 675 539 360 679 499 b 360 989 679 851 539 989 b 42 675 181 989 42 851 b 360 360 42 499 181 360 z m 242 525 l 289 525 l 289 671 l 364 671 b 422 617 401 671 422 664 l 422 606 b 447 525 422 575 425 542 l 507 525 b 469 606 472 554 469 578 l 469 615 b 435 688 469 656 458 676 b 485 756 468 699 485 724 b 392 833 485 804 451 833 l 242 833 z m 289 714 l 289 789 l 392 789 b 436 751 421 789 436 776 b 392 714 436 728 421 714 z "},"℗":{"ha":721,"x_min":0,"x_max":0,"o":"m 360 401 b 90 675 208 401 90 521 b 360 947 90 829 208 947 b 631 675 511 947 631 829 b 360 401 631 521 511 401 z m 360 360 b 679 675 539 360 679 499 b 360 989 679 851 539 989 b 42 675 181 989 42 851 b 360 360 42 499 181 360 z m 258 525 l 306 525 l 306 663 l 407 663 b 501 747 464 663 501 697 b 408 833 501 799 464 833 l 258 833 z m 306 706 l 306 789 l 408 789 b 453 747 435 789 453 772 b 408 706 453 722 435 706 z "},"™":{"ha":981,"x_min":0,"x_max":0,"o":"m 415 978 l 28 978 l 28 935 l 193 935 l 193 586 l 243 586 l 243 935 l 415 935 z m 671 672 l 813 914 l 813 586 l 863 586 l 863 978 l 799 978 l 671 757 l 544 978 l 478 978 l 478 586 l 528 586 l 528 914 z "},"°":{"ha":563,"x_min":0,"x_max":0,"o":"m 281 617 b 121 779 192 617 121 688 b 281 942 121 871 192 942 b 442 779 369 942 442 871 b 281 617 442 688 369 617 z m 281 575 b 490 779 397 575 490 665 b 281 983 490 893 397 983 b 72 779 164 983 72 893 b 281 575 72 665 164 575 z "},"′":{"ha":368,"x_min":0,"x_max":0,"o":"m 118 599 l 174 599 l 250 972 l 118 972 z "},"″":{"ha":590,"x_min":0,"x_max":0,"o":"m 118 599 l 174 599 l 250 972 l 118 972 z m 340 599 l 396 599 l 472 972 l 340 972 z "},"|":{"ha":288,"x_min":0,"x_max":0,"o":"m 118 -278 l 169 -278 l 169 1111 l 118 1111 z "},"¦":{"ha":288,"x_min":0,"x_max":0,"o":"m 118 667 l 169 667 l 169 1111 l 118 1111 z m 118 -278 l 169 -278 l 169 167 l 118 167 z "},"†":{"ha":574,"x_min":0,"x_max":0,"o":"m 263 232 l 314 232 l 314 724 l 532 724 l 532 769 l 314 769 l 314 986 l 263 986 l 263 769 l 42 769 l 42 724 l 263 724 z "},"‡":{"ha":907,"x_min":0,"x_max":0,"o":"m 263 232 l 314 232 l 314 724 l 596 724 l 596 232 l 647 232 l 647 724 l 865 724 l 865 769 l 647 769 l 647 986 l 596 986 l 596 769 l 314 769 l 314 986 l 263 986 l 263 769 l 42 769 l 42 724 l 263 724 z "},"¢":{"ha":790,"x_min":0,"x_max":0,"o":"m 164 486 b 396 756 164 626 249 743 l 396 217 b 164 486 249 229 164 346 z m 396 -42 l 447 -42 l 447 129 b 725 269 571 136 672 189 l 669 393 b 447 217 631 282 551 224 l 447 756 b 669 579 551 749 631 690 l 725 703 b 447 843 672 783 571 836 l 447 1014 l 396 1014 l 396 844 b 60 486 186 833 60 688 b 396 128 60 285 186 139 z "},"¤":{"ha":894,"x_min":0,"x_max":0,"o":"m 447 114 b 619 151 513 114 569 128 l 744 0 l 814 0 l 667 179 b 807 472 756 242 807 346 b 651 775 807 604 749 713 l 814 972 l 744 972 l 603 800 b 447 829 557 819 504 829 b 292 800 390 829 338 819 l 150 972 l 81 972 l 243 775 b 88 472 146 713 88 604 b 228 179 88 346 139 242 l 81 0 l 150 0 l 275 151 b 447 114 325 128 382 114 z m 447 201 b 192 472 299 201 192 315 b 447 742 192 629 299 742 b 703 472 596 742 703 629 b 447 201 703 315 596 201 z "},"$":{"ha":875,"x_min":0,"x_max":0,"o":"m 414 -181 l 465 -181 l 465 -14 b 800 263 643 -7 800 78 b 465 563 800 479 622 521 l 465 908 b 664 625 571 892 671 808 l 761 740 b 465 988 731 890 622 976 l 465 1167 l 414 1167 l 414 989 b 124 738 256 983 124 903 b 414 467 124 550 269 504 l 414 71 b 168 369 279 85 161 172 l 71 254 b 414 -14 103 100 219 -4 z m 231 747 b 414 911 231 847 321 906 l 414 576 b 231 747 313 606 231 644 z m 465 69 l 465 454 b 693 257 586 422 693 385 b 465 69 693 138 585 74 z "},"€":{"ha":964,"x_min":0,"x_max":0,"o":"m 900 188 l 833 322 b 558 79 804 172 700 79 b 264 389 397 79 290 194 l 713 389 l 733 438 l 258 438 b 257 490 257 454 257 472 b 260 550 257 511 258 531 l 775 550 l 796 599 l 265 599 b 558 900 293 788 399 900 b 831 668 696 900 799 813 l 896 800 b 558 990 832 918 704 990 b 160 599 338 990 192 844 l 14 599 l 14 550 l 154 550 b 153 490 153 531 153 511 b 154 438 153 472 153 454 l 14 438 l 14 389 l 158 389 b 558 -11 189 139 336 -11 b 900 188 707 -11 838 64 z "},"₲":{"ha":942,"x_min":0,"x_max":0,"o":"m 754 0 l 858 0 l 858 542 l 515 542 l 515 899 b 789 626 646 888 756 793 l 854 758 b 515 989 789 894 671 981 l 515 1167 l 464 1167 l 464 990 b 56 488 214 976 56 772 b 458 -11 56 199 218 -11 l 464 -11 l 464 -181 l 515 -181 l 515 -7 b 754 210 625 11 710 83 z m 160 490 b 464 899 160 718 285 885 l 464 79 b 160 490 283 90 160 258 z m 515 81 l 515 451 l 754 451 l 754 433 b 515 81 751 200 643 96 z "},"₴":{"ha":968,"x_min":0,"x_max":0,"o":"m 58 600 l 58 551 l 910 551 l 910 600 l 747 600 b 803 746 785 638 803 689 b 493 989 803 906 661 989 b 165 740 319 989 199 900 l 263 625 b 499 911 254 831 382 911 b 696 742 597 911 696 854 b 599 600 696 672 657 629 z m 58 447 l 58 399 l 175 399 b 132 256 149 363 132 311 b 490 -14 132 81 292 -14 b 861 254 701 -14 828 93 l 764 369 b 481 69 771 154 629 69 b 239 264 354 69 239 131 b 299 399 239 325 264 369 l 910 399 l 910 447 z "},"₺":{"ha":915,"x_min":0,"x_max":0,"o":"m 217 0 l 318 0 b 860 483 650 0 860 186 l 769 483 b 321 90 769 242 596 90 l 321 453 l 671 592 l 671 644 l 321 506 l 321 629 l 671 768 l 671 821 l 321 682 l 321 972 l 217 972 l 217 640 l 56 576 l 56 524 l 217 588 l 217 464 l 56 400 l 56 347 l 217 411 z "},"₽":{"ha":953,"x_min":0,"x_max":0,"o":"m 575 972 l 218 972 l 218 479 l 56 479 l 56 431 l 218 431 l 218 326 l 56 326 l 56 278 l 218 278 l 218 0 l 322 0 l 322 278 l 643 278 l 643 326 l 322 326 l 322 431 l 575 431 b 897 703 775 431 897 533 b 575 972 897 869 775 972 z m 322 521 l 322 882 l 575 882 b 793 703 710 882 793 814 b 575 521 793 590 710 521 z "},"₹":{"ha":825,"x_min":0,"x_max":0,"o":"m 44 972 l 44 882 l 354 882 b 529 751 454 882 519 833 l 44 751 l 44 703 l 529 703 b 354 576 518 625 454 576 l 44 576 l 44 486 l 261 486 b 478 276 385 486 485 453 l 476 242 b 544 0 472 146 485 51 l 678 0 b 583 242 600 51 583 144 l 583 276 b 457 511 583 411 547 481 b 632 703 563 538 621 607 l 796 703 l 796 751 l 635 751 b 540 924 631 826 599 886 l 796 924 l 796 972 z "},"₪":{"ha":951,"x_min":0,"x_max":0,"o":"m 383 972 l 118 972 l 118 0 l 169 0 l 169 875 l 383 875 b 560 699 497 875 560 813 l 560 278 l 611 278 l 611 704 b 383 972 611 878 531 972 z m 568 0 l 833 0 l 833 972 l 782 972 l 782 97 l 568 97 b 392 274 454 97 392 160 l 392 694 l 340 694 l 340 268 b 568 0 340 94 421 0 z "},"£":{"ha":875,"x_min":0,"x_max":0,"o":"m 103 446 l 103 397 l 283 397 b 332 253 311 353 332 306 l 332 239 b 206 283 299 265 260 283 b 211 -14 -7 283 -11 -14 b 393 88 294 -14 356 29 b 604 -19 438 32 493 -19 b 817 110 649 -19 753 -7 l 768 240 b 576 68 747 135 671 68 b 421 147 504 68 461 104 b 438 247 432 179 438 214 b 403 397 438 306 424 354 l 732 397 l 732 446 l 376 446 b 246 725 321 539 246 614 b 442 904 246 831 324 904 b 678 611 590 904 685 788 l 775 726 b 444 989 744 883 611 989 b 138 719 260 989 138 879 b 251 446 138 604 197 522 z m 204 233 b 322 179 258 233 293 211 b 206 65 306 111 264 65 b 204 233 88 65 88 233 z "},"¥":{"ha":936,"x_min":0,"x_max":0,"o":"m 183 972 l 63 972 l 411 472 l 113 472 l 113 424 l 417 424 l 417 319 l 113 319 l 113 271 l 417 271 l 417 0 l 521 0 l 521 271 l 825 271 l 825 319 l 521 319 l 521 424 l 825 424 l 825 472 l 525 472 l 874 972 l 756 972 l 469 553 z "},"+":{"ha":796,"x_min":0,"x_max":0,"o":"m 83 400 l 83 351 l 374 351 l 374 61 l 422 61 l 422 351 l 713 351 l 713 400 l 422 400 l 422 690 l 374 690 l 374 400 z "},"−":{"ha":796,"x_min":0,"x_max":0,"o":"m 83 400 l 83 351 l 713 351 l 713 400 z "},"×":{"ha":796,"x_min":0,"x_max":0,"o":"m 164 644 l 129 610 l 364 376 l 129 142 l 164 107 l 399 342 l 632 107 l 667 142 l 433 376 l 667 610 l 632 644 l 399 411 z "},"÷":{"ha":796,"x_min":0,"x_max":0,"o":"m 83 400 l 83 351 l 713 351 l 713 400 z m 325 58 l 472 58 l 472 204 l 325 204 z m 325 550 l 472 550 l 472 696 l 325 696 z "},"=":{"ha":796,"x_min":0,"x_max":0,"o":"m 83 247 l 83 199 l 713 199 l 713 247 z m 83 553 l 83 504 l 713 504 l 713 553 z "},"≠":{"ha":796,"x_min":0,"x_max":0,"o":"m 83 247 l 83 199 l 222 199 l 97 49 l 158 49 l 283 199 l 713 199 l 713 247 l 324 247 l 539 504 l 713 504 l 713 553 l 579 553 l 697 694 l 636 694 l 518 553 l 83 553 l 83 504 l 478 504 l 263 247 z "},">":{"ha":796,"x_min":0,"x_max":0,"o":"m 83 181 l 83 129 l 713 351 l 713 400 l 83 622 l 83 571 l 642 376 z "},"<":{"ha":796,"x_min":0,"x_max":0,"o":"m 713 181 l 154 376 l 713 571 l 713 622 l 83 400 l 83 351 l 713 129 z "},"≥":{"ha":796,"x_min":0,"x_max":0,"o":"m 83 278 l 83 226 l 713 449 l 713 497 l 83 719 l 83 668 l 642 474 z m 83 121 l 83 72 l 713 72 l 713 121 z "},"≤":{"ha":796,"x_min":0,"x_max":0,"o":"m 713 278 l 154 474 l 713 668 l 713 719 l 83 497 l 83 449 l 713 226 z m 713 121 l 83 121 l 83 72 l 713 72 z "},"±":{"ha":796,"x_min":0,"x_max":0,"o":"m 83 121 l 83 72 l 713 72 l 713 121 z m 83 497 l 83 449 l 374 449 l 374 228 l 422 228 l 422 449 l 713 449 l 713 497 l 422 497 l 422 718 l 374 718 l 374 497 z "},"≈":{"ha":676,"x_min":0,"x_max":0,"o":"m 619 321 l 569 321 b 496 174 597 204 547 174 b 171 335 376 174 308 335 b 46 142 96 335 17 288 l 96 142 b 164 290 68 260 114 290 b 489 129 279 290 347 129 b 619 321 568 129 649 179 z m 619 582 l 569 582 b 496 435 597 465 547 435 b 171 596 376 435 308 596 b 46 403 96 596 17 549 l 96 403 b 164 551 68 521 114 551 b 489 390 279 551 347 390 b 619 582 568 390 649 440 z "},"~":{"ha":676,"x_min":0,"x_max":0,"o":"m 619 460 l 569 460 b 496 313 597 343 547 313 b 171 474 376 313 308 474 b 46 281 96 474 17 426 l 96 281 b 164 429 68 399 114 429 b 489 268 279 429 347 268 b 619 460 568 268 649 318 z "},"¬":{"ha":796,"x_min":0,"x_max":0,"o":"m 83 400 l 83 351 l 664 351 l 664 135 l 713 135 l 713 400 z "},"^":{"ha":661,"x_min":0,"x_max":0,"o":"m 543 546 l 353 975 l 308 975 l 118 546 l 171 546 l 331 910 l 490 546 z "},"∞":{"ha":1628,"x_min":0,"x_max":0,"o":"m 419 54 b 814 308 574 54 685 163 b 1208 54 943 163 1054 54 b 1492 347 1374 54 1492 179 b 1208 640 1492 515 1374 640 b 814 386 1054 640 943 532 b 419 640 685 532 574 640 b 136 347 254 640 136 515 b 419 54 136 179 254 54 z m 419 100 b 192 347 288 100 192 201 b 419 594 192 493 288 594 b 779 347 550 594 647 496 b 419 100 647 197 550 100 z m 1208 100 b 849 347 1078 100 981 197 b 1208 594 981 496 1078 594 b 1436 347 1340 594 1436 493 b 1208 100 1436 201 1340 100 z "},"∫":{"ha":622,"x_min":0,"x_max":0,"o":"m 615 1067 l 615 1117 b 283 829 419 1154 283 1024 l 283 11 b 7 -228 283 -156 175 -264 l 7 -278 b 339 11 203 -314 339 -183 l 339 829 b 615 1067 339 994 446 1104 z "},"∆":{"ha":907,"x_min":0,"x_max":0,"o":"m 58 0 l 849 0 l 488 972 l 419 972 z m 131 49 l 454 918 l 776 49 z "},"∏":{"ha":1063,"x_min":0,"x_max":0,"o":"m 1035 972 l 28 972 l 28 882 l 261 882 l 261 0 l 365 0 l 365 882 l 697 882 l 697 0 l 801 0 l 801 882 l 1035 882 z "},"∑":{"ha":800,"x_min":0,"x_max":0,"o":"m 56 0 l 772 0 l 772 90 l 183 90 l 486 486 l 183 882 l 772 882 l 772 972 l 56 972 l 56 896 l 369 486 l 56 76 z "},"√":{"ha":1090,"x_min":0,"x_max":0,"o":"m 1063 976 l 608 976 l 289 42 l 288 42 l 68 693 l 14 693 l 250 -7 l 326 -7 l 646 928 l 1063 928 z "},"∂":{"ha":846,"x_min":0,"x_max":0,"o":"m 400 -14 b 753 456 635 -14 753 207 b 231 983 753 818 501 983 l 231 942 b 704 454 450 944 704 808 b 703 403 704 442 704 422 b 396 676 689 564 571 676 b 74 340 203 676 74 540 b 400 -14 74 139 206 -14 z m 674 333 b 403 33 674 157 567 33 b 129 339 242 33 129 156 b 396 631 129 514 232 631 b 674 333 561 631 674 514 z "},"µ":{"ha":796,"x_min":0,"x_max":0,"o":"m 389 61 b 206 269 282 61 206 132 l 206 694 l 104 694 l 104 -278 l 204 -278 l 204 44 b 367 -17 242 4 296 -17 b 593 124 478 -17 553 38 l 593 0 l 693 0 l 693 694 l 593 694 l 593 289 b 389 61 583 142 506 61 z "},"%":{"ha":1207,"x_min":0,"x_max":0,"o":"m 304 453 b 549 718 451 453 549 558 b 304 982 549 876 451 982 b 60 718 157 982 60 876 b 304 453 60 558 157 453 z m 304 501 b 115 718 192 501 115 588 b 304 933 115 849 192 935 b 493 718 417 935 493 849 b 304 501 493 588 417 501 z m 235 0 l 296 0 l 967 972 l 906 972 z m 903 -14 b 1147 251 1050 -14 1147 92 b 903 515 1147 410 1050 515 b 658 251 756 515 658 410 b 903 -14 658 92 756 -14 z m 903 35 b 714 251 790 35 714 121 b 903 467 714 382 790 468 b 1092 251 1015 468 1092 382 b 903 35 1092 121 1015 35 z "},"‰":{"ha":1776,"x_min":0,"x_max":0,"o":"m 304 453 b 549 718 451 453 549 558 b 304 982 549 876 451 982 b 60 718 157 982 60 876 b 304 453 60 558 157 453 z m 304 501 b 115 718 192 501 115 588 b 304 933 115 849 192 935 b 493 718 417 935 493 849 b 304 501 493 588 417 501 z m 235 0 l 296 0 l 967 972 l 906 972 z m 903 -14 b 1147 251 1050 -14 1147 92 b 903 515 1147 410 1050 515 b 658 251 756 515 658 410 b 903 -14 658 92 756 -14 z m 903 35 b 714 251 790 35 714 121 b 903 467 714 382 790 468 b 1092 251 1015 468 1092 382 b 903 35 1092 121 1015 35 z m 1472 -14 b 1717 251 1619 -14 1717 92 b 1472 515 1717 410 1619 515 b 1228 251 1325 515 1228 410 b 1472 -14 1228 92 1325 -14 z m 1472 35 b 1283 251 1360 35 1283 121 b 1472 467 1283 382 1360 468 b 1661 251 1585 468 1661 382 b 1472 35 1661 121 1585 35 z "},"↑":{"ha":614,"x_min":0,"x_max":0,"o":"m 267 0 l 349 0 l 349 779 l 496 779 l 307 1003 l 118 779 l 267 779 z "},"↗":{"ha":708,"x_min":0,"x_max":0,"o":"m 294 972 l 413 854 l 329 771 b 118 261 190 633 118 476 l 118 0 l 200 0 l 200 261 b 383 708 200 436 263 589 l 471 796 l 590 676 l 590 972 z "},"→":{"ha":990,"x_min":0,"x_max":0,"o":"m 83 417 l 83 335 l 697 335 l 697 188 l 921 376 l 697 565 l 697 417 z "},"↘":{"ha":708,"x_min":0,"x_max":0,"o":"m 294 0 l 590 0 l 590 296 l 471 176 l 383 264 b 200 711 263 383 200 536 l 200 972 l 118 972 l 118 711 b 329 201 118 496 190 339 l 413 118 z "},"↓":{"ha":614,"x_min":0,"x_max":0,"o":"m 347 972 l 265 972 l 265 193 l 118 193 l 307 -31 l 496 193 l 347 193 z "},"↙":{"ha":708,"x_min":0,"x_max":0,"o":"m 414 0 l 296 118 l 379 201 b 590 711 518 339 590 496 l 590 972 l 508 972 l 508 711 b 325 264 508 536 446 383 l 238 176 l 118 296 l 118 0 z "},"←":{"ha":990,"x_min":0,"x_max":0,"o":"m 907 417 l 293 417 l 293 565 l 69 376 l 293 188 l 293 335 l 907 335 z "},"↖":{"ha":708,"x_min":0,"x_max":0,"o":"m 414 972 l 118 972 l 118 676 l 238 796 l 325 708 b 508 261 446 589 508 436 l 508 0 l 590 0 l 590 261 b 379 771 590 476 518 633 l 296 854 z "},"↔":{"ha":1172,"x_min":0,"x_max":0,"o":"m 293 188 l 293 335 l 879 335 l 879 188 l 1103 376 l 879 565 l 879 418 l 293 418 l 293 565 l 69 376 z "},"↕":{"ha":614,"x_min":0,"x_max":0,"o":"m 118 779 l 265 779 l 265 193 l 118 193 l 307 -31 l 496 193 l 349 193 l 349 779 l 496 779 l 307 1003 z "},"●":{"ha":1206,"x_min":0,"x_max":0,"o":"m 603 -33 b 1133 490 901 -33 1133 199 b 603 1014 1133 782 901 1014 b 72 490 304 1014 72 782 b 603 -33 72 199 304 -33 z "},"○":{"ha":1206,"x_min":0,"x_max":0,"o":"m 603 14 b 128 490 336 14 128 222 b 603 967 128 758 336 967 b 1078 490 869 967 1078 758 b 603 14 1078 222 869 14 z m 603 -35 b 1133 490 900 -35 1133 197 b 603 1015 1133 783 900 1015 b 72 490 306 1015 72 783 b 603 -35 72 197 306 -35 z "},"◌":{"ha":1194,"x_min":0,"x_max":0,"o":"m 72 546 l 122 540 b 225 793 132 638 169 724 l 186 824 b 72 546 122 746 82 651 z m 190 151 l 229 182 b 122 438 172 251 133 340 l 72 432 b 190 151 83 326 125 229 z m 269 904 l 300 865 b 546 964 369 919 453 954 l 540 1011 b 269 904 439 1001 344 961 z m 540 -32 l 546 15 b 303 111 454 25 372 58 l 272 72 b 540 -32 347 17 440 -22 z m 931 79 l 900 118 b 649 15 828 61 744 25 l 654 -32 b 931 79 758 -22 856 19 z m 654 1011 l 649 964 b 903 858 747 954 832 917 l 936 894 b 654 1011 860 958 761 1001 z m 1122 432 l 1072 438 b 972 192 1061 344 1026 260 l 1014 161 b 1122 432 1074 238 1111 331 z m 1017 815 l 975 785 b 1072 540 1028 717 1063 635 l 1122 546 b 1017 815 1113 646 1075 739 z "},"◊":{"ha":719,"x_min":0,"x_max":0,"o":"m 642 481 l 382 975 l 338 975 l 78 481 l 338 -14 l 382 -14 z m 589 481 l 360 46 l 131 481 l 360 915 z "},"■":{"ha":1208,"x_min":0,"x_max":0,"o":"m 118 972 l 118 0 l 1090 0 l 1090 972 z "},"□":{"ha":1208,"x_min":0,"x_max":0,"o":"m 169 924 l 1039 924 l 1039 49 l 169 49 z m 118 972 l 118 0 l 1090 0 l 1090 972 z "},"̈":{"ha":0,"x_min":0,"x_max":0,"o":"m 118 840 l 258 840 l 258 979 l 118 979 z m 383 840 l 524 840 l 524 979 l 383 979 z "},"̇":{"ha":0,"x_min":0,"x_max":0,"o":"m 118 836 l 265 836 l 265 983 l 118 983 z "},"̀":{"ha":0,"x_min":0,"x_max":0,"o":"m 342 796 l 211 1029 l 56 1029 l 286 796 z "},"́":{"ha":0,"x_min":0,"x_max":0,"o":"m 83 796 l 139 796 l 369 1029 l 214 1029 z "},"̋":{"ha":0,"x_min":0,"x_max":0,"o":"m 83 796 l 139 796 l 328 1029 l 181 1029 z m 292 796 l 347 796 l 578 1029 l 422 1029 z "},"̂":{"ha":0,"x_min":0,"x_max":0,"o":"m 415 792 l 528 792 l 310 1029 l 242 1029 l 24 792 l 135 792 l 275 943 z "},"̌":{"ha":0,"x_min":0,"x_max":0,"o":"m 136 1029 l 24 1029 l 242 792 l 310 792 l 528 1029 l 417 1029 l 276 878 z "},"̆":{"ha":0,"x_min":0,"x_max":0,"o":"m 133 1024 l 43 1024 b 268 789 43 889 133 789 b 492 1024 403 789 492 889 l 403 1024 b 268 867 397 933 349 867 b 133 1024 188 867 138 933 z "},"̊":{"ha":0,"x_min":0,"x_max":0,"o":"m 204 785 b 349 922 289 785 349 842 b 204 1058 349 1001 289 1058 b 60 922 119 1058 60 1001 b 204 785 60 842 119 785 z m 204 853 b 139 922 167 853 139 882 b 204 990 139 961 167 990 b 269 922 242 990 269 961 b 204 853 269 882 242 853 z "},"̃":{"ha":0,"x_min":0,"x_max":0,"o":"m 196 925 b 425 821 269 925 301 821 b 564 1000 519 821 578 882 l 482 1000 b 425 896 496 931 467 896 b 196 1000 351 896 319 1000 b 57 821 101 1000 43 939 l 139 821 b 196 925 125 890 154 925 z "},"̄":{"ha":0,"x_min":0,"x_max":0,"o":"m 83 960 l 83 878 l 574 878 l 574 960 z "},"̒":{"ha":0,"x_min":0,"x_max":0,"o":"m 265 985 l 206 985 b 290 1111 214 1029 236 1067 l 181 1111 b 118 889 125 1042 118 993 l 118 839 l 265 839 z "},"̣":{"ha":0,"x_min":0,"x_max":0,"o":"m 118 -228 l 265 -228 l 265 -81 l 118 -81 z "},"̦":{"ha":0,"x_min":0,"x_max":0,"o":"m 143 -226 l 203 -226 b 118 -353 194 -271 172 -308 l 228 -353 b 290 -131 283 -283 290 -235 l 290 -81 l 143 -81 z "},"̧":{"ha":0,"x_min":0,"x_max":0,"o":"m 172 0 l 156 -104 l 183 -104 b 257 -167 231 -104 257 -131 b 197 -231 257 -204 232 -231 b 138 -128 163 -231 124 -207 l 60 -185 b 197 -297 67 -247 117 -297 b 335 -167 276 -297 335 -243 b 228 -42 335 -101 290 -53 l 233 0 z "},"̨":{"ha":0,"x_min":0,"x_max":0,"o":"m 296 0 l 282 35 b 218 -286 14 35 14 -286 b 335 -243 251 -286 300 -274 l 335 -126 b 229 -204 300 -192 263 -204 b 296 0 121 -204 122 0 z "},"¨":{"ha":642,"x_min":0,"x_max":0,"o":"m 118 840 l 258 840 l 258 979 l 118 979 z m 383 840 l 524 840 l 524 979 l 383 979 z "},"˙":{"ha":383,"x_min":0,"x_max":0,"o":"m 118 836 l 265 836 l 265 983 l 118 983 z "},"`":{"ha":425,"x_min":0,"x_max":0,"o":"m 342 796 l 211 1029 l 56 1029 l 286 796 z "},"´":{"ha":425,"x_min":0,"x_max":0,"o":"m 83 796 l 139 796 l 369 1029 l 214 1029 z "},"˝":{"ha":633,"x_min":0,"x_max":0,"o":"m 83 796 l 139 796 l 328 1029 l 181 1029 z m 292 796 l 347 796 l 578 1029 l 422 1029 z "},"ˆ":{"ha":551,"x_min":0,"x_max":0,"o":"m 415 792 l 528 792 l 310 1029 l 242 1029 l 24 792 l 135 792 l 275 943 z "},"ˇ":{"ha":551,"x_min":0,"x_max":0,"o":"m 136 1029 l 24 1029 l 242 792 l 310 792 l 528 1029 l 417 1029 l 276 878 z "},"˘":{"ha":535,"x_min":0,"x_max":0,"o":"m 133 1024 l 43 1024 b 268 789 43 889 133 789 b 492 1024 403 789 492 889 l 403 1024 b 268 867 397 933 349 867 b 133 1024 188 867 138 933 z "},"˚":{"ha":408,"x_min":0,"x_max":0,"o":"m 204 785 b 349 922 289 785 349 842 b 204 1058 349 1001 289 1058 b 60 922 119 1058 60 1001 b 204 785 60 842 119 785 z m 204 853 b 139 922 167 853 139 882 b 204 990 139 961 167 990 b 269 922 242 990 269 961 b 204 853 269 882 242 853 z "},"˜":{"ha":621,"x_min":0,"x_max":0,"o":"m 196 925 b 425 821 269 925 301 821 b 564 1000 519 821 578 882 l 482 1000 b 425 896 496 931 467 896 b 196 1000 351 896 319 1000 b 57 821 101 1000 43 939 l 139 821 b 196 925 125 890 154 925 z "},"¯":{"ha":657,"x_min":0,"x_max":0,"o":"m 83 960 l 83 878 l 574 878 l 574 960 z "},"¸":{"ha":394,"x_min":0,"x_max":0,"o":"m 172 0 l 156 -104 l 183 -104 b 257 -167 231 -104 257 -131 b 197 -231 257 -204 232 -231 b 138 -128 163 -231 124 -207 l 60 -185 b 197 -297 67 -247 117 -297 b 335 -167 276 -297 335 -243 b 228 -42 335 -101 290 -53 l 233 0 z "},"˛":{"ha":344,"x_min":0,"x_max":0,"o":"m 296 0 l 282 35 b 218 -286 14 35 14 -286 b 335 -243 251 -286 300 -274 l 335 -126 b 229 -204 300 -192 263 -204 b 296 0 121 -204 122 0 z "}}}
